SplineFontDB: 3.0
FontName: Auvaiyar-Italic
FullName: Auvaiyar Italic
FamilyName: Auvaiyar
Weight: Book
Copyright: Copyright (c) 1995-2015, NLCI (http://www.nlci.in/fonts/) Derived from TAM Auvaiyar Italic by ttfbuilder v0.33
Version: 1.0 Wed Feb 01 17:22:17 1995
ItalicAngle: 12
UnderlinePosition: -310
UnderlineWidth: 20
Ascent: 800
Descent: 200
InvalidEm: 0
sfntRevision: 0x00010000
LayerCount: 2
Layer: 0 0 "Back" 1
Layer: 1 0 "Fore" 0
XUID: [1021 286 -319776333 12478876]
StyleMap: 0x0041
FSType: 0
OS2Version: 1
OS2_WeightWidthSlopeOnly: 0
OS2_UseTypoMetrics: 0
CreationTime: 1547921071
ModificationTime: 1550014580
PfmFamily: 17
TTFWeight: 400
TTFWidth: 5
LineGap: 0
VLineGap: 0
Panose: 2 0 0 3 0 0 0 0 0 0
OS2TypoAscent: 750
OS2TypoAOffset: 0
OS2TypoDescent: -329
OS2TypoDOffset: 0
OS2TypoLinegap: 0
OS2WinAscent: 750
OS2WinAOffset: 0
OS2WinDescent: 329
OS2WinDOffset: 0
HheadAscent: 750
HheadAOffset: 0
HheadDescent: -329
HheadDOffset: 0
OS2SubXSize: 700
OS2SubYSize: 650
OS2SubXOff: 0
OS2SubYOff: 143
OS2SupXSize: 700
OS2SupYSize: 650
OS2SupXOff: 0
OS2SupYOff: 453
OS2StrikeYSize: 50
OS2StrikeYPos: 259
OS2Vendor: 'Phsc'
OS2CodePages: 20000001.00000000
OS2UnicodeRanges: a01080ff.520021cb.08000028.00000000
Lookup: 260 0 0 "_holdAnchorsbase" { "_someAnchorsbase"  } []
DEI: 91125
ShortTable: maxp 16
  1
  0
  243
  273
  12
  362
  16
  1
  0
  0
  0
  0
  142
  0
  3
  2
EndShort

StartChar: .notdef
Encoding: 0 -1 0
Width: 500
Flags: HW
LayerCount: 2
Fore
SplineSet
31 0 m 1
 31 750 l 1
 469 750 l 1
 469 0 l 1
 31 0 l 1
438 31 m 1
 438 719 l 1
 62 719 l 1
 62 31 l 1
 438 31 l 1
EndSplineSet
EndChar

StartChar: exclam.taml
Encoding: 4 -1 4
Width: 320
Flags: HW
LayerCount: 2
Fore
SplineSet
274 450 m 0
 295.333333333 450 306 437.333333333 306 412 c 0
 306 402.666666667 305.333333333 395.166666667 304 389.5 c 128
 302.666666667 383.833333333 301.666666667 379.666666667 301 377 c 0
 278.333333333 312.333333333 255 244.333333333 231 173 c 0
 222.333333333 147 211 112.666666667 197 70 c 1
 190 70 l 1
 196 112 200.333333333 146 203 172 c 0
 211.666666667 251.333333333 216 319.666666667 216 377 c 0
 216 397 221.5 414.166666667 232.5 428.5 c 128
 243.5 442.833333333 257.333333333 450 274 450 c 0
179 8 m 0
 191 8 200 4.33333333333 206 -3 c 128
 212 -10.3333333333 213.666666667 -20 211 -32 c 256
 208.333333333 -44 202.5 -54.1666666667 193.5 -62.5 c 128
 184.5 -70.8333333333 174 -75 162 -75 c 0
 150.666666667 -75 141.833333333 -70.8333333333 135.5 -62.5 c 128
 129.166666667 -54.1666666667 127.333333333 -44 130 -32 c 0
 132.666666667 -21.3333333333 138.666666667 -12 148 -4 c 128
 157.333333333 4 167.666666667 8 179 8 c 0
EndSplineSet
EndChar

StartChar: quoteleft.taml
Encoding: 5 -1 5
Width: 250
Flags: HW
LayerCount: 2
Fore
SplineSet
315 648 m 1
 275 635.333333333 241.666666667 613 215 581 c 0
 191 552.333333333 183 534.666666667 191 528 c 0
 194.333333333 525.333333333 198 524 202 524 c 0
 204 524 213.333333333 528.333333333 230 537 c 0
 237.333333333 541 244.333333333 543 251 543 c 0
 258.333333333 543 264.333333333 541 269 537 c 0
 281.666666667 527 288 512.666666667 288 494 c 0
 288 476.666666667 282 461 270 447 c 0
 256 429.666666667 236.666666667 421 212 421 c 0
 204.666666667 421 195.833333333 421.666666667 185.5 423 c 128
 175.166666667 424.333333333 166.166666667 431.333333333 158.5 444 c 128
 150.833333333 456.666666667 147 472.333333333 147 491 c 0
 147 507 150.333333333 522.666666667 157 538 c 0
 177 585.333333333 210.333333333 622.666666667 257 650 c 0
 272.333333333 658.666666667 293.666666667 667.666666667 321 677 c 1
 315 648 l 1
EndSplineSet
EndChar

StartChar: u20A8
Encoding: 6 8360 6
Width: 800
Flags: HW
LayerCount: 2
Fore
SplineSet
714 86 m 0
 708.666666667 60 694.333333333 38.1666666667 671 20.5 c 128
 647.666666667 2.83333333333 623 -6 597 -6 c 0
 585 -6 569.666666667 -4 551 0 c 128
 532.333333333 4 520.666666667 6 516 6 c 0
 509.333333333 6 504 3.66666666667 500 -1 c 1
 521 100 l 1
 521.666666667 64.6666666667 529.333333333 39.6666666667 544 25 c 0
 556.666666667 12.3333333333 575.333333333 6 600 6 c 0
 614.666666667 6 629.166666667 11.5 643.5 22.5 c 128
 657.833333333 33.5 666.333333333 45.3333333333 669 58 c 0
 669.666666667 60 670 62.1666666667 670 64.5 c 128
 670 68 670 68 670 69 c 0
 670 82.3333333333 663.333333333 95 650 107 c 0
 640.666666667 115.666666667 625.333333333 125.666666667 604 137 c 0
 584.666666667 149 573.666666667 156 571 158 c 0
 553.666666667 171.333333333 545 187 545 205 c 0
 545 213 545.666666667 219.333333333 547 224 c 0
 551.666666667 248.666666667 563.666666667 268.666666667 583 284 c 128
 602.333333333 299.333333333 624.333333333 307 649 307 c 0
 661 307 671.833333333 306 681.5 304 c 128
 691.166666667 302 702 300 714 298 c 0
 722 298 727.666666667 301 731 307 c 1
 741 307 l 1
 721 213 l 1
 712 213 l 1
 712 244.333333333 706.666666667 266.333333333 696 279 c 128
 685.333333333 291.666666667 668.333333333 298 645 298 c 0
 631 298 617.666666667 293.833333333 605 285.5 c 128
 592.333333333 277.166666667 585.166666667 269 583.5 261 c 128
 581.833333333 253 581 246.333333333 581 241 c 0
 581 223.666666667 592 208.333333333 614 195 c 0
 621.333333333 190.333333333 634.666666667 183 654 173 c 0
 675.333333333 160.333333333 689.333333333 150.666666667 696 144 c 0
 709.333333333 131.333333333 716 116.666666667 716 100 c 0
 716 97.3333333333 715.333333333 92.6666666667 714 86 c 0
448 4 m 1
 333 4 l 1
 226 216 l 1
 174 214 l 1
 144 80 l 2
 142.666666667 72.6666666667 141.5 66.3333333333 140.5 61 c 128
 139.5 55.6666666667 139 49.6666666667 139 43 c 0
 139 29.6666666667 141.833333333 21.6666666667 147.5 19 c 128
 153.166666667 16.3333333333 164 15 180 15 c 2
 195 15 l 1
 193 4 l 1
 10 4 l 1
 12 15 l 1
 22 15 l 2
 41.3333333333 15 54.6666666667 17.6666666667 62 23 c 0
 74 31.6666666667 83.3333333333 50.6666666667 90 80 c 2
 152 374 l 2
 154.666666667 384.666666667 156 394.666666667 156 404 c 0
 156 417.333333333 152.666666667 425.666666667 146 429 c 128
 139.333333333 432.333333333 127.666666667 434 111 434 c 2
 99 433 l 1
 102 446 l 1
 260 446 l 2
 316 446 357.5 440 384.5 428 c 128
 411.5 416 425 394.666666667 425 364 c 0
 425 356 424 347 422 337 c 0
 416 310.333333333 402.666666667 287.666666667 382 269 c 0
 358 247 325.333333333 231.333333333 284 222 c 1
 305.333333333 180 321.666666667 148.666666667 333 128 c 0
 367 64 387.333333333 30.3333333333 394 27 c 0
 399.333333333 23 407.666666667 19.8333333333 419 17.5 c 128
 430.333333333 15.1666666667 440.666666667 13.3333333333 450 12 c 1
 448 4 l 1
354 326 m 0
 356 334 357 342.333333333 357 351 c 0
 357 373.666666667 350.666666667 391.333333333 338 404 c 0
 322.666666667 419.333333333 298.666666667 427 266 427 c 0
 254.666666667 427 239 425.333333333 219 422 c 1
 178 232 l 1
 182 231.333333333 186 231 190 231 c 128
 196 231 196 231 203 231 c 0
 241.666666667 231 275.166666667 240.333333333 303.5 259 c 128
 331.833333333 277.666666667 348.666666667 300 354 326 c 0
EndSplineSet
EndChar

StartChar: percent.taml
Encoding: 7 -1 7
Width: 581
Flags: HW
LayerCount: 2
Fore
SplineSet
532 157 m 0
 522 108.333333333 503 71.3333333333 475 46 c 0
 451.666666667 24.6666666667 427 14 401 14 c 0
 389.666666667 14 380.666666667 15.3333333333 374 18 c 0
 350.666666667 27.3333333333 339 50 339 86 c 0
 339 99.3333333333 341 115.666666667 345 135 c 0
 353.666666667 175 368 207.666666667 388 233 c 0
 414.666666667 266.333333333 443.333333333 283 474 283 c 0
 490.666666667 283 504.333333333 278.333333333 515 269 c 0
 530.333333333 255.666666667 538 235 538 207 c 0
 538 193 536 176.333333333 532 157 c 0
533 504 m 1
 141 12 l 1
 101 12 l 1
 492 504 l 1
 533 504 l 1
293 383 m 0
 284.333333333 343 270 310.333333333 250 285 c 0
 223.333333333 251.666666667 194.666666667 235 164 235 c 0
 147.333333333 235 133.666666667 239.666666667 123 249 c 0
 107.666666667 262.333333333 100 283 100 311 c 0
 100 325 102 341.666666667 106 361 c 0
 116 409.666666667 135 446.666666667 163 472 c 0
 186.333333333 493.333333333 211 504 237 504 c 0
 248.333333333 504 257.333333333 502.666666667 264 500 c 0
 287.333333333 490.666666667 299 468 299 432 c 0
 299 418.666666667 297 402.333333333 293 383 c 0
484 119 m 0
 488 138.333333333 490 155 490 169 c 0
 490 190.333333333 485.166666667 206.333333333 475.5 217 c 128
 465.833333333 227.666666667 454 233 440 233 c 0
 417.333333333 233 402.333333333 216.333333333 395 183 c 0
 391 163 389 145.666666667 389 131 c 0
 389 86.3333333333 406.333333333 64 441 64 c 0
 461.666666667 64 476 82.3333333333 484 119 c 0
243 335 m 0
 247 355 249 372.333333333 249 387 c 0
 249 431.666666667 231.666666667 454 197 454 c 0
 176.333333333 454 162 435.666666667 154 399 c 0
 150 379.666666667 148 363.333333333 148 350 c 0
 148 328 152.833333333 311.666666667 162.5 301 c 128
 172.166666667 290.333333333 184.333333333 285 199 285 c 0
 221.666666667 285 236.333333333 301.666666667 243 335 c 0
EndSplineSet
EndChar

StartChar: ampersand.taml
Encoding: 8 -1 8
Width: 505
Flags: HW
LayerCount: 2
Fore
SplineSet
392 286 m 1
 524 286 l 1
 521 274 l 1
 505 274 490.666666667 270 478 262 c 0
 470 256 460.666666667 247 450 235 c 0
 446.666666667 231 438.333333333 220 425 202 c 0
 403 172 375.333333333 140.333333333 342 107 c 1
 348.666666667 96.3333333333 355.166666667 87.5 361.5 80.5 c 128
 367.833333333 73.5 375 67 383 61 c 0
 396.333333333 52.3333333333 410 48 424 48 c 0
 454 48 476.666666667 63.6666666667 492 95 c 1
 503 86 l 1
 489 57.3333333333 472.333333333 35.6666666667 453 21 c 128
 433.666666667 6.33333333333 412.333333333 -1 389 -1 c 0
 373 -1 355.666666667 3.66666666667 337 13 c 0
 329 17.6666666667 321.166666667 23.8333333333 313.5 31.5 c 128
 305.833333333 39.1666666667 297.333333333 49 288 61 c 1
 260 40.3333333333 232.666666667 24.6666666667 206 14 c 128
 179.333333333 3.33333333333 155.666666667 -2 135 -2 c 0
 103 -2 78 8 60 28 c 0
 48 42 42 58.3333333333 42 77 c 0
 42 105.666666667 57 136.666666667 87 170 c 0
 110.333333333 195.333333333 150.666666667 221.666666667 208 249 c 1
 202 276.333333333 199 297.666666667 199 313 c 0
 199 322.333333333 200 332.666666667 202 344 c 0
 208.666666667 375.333333333 224.666666667 400.5 250 419.5 c 128
 275.333333333 438.5 303.666666667 448 335 448 c 0
 355.666666667 448 372.666666667 442.333333333 386 431 c 128
 399.333333333 419.666666667 406 405 406 387 c 0
 406 383.666666667 405.333333333 378.666666667 404 372 c 0
 399.333333333 350 387.666666667 330.5 369 313.5 c 128
 350.333333333 296.5 319 277.666666667 275 257 c 1
 285 229 294.166666667 205.166666667 302.5 185.5 c 128
 310.833333333 165.833333333 320.666666667 146 332 126 c 1
 376 169.333333333 402.333333333 206.666666667 411 238 c 0
 415 259.333333333 407.666666667 271.333333333 389 274 c 1
 392 286 l 1
269 278 m 1
 299 291.333333333 321.833333333 305.333333333 337.5 320 c 128
 353.166666667 334.666666667 363 352.333333333 367 373 c 0
 367.666666667 375.666666667 368 379.666666667 368 385 c 0
 368 397 364.5 406.833333333 357.5 414.5 c 128
 350.5 422.166666667 341.333333333 426 330 426 c 0
 312.666666667 426 297.333333333 419.666666667 284 407 c 0
 273.333333333 396.333333333 266.5 385 263.5 373 c 128
 260.5 361 259 350.333333333 259 341 c 0
 259 326.333333333 262.333333333 305.333333333 269 278 c 1
275 79 m 1
 258.333333333 112.333333333 245.666666667 139.5 237 160.5 c 128
 228.333333333 181.5 220.333333333 204 213 228 c 1
 197 219.333333333 184.166666667 211.666666667 174.5 205 c 128
 164.833333333 198.333333333 155.333333333 190 146 180 c 0
 124.666666667 156.666666667 114 131.333333333 114 104 c 0
 114 89.3333333333 117.333333333 75.6666666667 124 63 c 0
 130 54.3333333333 137.166666667 47.5 145.5 42.5 c 128
 153.833333333 37.5 163.333333333 35 174 35 c 0
 186 35 200.666666667 38.6666666667 218 46 c 128
 235.333333333 53.3333333333 254.333333333 64.3333333333 275 79 c 1
EndSplineSet
EndChar

StartChar: quoteright.taml
Encoding: 9 -1 9
Width: 250
Flags: HW
LayerCount: 2
Fore
SplineSet
267 550 m 0
 247 502.666666667 213.666666667 465.333333333 167 438 c 0
 151.666666667 429.333333333 130.333333333 420.333333333 103 411 c 1
 110 440 l 1
 150 452.666666667 183.333333333 475 210 507 c 0
 233.333333333 535.666666667 241 553.333333333 233 560 c 0
 229.666666667 562.666666667 226 564 222 564 c 0
 220 564 210.666666667 559.666666667 194 551 c 0
 186.666666667 547 179.666666667 545 173 545 c 0
 165.666666667 545 159.666666667 547 155 551 c 0
 142.333333333 561 136 575.333333333 136 594 c 0
 136 611.333333333 142 627 154 641 c 0
 162 650.333333333 171 657 181 661 c 128
 191 665 201.666666667 667 213 667 c 0
 220.333333333 667 229 666.333333333 239 665 c 128
 249 663.666666667 257.833333333 656.666666667 265.5 644 c 128
 273.166666667 631.333333333 277 615.666666667 277 597 c 0
 277 581 273.666666667 565.333333333 267 550 c 0
EndSplineSet
EndChar

StartChar: parenleft.taml
Encoding: 10 -1 10
Width: 280
Flags: HW
LayerCount: 2
Fore
SplineSet
249 -246 m 1
 241 -253 l 1
 185.666666667 -218.333333333 144.5 -173.5 117.5 -118.5 c 128
 90.5 -63.5 77 -1.33333333333 77 68 c 0
 77 109.333333333 81.3333333333 149.666666667 90 189 c 0
 110 283 147.666666667 367.666666667 203 443 c 0
 262.333333333 523 337.666666667 586 429 632 c 1
 434 626 l 1
 350 569.333333333 281.833333333 485.166666667 229.5 373.5 c 128
 177.166666667 261.833333333 151 150.666666667 151 40 c 0
 151 -20 159 -74.1666666667 175 -122.5 c 128
 191 -170.833333333 215.666666667 -212 249 -246 c 1
EndSplineSet
EndChar

StartChar: parenright.taml
Encoding: 11 -1 11
Width: 280
Flags: HW
LayerCount: 2
Fore
SplineSet
230 189 m 0
 210 95 172.333333333 10.6666666667 117 -64 c 0
 57.6666666667 -144 -17.6666666667 -207 -109 -253 c 1
 -113 -246 l 1
 -26.3333333333 -184.666666667 43 -96.6666666667 95 18 c 0
 144.333333333 126 169 234.666666667 169 344 c 0
 169 404.666666667 161 458.833333333 145 506.5 c 128
 129 554.166666667 104.666666667 594 72 626 c 1
 79 632 l 1
 133.666666667 596.666666667 174.666666667 551 202 495 c 128
 229.333333333 439 243 377.333333333 243 310 c 0
 243 268.666666667 238.666666667 228.333333333 230 189 c 0
EndSplineSet
EndChar

StartChar: asterisk.taml
Encoding: 12 -1 12
Width: 600
Flags: HW
LayerCount: 2
Fore
SplineSet
378 401 m 1
 362 392.333333333 346.333333333 381.666666667 331 369 c 0
 311.666666667 353 292.666666667 337 274 321 c 0
 266.666666667 315.666666667 259 313 251 313 c 0
 239 313 231.333333333 318 228 328 c 0
 224.666666667 336 225.666666667 344.666666667 231 354 c 128
 236.333333333 363.333333333 242.833333333 369.333333333 250.5 372 c 128
 258.166666667 374.666666667 281.666666667 381 321 391 c 0
 342.333333333 396.333333333 360 402.666666667 374 410 c 1
 364.666666667 415.333333333 353.666666667 420 341 424 c 0
 317 430.666666667 293.333333333 437.666666667 270 445 c 0
 260 448.333333333 255 456.333333333 255 469 c 0
 255 475.666666667 257.333333333 483 262 491 c 0
 271.333333333 501 282.333333333 506 295 506 c 0
 302.333333333 506 308 503.666666667 312 499 c 0
 330.666666667 474.333333333 343 458 349 450 c 0
 359 436.666666667 370 425.666666667 382 417 c 1
 383.333333333 423.666666667 384 430.5 384 437.5 c 128
 384 448 384 448 384 454 c 0
 384 462 383.666666667 476.166666667 383 496.5 c 128
 382.333333333 516.833333333 382 529.666666667 382 535 c 0
 386.666666667 559 399.333333333 571 420 571 c 0
 435.333333333 571 443 561.666666667 443 543 c 0
 443 539 442.666666667 536 442 534 c 0
 432 512.666666667 423.666666667 495.333333333 417 482 c 0
 404.333333333 456 396 435 392 419 c 1
 409.333333333 428.333333333 429.333333333 442.333333333 452 461 c 0
 475 480 475 480 498 499 c 0
 503.333333333 502.333333333 509.333333333 504 516 504 c 0
 528.666666667 504 537.333333333 499.333333333 542 490 c 0
 544.666666667 480.666666667 543.166666667 471.333333333 537.5 462 c 128
 531.833333333 452.666666667 526.333333333 447.333333333 521 446 c 128
 515.666666667 444.666666667 491 438.666666667 447 428 c 0
 428.333333333 423.333333333 411 417.333333333 395 410 c 1
 407 402.666666667 422.333333333 396.166666667 441 390.5 c 128
 459.666666667 384.833333333 479.333333333 379 500 373 c 0
 510 369.666666667 515 362 515 350 c 0
 515 343.333333333 512.666666667 336.666666667 508 330 c 0
 499.333333333 319.333333333 488.333333333 314 475 314 c 0
 469 314 464 316.333333333 460 321 c 0
 453.333333333 328.333333333 440.666666667 343.333333333 422 366 c 0
 410 380.666666667 398.666666667 391.666666667 388 399 c 1
 386 385.666666667 385 374 385 364 c 0
 385 354.666666667 385.5 340.5 386.5 321.5 c 128
 387.5 302.5 388 290 388 284 c 0
 386 274 381.666666667 265.333333333 375 258 c 128
 368.333333333 250.666666667 360.666666667 247 352 247 c 0
 335.333333333 247 327 256.333333333 327 275 c 0
 327 279 327.333333333 282 328 284 c 0
 335.333333333 300.666666667 345 322 357 348 c 0
 367 368.666666667 374 386.333333333 378 401 c 1
EndSplineSet
EndChar

StartChar: plus.taml
Encoding: 13 -1 13
Width: 420
Flags: HW
LayerCount: 2
Fore
SplineSet
231 259 m 1
 247 334 l 2
 248.333333333 340 252.833333333 344.666666667 260.5 348 c 128
 268.166666667 351.333333333 276.666666667 353 286 353 c 0
 308 353 317.666666667 346.666666667 315 334 c 2
 299 259 l 1
 374 259 l 2
 383.333333333 259 388 251.666666667 388 237 c 0
 388 227 385.166666667 216.833333333 379.5 206.5 c 128
 373.833333333 196.166666667 367.333333333 191 360 191 c 2
 285 191 l 1
 269 116 l 2
 267.666666667 109.333333333 263.5 104.333333333 256.5 101 c 128
 249.5 97.6666666667 241 96 231 96 c 0
 222.333333333 96 214.833333333 97.8333333333 208.5 101.5 c 128
 202.166666667 105.166666667 199.666666667 110 201 116 c 2
 217 191 l 1
 142 191 l 2
 132.666666667 191 128 198.333333333 128 213 c 0
 128 223 130.833333333 233.166666667 136.5 243.5 c 128
 142.166666667 253.833333333 148.666666667 259 156 259 c 2
 231 259 l 1
EndSplineSet
EndChar

StartChar: comma.taml
Encoding: 14 -1 14
Width: 220
Flags: HW
LayerCount: 2
Fore
SplineSet
161 34 m 0
 153 -4 132.666666667 -37 100 -65 c 0
 57.3333333333 -101.666666667 23 -120 -3 -120 c 1
 3 -93 l 1
 15 -93 35 -82.6666666667 63 -62 c 0
 97 -37.3333333333 116.666666667 -12 122 14 c 0
 123.333333333 22 120.333333333 26 113 26 c 0
 108.333333333 26 100.333333333 22.8333333333 89 16.5 c 128
 77.6666666667 10.1666666667 69.3333333333 7 64 7 c 0
 54.6666666667 7 46.3333333333 12 39 22 c 128
 31.6666666667 32 28 43.6666666667 28 57 c 0
 28 61.6666666667 28.3333333333 65 29 67 c 0
 32.3333333333 82.3333333333 41.3333333333 96 56 108 c 128
 70.6666666667 120 85.3333333333 126 100 126 c 0
 120 126 135.5 119 146.5 105 c 128
 157.5 91 163 74 163 54 c 0
 163 50 162.333333333 43.3333333333 161 34 c 0
EndSplineSet
EndChar

StartChar: hyphen.taml
Encoding: 15 -1 15
Width: 443
Flags: HW
LayerCount: 2
Fore
SplineSet
402 191 m 2
 122 191 l 2
 113.333333333 191 106 192.666666667 100 196 c 0
 90 201.333333333 85 209.666666667 85 221 c 0
 85 231 89.6666666667 240.166666667 99 248.5 c 128
 108.333333333 256.833333333 120.666666667 261 136 261 c 2
 416 261 l 2
 428.666666667 261 438.166666667 258.166666667 444.5 252.5 c 128
 450.833333333 246.833333333 454 239.666666667 454 231 c 0
 454 221 449.333333333 211.833333333 440 203.5 c 128
 430.666666667 195.166666667 418 191 402 191 c 2
EndSplineSet
EndChar

StartChar: period.taml
Encoding: 16 -1 16
Width: 220
Flags: HW
LayerCount: 2
Fore
SplineSet
166 62 m 0
 162.666666667 44.6666666667 153.333333333 30 138 18 c 128
 122.666666667 6 106.333333333 0 89 0 c 0
 74.3333333333 0 62.3333333333 4.66666666667 53 14 c 128
 43.6666666667 23.3333333333 39 35.3333333333 39 50 c 0
 39 55.3333333333 39.3333333333 59.3333333333 40 62 c 0
 43.3333333333 79.3333333333 52.3333333333 94 67 106 c 128
 81.6666666667 118 97.6666666667 124 115 124 c 0
 130.333333333 124 142.833333333 119.166666667 152.5 109.5 c 128
 162.166666667 99.8333333333 167 87.6666666667 167 73 c 0
 167 68.3333333333 166.666666667 64.6666666667 166 62 c 0
EndSplineSet
EndChar

StartChar: slash.taml
Encoding: 18 -1 18
Width: 260
Flags: HW
LayerCount: 2
Fore
SplineSet
391 614 m 1
 1 -94 l 1
 -39 -94 l 1
 352 614 l 1
 391 614 l 1
EndSplineSet
EndChar

StartChar: zero.taml
Encoding: 19 -1 19
Width: 534
Flags: HW
LayerCount: 2
Fore
SplineSet
462 225 m 0
 446 149.666666667 413.333333333 92.3333333333 364 53 c 0
 318.666666667 17 265 -1 203 -1 c 0
 189.666666667 -1 176 0 162 2 c 0
 118.666666667 8 87.1666666667 22.6666666667 67.5 46 c 128
 47.8333333333 69.3333333333 38 101.333333333 38 142 c 0
 38 168.666666667 41.3333333333 196.333333333 48 225 c 0
 62 290.333333333 84.3333333333 340.666666667 115 376 c 0
 149.666666667 415.333333333 197 438.666666667 257 446 c 0
 264.333333333 447.333333333 272 448 280 448 c 128
 292 448 292 448 298 448 c 0
 354.666666667 448 397.333333333 433.5 426 404.5 c 128
 454.666666667 375.5 469 336 469 286 c 0
 469 272.666666667 468.666666667 262.666666667 468 256 c 128
 467.333333333 249.333333333 465.333333333 239 462 225 c 0
341 223 m 0
 347 248.333333333 350 271.666666667 350 293 c 0
 350 327 342.333333333 353.333333333 327 372 c 0
 309.666666667 392.666666667 283.333333333 403 248 403 c 0
 207.333333333 403 172.333333333 385 143 349 c 0
 116.333333333 316.333333333 97.6666666667 274.333333333 87 223 c 0
 83 203 81 183.666666667 81 165 c 0
 81 129.666666667 88.3333333333 101.166666667 103 79.5 c 128
 117.666666667 57.8333333333 140.666666667 47 172 47 c 0
 217.333333333 47 255.333333333 65.3333333333 286 102 c 0
 312.666666667 133.333333333 331 173.666666667 341 223 c 0
EndSplineSet
EndChar

StartChar: one.taml
Encoding: 20 -1 20
Width: 347
Flags: HW
LayerCount: 2
Fore
SplineSet
317 424 m 0
 305 408 294.666666667 390.833333333 286 372.5 c 128
 277.333333333 354.166666667 271 335.666666667 267 317 c 128
 263 298.333333333 254 260.333333333 240 203 c 0
 232 169.666666667 226.333333333 146 223 132 c 0
 213 86.6666666667 192.666666667 51.6666666667 162 27 c 0
 136 6.33333333333 106.666666667 -4 74 -4 c 0
 62 -4 56 -0.666666666667 56 6 c 0
 56 10 58.6666666667 15.3333333333 64 22 c 0
 76 38 86.3333333333 55.1666666667 95 73.5 c 128
 103.666666667 91.8333333333 110.333333333 112.333333333 115 135 c 0
 117 143.666666667 129.666666667 192.666666667 153 282 c 0
 156.333333333 296.666666667 160 311.666666667 164 327 c 1
 154.666666667 310.333333333 144.666666667 295.666666667 134 283 c 0
 120 266.333333333 105 252 89 240 c 0
 80.3333333333 233.333333333 72.3333333333 230 65 230 c 256
 57.6666666667 230 53.6666666667 233.333333333 53 240 c 0
 53 252 57.6666666667 261.333333333 67 268 c 0
 76.3333333333 273.333333333 85.6666666667 279 95 285 c 0
 100 289 100 289 105 293 c 0
 112.333333333 299 120.333333333 308.333333333 129 321 c 0
 148.333333333 349.666666667 162 369.666666667 170 381 c 0
 184 401.666666667 197 415.666666667 209 423 c 0
 236.333333333 441 269 450 307 450 c 0
 319 450 325 446.666666667 325 440 c 0
 325 436 322.333333333 430.666666667 317 424 c 0
EndSplineSet
EndChar

StartChar: two.taml
Encoding: 21 -1 21
Width: 475
Flags: HW
LayerCount: 2
Fore
SplineSet
85 361 m 0
 111 397.666666667 135.833333333 421.666666667 159.5 433 c 128
 183.166666667 444.333333333 211.666666667 450 245 450 c 0
 303 450 345.333333333 441.5 372 424.5 c 128
 398.666666667 407.5 412 381.666666667 412 347 c 0
 412 336.333333333 410.333333333 323.333333333 407 308 c 0
 394.333333333 246.666666667 358.333333333 202.666666667 299 176 c 1
 233 150.666666667 167.333333333 125.333333333 102 100 c 0
 87.3333333333 92.6666666667 76.6666666667 85.3333333333 70 78 c 128
 63.3333333333 70.6666666667 60 63.6666666667 60 57 c 0
 60 43.6666666667 70.6666666667 37 92 37 c 0
 98.6666666667 37 105.666666667 38 113 40 c 0
 133.666666667 46.6666666667 146 50 150 50 c 0
 152 50 156.5 49.6666666667 163.5 49 c 128
 170.5 48.3333333333 177.666666667 48 185 48 c 0
 202.333333333 48 215 46.6666666667 223 44 c 128
 231 41.3333333333 242.666666667 40 258 40 c 0
 278 40 293.333333333 42 304 46 c 0
 316.666666667 52.6666666667 327.833333333 58.1666666667 337.5 62.5 c 128
 347.166666667 66.8333333333 356.333333333 69 365 69 c 0
 379 69 386 63.3333333333 386 52 c 0
 386 41.3333333333 377.333333333 32 360 24 c 0
 347.333333333 18 335 12.5 323 7.5 c 128
 311 2.5 293.333333333 0 270 0 c 0
 248.666666667 0 233.333333333 1.33333333333 224 4 c 128
 214.666666667 6.66666666667 199.666666667 8 179 8 c 0
 155 8 131.666666667 6.16666666667 109 2.5 c 128
 86.3333333333 -1.16666666667 68.6666666667 -3 56 -3 c 256
 43.3333333333 -3 33.3333333333 -0.666666666667 26 4 c 0
 15.3333333333 10.6666666667 10 21.6666666667 10 37 c 0
 10 39.6666666667 10.6666666667 45.6666666667 12 55 c 0
 18 84.3333333333 42.5 109.833333333 85.5 131.5 c 128
 128.5 153.166666667 171 174.333333333 213 195 c 1
 259.666666667 225.666666667 288 264.666666667 298 312 c 0
 300 319.333333333 301.333333333 326.333333333 302 333 c 128
 302.666666667 339.666666667 303 346.666666667 303 354 c 0
 303 391.333333333 281.666666667 410 239 410 c 2
 219 410 l 2
 195.666666667 410 176.166666667 404.666666667 160.5 394 c 128
 144.833333333 383.333333333 129.333333333 367 114 345 c 0
 107.333333333 335 99.3333333333 330 90 330 c 0
 81.3333333333 330 77 334 77 342 c 0
 77 347.333333333 79.6666666667 353.666666667 85 361 c 0
EndSplineSet
EndChar

StartChar: three.taml
Encoding: 22 -1 22
Width: 424
Flags: HW
LayerCount: 2
Fore
SplineSet
108 408 m 0
 112.666666667 415.333333333 124 423.5 142 432.5 c 128
 160 441.5 174 446.833333333 184 448.5 c 128
 194 450.166666667 203.5 451.333333333 212.5 452 c 128
 221.5 452.666666667 229.333333333 453 236 453 c 0
 277.333333333 453 310.833333333 443.833333333 336.5 425.5 c 128
 362.166666667 407.166666667 375 383.666666667 375 355 c 0
 375 335 368 314.333333333 354 293 c 0
 338 269 315 246.333333333 285 225 c 1
 315.666666667 198.333333333 331 169 331 137 c 0
 331 99 311.833333333 65.8333333333 273.5 37.5 c 128
 235.166666667 9.16666666667 189.666666667 -5 137 -5 c 0
 128.333333333 -5 121.333333333 -4.66666666667 116 -4 c 128
 110.666666667 -3.33333333333 102 -2 90 0 c 0
 44.6666666667 8.66666666667 19.3333333333 31.3333333333 14 68 c 0
 12.6666666667 74.6666666667 14.6666666667 81.1666666667 20 87.5 c 128
 25.3333333333 93.8333333333 31.3333333333 97 38 97 c 0
 47.3333333333 97 53.6666666667 90.6666666667 57 78 c 0
 64.3333333333 53.3333333333 83.3333333333 41 114 41 c 0
 138.666666667 41 163.833333333 52.1666666667 189.5 74.5 c 128
 215.166666667 96.8333333333 228 122 228 150 c 0
 228 163.333333333 224.5 176.333333333 217.5 189 c 128
 210.5 201.666666667 199.333333333 213.666666667 184 225 c 1
 213.333333333 242.333333333 234.666666667 260.666666667 248 280 c 128
 261.333333333 299.333333333 268 318 268 336 c 0
 268 356 260.666666667 372.666666667 246 386 c 128
 231.333333333 399.333333333 213 406 191 406 c 2
 178 406 l 2
 170.666666667 406 164.166666667 404.833333333 158.5 402.5 c 128
 152.833333333 400.166666667 145.833333333 394.5 137.5 385.5 c 128
 129.166666667 376.5 121.333333333 372 114 372 c 0
 104.666666667 372 100 377.333333333 100 388 c 0
 100 394 102.666666667 400.666666667 108 408 c 0
EndSplineSet
EndChar

StartChar: four.taml
Encoding: 23 -1 23
Width: 509
Flags: HW
LayerCount: 2
Fore
SplineSet
231 162 m 1
 249 219.333333333 262.333333333 262.333333333 271 291 c 0
 277 315 283.333333333 339 290 363 c 1
 266 333 231.333333333 295.333333333 186 250 c 0
 137.333333333 201.333333333 100.666666667 168.666666667 76 152 c 1
 87.3333333333 152 103.333333333 153 124 155 c 0
 172.666666667 159.666666667 208.333333333 162 231 162 c 1
331 123 m 1
 320.333333333 81 300 48.6666666667 270 26 c 0
 243.333333333 6 214.666666667 -4 184 -4 c 0
 172 -4 166 -0.666666666667 166 6 c 0
 166 10 168.666666667 15.3333333333 174 22 c 0
 184 35.3333333333 193.166666667 50.6666666667 201.5 68 c 128
 209.833333333 85.3333333333 216.666666667 103.666666667 222 123 c 1
 46 119 l 2
 34.6666666667 119 29 123.666666667 29 133 c 0
 29 138.333333333 31.6666666667 144.666666667 37 152 c 0
 76.3333333333 185.333333333 114.333333333 219.666666667 151 255 c 0
 191.666666667 293.666666667 222 323.333333333 242 344 c 0
 267.333333333 370 293 396.333333333 319 423 c 0
 329.666666667 433.666666667 343 440.833333333 359 444.5 c 128
 375 448.166666667 394.333333333 450 417 450 c 0
 429 450 435 446.666666667 435 440 c 0
 435 436 432.333333333 430.666666667 427 424 c 0
 415 408 404.666666667 390.833333333 396 372.5 c 128
 387.333333333 354.166666667 380.666666667 334 376 312 c 128
 371.333333333 290 365.666666667 265.666666667 359 239 c 128
 352.333333333 212.333333333 345.333333333 185 338 157 c 1
 343 157 l 2
 356.333333333 157 375.666666667 163 401 175 c 0
 410.333333333 179 418 181 424 181 c 0
 434 181 439 177 439 169 c 0
 439 159.666666667 432.333333333 151.5 419 144.5 c 128
 405.666666667 137.5 393.5 132.166666667 382.5 128.5 c 128
 371.5 124.833333333 359.666666667 123 347 123 c 2
 331 123 l 1
EndSplineSet
EndChar

StartChar: five.taml
Encoding: 24 -1 24
Width: 483
Flags: HW
LayerCount: 2
Fore
SplineSet
275 428 m 0
 288.333333333 428 299.333333333 427.666666667 308 427 c 128
 316.666666667 426.333333333 325.666666667 425.666666667 335 425 c 0
 349.666666667 425 361.833333333 426.166666667 371.5 428.5 c 128
 381.166666667 430.833333333 393.666666667 435.666666667 409 443 c 0
 419 447.666666667 428.333333333 450 437 450 c 0
 451 450 458 444.333333333 458 433 c 0
 458 422.333333333 449.666666667 413.333333333 433 406 c 128
 416.333333333 398.666666667 401.333333333 393.333333333 388 390 c 128
 374.666666667 386.666666667 361.333333333 385 348 385 c 0
 333.333333333 385 318.166666667 385.5 302.5 386.5 c 128
 286.833333333 387.5 275.333333333 388 268 388 c 2
 215 386 l 1
 151 311 l 1
 174.333333333 315 197 317 219 317 c 0
 273 317 316.5 305.833333333 349.5 283.5 c 128
 382.5 261.166666667 399 228.333333333 399 185 c 0
 399 174 399 174 399 164 c 0
 397 156.666666667 395.666666667 151.666666667 395 149 c 0
 382.333333333 89 349.333333333 47 296 23 c 0
 258.666666667 6.33333333333 208 -2 144 -2 c 0
 112.666666667 -2 88.8333333333 0.5 72.5 5.5 c 128
 56.1666666667 10.5 41 20 27 34 c 0
 24.3333333333 36.6666666667 23 40 23 44 c 0
 23 50 25.8333333333 55.5 31.5 60.5 c 128
 37.1666666667 65.5 43.3333333333 68 50 68 c 0
 54 68 57.3333333333 66.6666666667 60 64 c 0
 71.3333333333 52.6666666667 82.8333333333 45.5 94.5 42.5 c 128
 106.166666667 39.5 125.333333333 38 152 38 c 0
 179.333333333 38 205.5 48.3333333333 230.5 69 c 128
 255.5 89.6666666667 271.666666667 116.666666667 279 150 c 0
 281 161.333333333 282 171 282 179 c 0
 282 214.333333333 265 240 231 256 c 0
 205.666666667 268 173.666666667 274 135 274 c 0
 116.333333333 274 107 278.333333333 107 287 c 0
 107 292.333333333 111.666666667 300.333333333 121 311 c 2
 186 414 l 1
 207 426 l 2
 214.333333333 429.333333333 223 431 233 431 c 0
 239 431 247.166666667 430.5 257.5 429.5 c 128
 267.833333333 428.5 273.666666667 428 275 428 c 0
EndSplineSet
EndChar

StartChar: six.taml
Encoding: 25 -1 25
Width: 374
Flags: HW
LayerCount: 2
Fore
SplineSet
328 410 m 0
 272.666666667 410 225.666666667 394.666666667 187 364 c 0
 153.666666667 337.333333333 131.666666667 304.333333333 121 265 c 1
 145.666666667 277.666666667 174.666666667 284 208 284 c 0
 244.666666667 284 276 275.833333333 302 259.5 c 128
 328 243.166666667 341 219.666666667 341 189 c 0
 341 179.666666667 340.333333333 172.333333333 339 167 c 0
 328.333333333 115 311.666666667 76 289 50 c 0
 260.333333333 16.6666666667 219 0 165 0 c 0
 119.666666667 0 88.1666666667 8.16666666667 70.5 24.5 c 128
 52.8333333333 40.8333333333 44 66.3333333333 44 101 c 0
 44 113.666666667 45 127.333333333 47 142 c 128
 49 156.666666667 50.6666666667 168.666666667 52 178 c 0
 64 260.666666667 93 325.666666667 139 373 c 0
 189 424.333333333 255.666666667 450 339 450 c 0
 354.333333333 450 362 444.333333333 362 433 c 0
 362 417.666666667 350.666666667 410 328 410 c 0
225 146 m 0
 227 157.333333333 228 167 228 175 c 0
 228 194.333333333 223.166666667 208.333333333 213.5 217 c 128
 203.833333333 225.666666667 190 230 172 230 c 0
 129.333333333 230 104 203.666666667 96 151 c 0
 94.6666666667 143 93.6666666667 135.666666667 93 129 c 128
 92.3333333333 122.333333333 92 115 92 107 c 0
 92 62.3333333333 105 40 131 40 c 0
 159.666666667 40 180.333333333 47.6666666667 193 63 c 128
 205.666666667 78.3333333333 216.333333333 106 225 146 c 0
EndSplineSet
EndChar

StartChar: seven.taml
Encoding: 26 -1 26
Width: 455
Flags: HW
LayerCount: 2
Fore
SplineSet
114 405 m 0
 100.666666667 410.333333333 94 416.333333333 94 423 c 0
 94 424.333333333 95.3333333333 427.666666667 98 433 c 0
 104 442.333333333 111 447 119 447 c 0
 123.666666667 447 130.166666667 445.166666667 138.5 441.5 c 128
 146.833333333 437.833333333 152 435.666666667 154 435 c 0
 162 433.666666667 172.333333333 432.333333333 185 431 c 128
 197.666666667 429.666666667 211 429 225 429 c 0
 244.333333333 429 263.5 431.166666667 282.5 435.5 c 128
 301.5 439.833333333 318 442.666666667 332 444 c 128
 346 445.333333333 364 447 386 449 c 0
 400 449 411 446.833333333 419 442.5 c 128
 427 438.166666667 431 434.333333333 431 431 c 0
 431 428.333333333 428.666666667 424.666666667 424 420 c 0
 412.666666667 407.333333333 402.666666667 394 394 380 c 128
 385.333333333 366 378 350 372 332 c 2
 289 98 l 2
 277.666666667 66 260.333333333 41.6666666667 237 25 c 0
 216.333333333 10.3333333333 194.666666667 3 172 3 c 0
 166 3 160.166666667 3.33333333333 154.5 4 c 128
 148.833333333 4.66666666667 146 7.66666666667 146 13 c 0
 146 17 148.666666667 21.3333333333 154 26 c 0
 176.666666667 51.3333333333 194 80.3333333333 206 113 c 2
 289 347 l 2
 291.666666667 356.333333333 295.666666667 366.666666667 301 378 c 128
 306.333333333 389.333333333 311.333333333 398 316 404 c 1
 295.333333333 400 275.5 396.5 256.5 393.5 c 128
 237.5 390.5 217 389 195 389 c 0
 185 389 171.166666667 390.833333333 153.5 394.5 c 128
 135.833333333 398.166666667 122.666666667 401.666666667 114 405 c 0
EndSplineSet
EndChar

StartChar: eight.taml
Encoding: 27 -1 27
Width: 399
Flags: HW
LayerCount: 2
Fore
SplineSet
205 121 m 0
 206.333333333 126.333333333 207.333333333 133.833333333 208 143.5 c 128
 208.666666667 153.166666667 209 158.333333333 209 159 c 0
 209 178.333333333 204.666666667 193.333333333 196 204 c 128
 187.333333333 214.666666667 173.333333333 220 154 220 c 0
 132 220 113.333333333 210.5 98 191.5 c 128
 82.6666666667 172.5 72 149 66 121 c 0
 64 111.666666667 63 103.333333333 63 96 c 0
 63 58.6666666667 81.3333333333 40 118 40 c 0
 142.666666667 40 162 47.3333333333 176 62 c 128
 190 76.6666666667 199.666666667 96.3333333333 205 121 c 0
159 245 m 0
 179.666666667 248.333333333 197.166666667 257.5 211.5 272.5 c 128
 225.833333333 287.5 235.333333333 306 240 328 c 0
 241.333333333 333.333333333 242.333333333 339.333333333 243 346 c 128
 243.666666667 352.666666667 244 358.666666667 244 364 c 0
 244 379.333333333 240.166666667 390.833333333 232.5 398.5 c 128
 224.833333333 406.166666667 211 410 191 410 c 0
 170.333333333 410 153.833333333 402.666666667 141.5 388 c 128
 129.166666667 373.333333333 120.333333333 353.333333333 115 328 c 0
 113 318.666666667 112 310.333333333 112 303 c 0
 112 286.333333333 116.166666667 272.5 124.5 261.5 c 128
 132.833333333 250.5 144.333333333 245 159 245 c 0
233 234 m 1
 256.333333333 228 275 218.333333333 289 205 c 0
 306.333333333 189 315 169 315 145 c 0
 315 138.333333333 314 131 312 123 c 0
 302.666666667 80.3333333333 281 48 247 26 c 0
 217.666666667 7.33333333333 183 -2 143 -2 c 0
 131 -2 119 -1 107 1 c 0
 51 9 23 39.6666666667 23 93 c 0
 23 101.666666667 24 111.666666667 26 123 c 0
 31.3333333333 149 43 171.666666667 61 191 c 0
 76.3333333333 207.666666667 95 221 117 231 c 1
 104.333333333 239 93.8333333333 250 85.5 264 c 128
 77.1666666667 278 73 293.666666667 73 311 c 0
 73 315.666666667 73.6666666667 322 75 330 c 0
 81.6666666667 362 94.6666666667 388 114 408 c 0
 136 430.666666667 164.666666667 444.666666667 200 450 c 0
 215.333333333 452 228.666666667 453 240 453 c 0
 276.666666667 453 304.666666667 444 324 426 c 0
 341.333333333 410 350 388 350 360 c 0
 350 350 349 340 347 330 c 0
 342.333333333 306 328.166666667 284.666666667 304.5 266 c 128
 280.833333333 247.333333333 257 236.666666667 233 234 c 1
EndSplineSet
EndChar

StartChar: nine.taml
Encoding: 28 -1 28
Width: 435
Flags: HW
LayerCount: 2
Fore
SplineSet
375 282 m 0
 361.666666667 196 331.666666667 129 285 81 c 0
 231 25.6666666667 156.666666667 -2 62 -2 c 0
 46 -2 38 3.66666666667 38 15 c 0
 38 30.3333333333 49.3333333333 38 72 38 c 0
 136 38 189.666666667 55.3333333333 233 90 c 0
 268.333333333 118.666666667 291.666666667 153.666666667 303 195 c 1
 285.666666667 179 266.833333333 167.333333333 246.5 160 c 128
 226.166666667 152.666666667 206 149 186 149 c 0
 151.333333333 149 121.5 159.5 96.5 180.5 c 128
 71.5 201.5 59 227.333333333 59 258 c 0
 59 268 59.6666666667 275.666666667 61 281 c 0
 72.3333333333 333.666666667 89 372.666666667 111 398 c 0
 139.666666667 431.333333333 181 448 235 448 c 0
 287 448 324 438.666666667 346 420 c 128
 368 401.333333333 379 372 379 332 c 0
 379 317 379 317 379 302 c 0
 377 292.666666667 375.666666667 286 375 282 c 0
331 309 m 0
 332.333333333 313 333 317.333333333 333 322 c 128
 333 329 333 329 333 332 c 0
 333 354.666666667 326.666666667 373 314 387 c 128
 301.333333333 401 286.666666667 408 270 408 c 0
 241.333333333 408 219.5 399.166666667 204.5 381.5 c 128
 189.5 363.833333333 178 336 170 298 c 0
 168 288 167 279 167 271 c 0
 167 249.666666667 172.833333333 232.833333333 184.5 220.5 c 128
 196.166666667 208.166666667 211 202 229 202 c 0
 257 202 280 213 298 235 c 0
 314 254.333333333 325 279 331 309 c 0
EndSplineSet
EndChar

StartChar: colon.taml
Encoding: 29 -1 29
Width: 235
Flags: HW
LayerCount: 2
Fore
SplineSet
231 332 m 0
 227 314.666666667 217.333333333 300 202 288 c 128
 186.666666667 276 170.333333333 270 153 270 c 0
 138.333333333 270 126.333333333 274.333333333 117 283 c 128
 107.666666667 291.666666667 103 303.666666667 103 319 c 0
 103 321 104.166666667 328 106.5 340 c 128
 108.833333333 352 117.333333333 364 132 376 c 128
 146.666666667 388 162.666666667 394 180 394 c 0
 195.333333333 394 207.833333333 389.166666667 217.5 379.5 c 128
 227.166666667 369.833333333 232 357.666666667 232 343 c 0
 232 338.333333333 231.666666667 334.666666667 231 332 c 0
171 52 m 0
 167.666666667 34.6666666667 158.333333333 20 143 8 c 128
 127.666666667 -4 111.333333333 -10 94 -10 c 0
 79.3333333333 -10 67.3333333333 -5.33333333333 58 4 c 128
 48.6666666667 13.3333333333 44 25.3333333333 44 40 c 0
 44 45.3333333333 44.3333333333 49.3333333333 45 52 c 0
 48.3333333333 69.3333333333 57.3333333333 84 72 96 c 128
 86.6666666667 108 102.666666667 114 120 114 c 0
 135.333333333 114 147.833333333 109.166666667 157.5 99.5 c 128
 167.166666667 89.8333333333 172 77.6666666667 172 63 c 0
 172 58.3333333333 171.666666667 54.6666666667 171 52 c 0
EndSplineSet
EndChar

StartChar: semicolon.taml
Encoding: 30 -1 30
Width: 235
Flags: HW
LayerCount: 2
Fore
SplineSet
225 332 m 0
 221 314.666666667 211.333333333 300 196 288 c 128
 180.666666667 276 164.333333333 270 147 270 c 0
 132.333333333 270 120.333333333 274.333333333 111 283 c 128
 101.666666667 291.666666667 97 303.666666667 97 319 c 0
 97 321 98.1666666667 328 100.5 340 c 128
 102.833333333 352 111.333333333 364 126 376 c 128
 140.666666667 388 156.666666667 394 174 394 c 0
 189.333333333 394 201.833333333 389.166666667 211.5 379.5 c 128
 221.166666667 369.833333333 226 357.666666667 226 343 c 0
 226 338.333333333 225.666666667 334.666666667 225 332 c 0
161 34 m 0
 153 -4 132.666666667 -37 100 -65 c 0
 57.3333333333 -101.666666667 23 -120 -3 -120 c 1
 1 -103 l 1
 12.3333333333 -103 32.6666666667 -91 62 -67 c 0
 96.6666666667 -39 116.666666667 -12 122 14 c 0
 123.333333333 22 120.333333333 26 113 26 c 0
 108.333333333 26 100.333333333 22.8333333333 89 16.5 c 128
 77.6666666667 10.1666666667 69.3333333333 7 64 7 c 0
 54.6666666667 7 46.3333333333 12 39 22 c 128
 31.6666666667 32 28 43.6666666667 28 57 c 0
 28 61.6666666667 28.3333333333 65 29 67 c 0
 32.3333333333 82.3333333333 41.3333333333 96 56 108 c 128
 70.6666666667 120 85.3333333333 126 100 126 c 0
 120 126 135.5 119 146.5 105 c 128
 157.5 91 163 74 163 54 c 0
 163 50 162.333333333 43.3333333333 161 34 c 0
EndSplineSet
EndChar

StartChar: less.taml
Encoding: 31 -1 31
Width: 527
Flags: HW
LayerCount: 2
Fore
SplineSet
437 48 m 1
 426 -6 l 1
 61 178 l 1
 71 227 l 1
 514 410 l 1
 503 356 l 1
 132 202 l 1
 437 48 l 1
EndSplineSet
EndChar

StartChar: equal.taml
Encoding: 32 -1 32
Width: 564
Flags: HW
LayerCount: 2
Fore
SplineSet
560 359 m 1
 549 307 l 1
 145 307 l 1
 156 359 l 1
 560 359 l 1
526 199 m 1
 515 147 l 1
 111 147 l 1
 122 199 l 1
 526 199 l 1
EndSplineSet
EndChar

StartChar: greater.taml
Encoding: 33 -1 33
Width: 527
Flags: HW
LayerCount: 2
Fore
SplineSet
33 48 m 1
 404 202 l 1
 99 356 l 1
 110 410 l 1
 475 227 l 1
 465 178 l 1
 22 -6 l 1
 33 48 l 1
EndSplineSet
EndChar

StartChar: question.taml
Encoding: 34 -1 34
Width: 398
Flags: HW
LayerCount: 2
Fore
SplineSet
182 42 m 1
 168 42 l 1
 172.666666667 63.3333333333 181 86.6666666667 193 112 c 0
 195 116.666666667 202.666666667 131 216 155 c 2
 250 207 l 2
 261.333333333 225.666666667 272.333333333 246.166666667 283 268.5 c 128
 293.666666667 290.833333333 300.333333333 308.166666667 303 320.5 c 128
 305.666666667 332.833333333 307 343.666666667 307 353 c 0
 307 375 302 392.333333333 292 405 c 0
 280 419.666666667 262 427 238 427 c 0
 220.666666667 427 202.833333333 422.166666667 184.5 412.5 c 128
 166.166666667 402.833333333 155.666666667 391.333333333 153 378 c 0
 151.666666667 372 153.333333333 365.333333333 158 358 c 0
 168.666666667 341.333333333 173 328 171 318 c 0
 169 310 165 302.666666667 159 296 c 128
 153 289.333333333 144.333333333 286 133 286 c 256
 121.666666667 286 113.5 288.833333333 108.5 294.5 c 128
 103.5 300.166666667 101 308.333333333 101 319 c 0
 101 322.333333333 101.666666667 328 103 336 c 0
 111 373.333333333 132.333333333 402.666666667 167 424 c 0
 195.666666667 442 226.333333333 451 259 451 c 0
 281.666666667 451 303 446.5 323 437.5 c 128
 343 428.5 357 417.666666667 365 405 c 0
 375.666666667 387.666666667 381 370.666666667 381 354 c 0
 381 345.333333333 379.166666667 332.333333333 375.5 315 c 128
 371.833333333 297.666666667 360.333333333 276.333333333 341 251 c 0
 327 232.333333333 309.666666667 213 289 193 c 0
 261.666666667 167.666666667 240.666666667 145 226 125 c 0
 209.333333333 102.333333333 194.666666667 74.6666666667 182 42 c 1
148 -95 m 0
 138.666666667 -95 130.5 -92.6666666667 123.5 -88 c 128
 116.5 -83.3333333333 113 -75.3333333333 113 -64 c 0
 113 -60 113.833333333 -54.5 115.5 -47.5 c 128
 117.166666667 -40.5 123.166666667 -32.6666666667 133.5 -24 c 128
 143.833333333 -15.3333333333 154.666666667 -11 166 -11 c 256
 177.333333333 -11 186.333333333 -15.3333333333 193 -24 c 128
 199.666666667 -32.6666666667 202 -42.6666666667 200 -54 c 0
 196.666666667 -67.3333333333 189.833333333 -77.5 179.5 -84.5 c 128
 169.166666667 -91.5 158.666666667 -95 148 -95 c 0
EndSplineSet
EndChar

StartChar: u0952
Encoding: 38 2386 38
Width: 10
Flags: HW
LayerCount: 2
Fore
SplineSet
-176 -359 m 1
 -628 -359 l 1
 -652 -302 l 1
 -200 -302 l 1
 -176 -359 l 1
2 0 m 1
 0 2 l 1
 2 0 l 1
2 0 m 1
 0 2 l 1
 2 0 l 1
EndSplineSet
EndChar

StartChar: u0B82
Encoding: 39 2946 39
Width: 680
Flags: HW
LayerCount: 2
Fore
SplineSet
479 582 m 0
 479.666992188 584 480 586.166992188 480 588.5 c 128
 480 592 480 592 480 593 c 0
 480 606.333007812 475.666992188 617.333007812 467 626 c 128
 458.333007812 634.666992188 447.333007812 639 434 639 c 0
 418.666992188 639 404.166992188 633.333007812 390.5 622 c 128
 376.833007812 610.666992188 368.333007812 597.333007812 365 582 c 0
 364.333007812 579.333007812 364 575.333007812 364 570 c 0
 364 557.333007812 368.333007812 546.666992188 377 538 c 128
 385.666992188 529.333007812 396.666992188 525 410 525 c 0
 424.666992188 525 439 530.666992188 453 542 c 128
 467 553.333007812 475.666992188 566.666992188 479 582 c 0
442 676 m 0
 464.666992188 676 483 669 497 655 c 128
 511 641 518 623 518 601 c 0
 518 596.333007812 517.333007812 590 516 582 c 0
 510.666992188 556 496.833007812 533.833007812 474.5 515.5 c 128
 452.166992188 497.166992188 428 488 402 488 c 0
 379.333007812 488 361 495 347 509 c 128
 333 523 326 541 326 563 c 0
 326 566.333007812 326.666992188 572.666992188 328 582 c 0
 333.333007812 608 347.166992188 630.166992188 369.5 648.5 c 128
 391.833007812 666.833007812 416 676 442 676 c 0
EndSplineSet
EndChar

StartChar: u0B83
Encoding: 40 2947 40
Width: 611
Flags: HW
LayerCount: 2
Fore
SplineSet
444 370 m 0
 438.666666667 347.333333333 426.833333333 328.5 408.5 313.5 c 128
 390.166666667 298.5 369.666666667 291 347 291 c 0
 327.666666667 291 312 296.666666667 300 308 c 128
 288 319.333333333 282 334.333333333 282 353 c 0
 282 356.333333333 282.666666667 362 284 370 c 0
 288.666666667 392 300.5 410.833333333 319.5 426.5 c 128
 338.5 442.166666667 359 450 381 450 c 0
 400.333333333 450 416 444 428 432 c 128
 440 420 446 404.666666667 446 386 c 0
 446 382 445.333333333 376.666666667 444 370 c 0
508 79 m 0
 502.666666667 56.3333333333 490.833333333 37.5 472.5 22.5 c 128
 454.166666667 7.5 433.666666667 0 411 0 c 0
 391.666666667 0 376 5.66666666667 364 17 c 128
 352 28.3333333333 346 43.3333333333 346 62 c 0
 346 65.3333333333 346.666666667 71 348 79 c 0
 352.666666667 101 364.5 119.833333333 383.5 135.5 c 128
 402.5 151.166666667 423 159 445 159 c 0
 464.333333333 159 480 153 492 141 c 128
 504 129 510 113.666666667 510 95 c 0
 510 91 509.333333333 85.6666666667 508 79 c 0
238 79 m 0
 232.666666667 56.3333333333 220.833333333 37.5 202.5 22.5 c 128
 184.166666667 7.5 163.666666667 0 141 0 c 0
 121.666666667 0 106 5.66666666667 94 17 c 128
 82 28.3333333333 76 43.3333333333 76 62 c 0
 76 65.3333333333 76.6666666667 71 78 79 c 0
 82.6666666667 101 94.5 119.833333333 113.5 135.5 c 128
 132.5 151.166666667 153 159 175 159 c 0
 194.333333333 159 210 153 222 141 c 128
 234 129 240 113.666666667 240 95 c 0
 240 91 239.333333333 85.6666666667 238 79 c 0
EndSplineSet
EndChar

StartChar: u0B85
Encoding: 41 2949 41
Width: 908
Flags: HW
AnchorPoint: "V" 450.833 455 basechar 0
AnchorPoint: "N" 450.833 -28.2022 basechar 0
LayerCount: 2
Fore
SplineSet
881 439 m 0
 869.666666667 423 859.666666667 405.666666667 851 387 c 128
 842.333333333 368.333333333 835.333333333 347.333333333 830 324 c 2
 770 43 l 2
 760.666666667 -2.33333333333 740.666666667 -37 710 -61 c 0
 682.666666667 -82.3333333333 653 -93 621 -93 c 0
 609 -93 603 -89.6666666667 603 -83 c 0
 603 -79 605.666666667 -73.6666666667 611 -67 c 0
 622.333333333 -51.6666666667 632.5 -34.5 641.5 -15.5 c 128
 650.5 3.5 657.333333333 24 662 46 c 2
 682 142 l 1
 658.666666667 122 622.333333333 112 573 112 c 1
 541.666666667 65.3333333333 496.333333333 26.6666666667 437 -4 c 0
 372.333333333 -37.3333333333 303 -54 229 -54 c 0
 163 -54 112 -40 76 -12 c 0
 30.6666666667 23.3333333333 12.6666666667 61.6666666667 22 103 c 0
 25.3333333333 119.666666667 33.1666666667 132 45.5 140 c 128
 57.8333333333 148 72.6666666667 152 90 152 c 2
 477 152 l 1
 484.333333333 164 492.333333333 183.333333333 501 210 c 0
 507 229.333333333 512.166666667 247.833333333 516.5 265.5 c 128
 520.833333333 283.166666667 523 301 523 319 c 0
 523 350.333333333 516 373.333333333 502 388 c 128
 488 402.666666667 469.333333333 410 446 410 c 0
 428.666666667 410 412.666666667 406.333333333 398 399 c 1
 413.333333333 395.666666667 425.666666667 389.666666667 435 381 c 0
 447.666666667 369 454 352.666666667 454 332 c 0
 454 324 452.666666667 313.833333333 450 301.5 c 128
 447.333333333 289.166666667 442 276.333333333 434 263 c 0
 423.333333333 246.333333333 410.666666667 233.333333333 396 224 c 0
 376.666666667 212 352 206 322 206 c 0
 302 206 286.5 212.166666667 275.5 224.5 c 128
 264.5 236.833333333 259 252.666666667 259 272 c 0
 259 282 259.666666667 289.666666667 261 295 c 0
 271.666666667 346.333333333 297.333333333 385.666666667 338 413 c 0
 374.666666667 437.666666667 419.666666667 450 473 450 c 0
 524.333333333 450 563.166666667 437.5 589.5 412.5 c 128
 615.833333333 387.5 629 351.666666667 629 305 c 0
 629 285.666666667 626.833333333 265.833333333 622.5 245.5 c 128
 618.166666667 225.166666667 614 208.333333333 610 195 c 0
 604 176.333333333 598.666666667 162 594 152 c 1
 635.333333333 152 667.666666667 162 691 182 c 1
 722 327 l 2
 731.333333333 372.333333333 751.333333333 407.333333333 782 432 c 0
 809.333333333 454 839 465 871 465 c 0
 883 465 889 461.666666667 889 455 c 0
 889 451 886.333333333 445.666666667 881 439 c 0
379 306 m 0
 380.333333333 314 381 321 381 327 c 0
 381 338.333333333 378.833333333 348.333333333 374.5 357 c 128
 370.166666667 365.666666667 363.333333333 370 354 370 c 0
 342 367.333333333 330.666666667 358.5 320 343.5 c 128
 309.333333333 328.5 302.333333333 313 299 297 c 0
 298.333333333 294.333333333 298 291.666666667 298 289 c 128
 298 285 298 285 298 283 c 0
 298 258.333333333 307.666666667 246 327 246 c 0
 339.666666667 246 350.666666667 251.5 360 262.5 c 128
 369.333333333 273.5 375.666666667 288 379 306 c 0
456 112 m 1
 123 112 l 2
 115 112 107.5 108.833333333 100.5 102.5 c 128
 93.5 96.1666666667 89.3333333333 90.1666666667 88 84.5 c 128
 86.6666666667 78.8333333333 86 73.3333333333 86 68 c 0
 86 46.6666666667 96.3333333333 28.6666666667 117 14 c 0
 143 -4.66666666667 180.666666667 -14 230 -14 c 0
 276.666666667 -14 321.666666667 0 365 28 c 0
 398.333333333 49.3333333333 428.666666667 77.3333333333 456 112 c 1
EndSplineSet
EndChar

StartChar: u0B86
Encoding: 42 2950 42
Width: 1051
Flags: HW
AnchorPoint: "V" 480.333 455 basechar 0
AnchorPoint: "N" 480.333 -188.945 basechar 0
LayerCount: 2
Fore
SplineSet
944 63 m 0
 927.333333333 -18.3333333333 883.333333333 -82 812 -128 c 0
 748.666666667 -169.333333333 676 -190 594 -190 c 0
 530 -190 479.333333333 -184 442 -172 c 0
 396.666666667 -157.333333333 374 -135.333333333 374 -106 c 0
 374 -100.666666667 374.333333333 -96.6666666667 375 -94 c 0
 379 -76 389.666666667 -62.1666666667 407 -52.5 c 128
 424.333333333 -42.8333333333 444.333333333 -38 467 -38 c 0
 481.666666667 -38 495.333333333 -39 508 -41 c 128
 520.666666667 -43 532.666666667 -46.6666666667 544 -52 c 0
 549.333333333 -56.6666666667 548.833333333 -61.8333333333 542.5 -67.5 c 128
 536.166666667 -73.1666666667 529.333333333 -74.3333333333 522 -71 c 0
 516.666666667 -69 506.5 -67 491.5 -65 c 128
 476.5 -63 466.333333333 -62 461 -62 c 0
 446.333333333 -62 433 -64.5 421 -69.5 c 128
 409 -74.5 402 -81.3333333333 400 -90 c 0
 395.333333333 -111.333333333 410 -127.333333333 444 -138 c 0
 471.333333333 -146.666666667 506 -151 548 -151 c 0
 635.333333333 -151 707 -130.666666667 763 -90 c 0
 813 -53.3333333333 844 -7 856 49 c 0
 858 57 859 64.6666666667 859 72 c 0
 859 87.3333333333 855.333333333 100 848 110 c 128
 840.666666667 120 831.333333333 125 820 125 c 0
 809.333333333 125 797.333333333 120 784 110 c 1
 770 43 l 2
 760 -1.66666666667 739.666666667 -36.3333333333 709 -61 c 0
 682.333333333 -82.3333333333 653 -93 621 -93 c 0
 609 -93 603 -89.6666666667 603 -83 c 0
 603 -79 605.666666667 -73.6666666667 611 -67 c 0
 622.333333333 -51.6666666667 632.5 -34.5 641.5 -15.5 c 128
 650.5 3.5 657.333333333 24 662 46 c 2
 682 142 l 1
 658.666666667 122 622.333333333 112 573 112 c 1
 541.666666667 65.3333333333 496.333333333 26.6666666667 437 -4 c 0
 372.333333333 -37.3333333333 303 -54 229 -54 c 0
 163 -54 112 -40 76 -12 c 0
 30.6666666667 23.3333333333 12.6666666667 61.6666666667 22 103 c 0
 25.3333333333 119.666666667 33.1666666667 132 45.5 140 c 128
 57.8333333333 148 72.6666666667 152 90 152 c 2
 477 152 l 1
 484.333333333 164 492.333333333 183.333333333 501 210 c 0
 507 229.333333333 512.166666667 247.833333333 516.5 265.5 c 128
 520.833333333 283.166666667 523 301 523 319 c 0
 523 350.333333333 516 373.333333333 502 388 c 128
 488 402.666666667 469.333333333 410 446 410 c 0
 428.666666667 410 412.666666667 406.333333333 398 399 c 1
 413.333333333 395.666666667 425.666666667 389.666666667 435 381 c 0
 447.666666667 369 454 352.666666667 454 332 c 0
 454 324 452.666666667 313.833333333 450 301.5 c 128
 447.333333333 289.166666667 442 276.333333333 434 263 c 0
 423.333333333 246.333333333 410.666666667 233.333333333 396 224 c 0
 376.666666667 212 352 206 322 206 c 0
 302 206 286.5 212.166666667 275.5 224.5 c 128
 264.5 236.833333333 259 252.666666667 259 272 c 0
 259 282 259.666666667 289.666666667 261 295 c 0
 271.666666667 346.333333333 297.333333333 385.666666667 338 413 c 0
 374.666666667 437.666666667 419.666666667 450 473 450 c 0
 524.333333333 450 563.166666667 437.5 589.5 412.5 c 128
 615.833333333 387.5 629 351.666666667 629 305 c 0
 629 285.666666667 626.833333333 265.833333333 622.5 245.5 c 128
 618.166666667 225.166666667 614 208.333333333 610 195 c 0
 604 176.333333333 598.666666667 162 594 152 c 1
 635.333333333 152 667.666666667 162 691 182 c 1
 722 327 l 2
 731.333333333 372.333333333 751.333333333 407.333333333 782 432 c 0
 809.333333333 454 839 465 871 465 c 0
 883 465 889 461.666666667 889 455 c 0
 889 451 886.333333333 445.666666667 881 439 c 0
 869.666666667 423 859.666666667 405.666666667 851 387 c 128
 842.333333333 368.333333333 835.333333333 347.333333333 830 324 c 2
 793 150 l 1
 815 168 840 177 868 177 c 0
 891.333333333 177 910.5 170.333333333 925.5 157 c 128
 940.5 143.666666667 948 123.333333333 948 96 c 0
 948 88 948 88 948 81 c 0
 946 73 944.666666667 67 944 63 c 0
379 306 m 0
 380.333333333 314 381 321 381 327 c 0
 381 338.333333333 378.833333333 348.333333333 374.5 357 c 128
 370.166666667 365.666666667 363.333333333 370 354 370 c 0
 342 367.333333333 330.666666667 358.5 320 343.5 c 128
 309.333333333 328.5 302.333333333 313 299 297 c 0
 298.333333333 294.333333333 298 291.666666667 298 289 c 128
 298 285 298 285 298 283 c 0
 298 258.333333333 307.666666667 246 327 246 c 0
 339.666666667 246 350.666666667 251.5 360 262.5 c 128
 369.333333333 273.5 375.666666667 288 379 306 c 0
456 112 m 1
 123 112 l 2
 115 112 107.5 108.833333333 100.5 102.5 c 128
 93.5 96.1666666667 89.3333333333 90.1666666667 88 84.5 c 128
 86.6666666667 78.8333333333 86 73.3333333333 86 68 c 0
 86 46.6666666667 96.3333333333 28.6666666667 117 14 c 0
 143 -4.66666666667 180.666666667 -14 230 -14 c 0
 276.666666667 -14 321.666666667 0 365 28 c 0
 398.333333333 49.3333333333 428.666666667 77.3333333333 456 112 c 1
EndSplineSet
EndChar

StartChar: u0B87
Encoding: 43 2951 43
Width: 756
Flags: HW
AnchorPoint: "V" 355.5 613.412 basechar 0
AnchorPoint: "N" 355.5 -160 basechar 0
LayerCount: 2
Fore
SplineSet
721 376 m 0
 711.666666667 330.666666667 694.666666667 282.666666667 670 232 c 0
 669.333333333 228.666666667 669 224.333333333 669 219 c 0
 669 215.666666667 670.166666667 210 672.5 202 c 128
 674.833333333 194 675.333333333 186.333333333 674 179 c 0
 672.666666667 173 669 167.333333333 663 162 c 128
 657 156.666666667 650.666666667 154 644 154 c 0
 630 154 623 163 623 181 c 0
 623 187 624.333333333 193.166666667 627 199.5 c 128
 629.666666667 205.833333333 633.833333333 218 639.5 236 c 128
 645.166666667 254 648.666666667 267 650 275 c 0
 654.666666667 294.333333333 657 315 657 337 c 0
 657 392.333333333 640.666666667 437 608 471 c 0
 573.333333333 507 524.666666667 525 462 525 c 0
 370 525 291.333333333 494 226 432 c 0
 168.666666667 377.333333333 131 308.333333333 113 225 c 0
 108.333333333 204.333333333 106 183.333333333 106 162 c 0
 106 133.333333333 110 107 118 83 c 1
 156 101 199 113.833333333 247 121.5 c 128
 295 129.166666667 347.333333333 133 404 133 c 1
 424 174.333333333 437.666666667 213.666666667 445 251 c 0
 449 269 451 286 451 302 c 0
 451 328.666666667 445.5 350 434.5 366 c 128
 423.5 382 406.333333333 390 383 390 c 0
 365 390 349 386.333333333 335 379 c 1
 349.666666667 376.333333333 361.333333333 370.333333333 370 361 c 0
 381.333333333 349 387 332.666666667 387 312 c 0
 387 304 385.666666667 294 383 282 c 128
 380.333333333 270 374.333333333 257 365 243 c 0
 353.666666667 226.333333333 340.333333333 213.333333333 325 204 c 0
 307 192 282.666666667 186 252 186 c 0
 232 186 216.833333333 192.166666667 206.5 204.5 c 128
 196.166666667 216.833333333 191 232.666666667 191 252 c 0
 191 262 191.666666667 269.666666667 193 275 c 0
 203.666666667 324.333333333 228.666666667 363.333333333 268 392 c 0
 304 418 345 431 391 431 c 0
 445 431 485.333333333 421.333333333 512 402 c 0
 542.666666667 380 558 345 558 297 c 0
 558 279.666666667 555.333333333 257.666666667 550 231 c 0
 540.666666667 189.666666667 524.666666667 149 502 109 c 1
 524.666666667 98.3333333333 542 85 554 69 c 128
 566 53 572 33 572 9 c 0
 572 0.333333333333 571 -9 569 -19 c 0
 560.333333333 -61.6666666667 537 -95.8333333333 499 -121.5 c 128
 461 -147.166666667 410 -160 346 -160 c 0
 306 -160 267.666666667 -150 231 -130 c 1
 207 -139.333333333 182.166666667 -146.666666667 156.5 -152 c 128
 130.833333333 -157.333333333 105.666666667 -160 81 -160 c 0
 48.3333333333 -160 24 -153.333333333 8 -140 c 128
 -8 -126.666666667 -16 -108.333333333 -16 -85 c 0
 -16 -77 -15 -69 -13 -61 c 0
 -8.33333333333 -37.6666666667 1.83333333333 -15.6666666667 17.5 5 c 128
 33.1666666667 25.6666666667 53 44 77 60 c 1
 72.3333333333 76 68.6666666667 95.1666666667 66 117.5 c 128
 63.3333333333 139.833333333 62 159 62 175 c 0
 62 205.666666667 64.3333333333 232.666666667 69 256 c 0
 79.6666666667 305.333333333 96.3333333333 352.666666667 119 398 c 0
 153 466 196.333333333 519.333333333 249 558 c 0
 318.333333333 609.333333333 400.666666667 635 496 635 c 0
 563.333333333 635 618.666666667 617.166666667 662 581.5 c 128
 705.333333333 545.833333333 727 496.666666667 727 434 c 0
 727 415.333333333 725 396 721 376 c 0
312 286 m 0
 314 294 315 302.333333333 315 311 c 0
 315 322.333333333 313.166666667 331.666666667 309.5 339 c 128
 305.833333333 346.333333333 299.333333333 350 290 350 c 0
 278 347.333333333 266.166666667 338.166666667 254.5 322.5 c 128
 242.833333333 306.833333333 235.833333333 293.333333333 233.5 282 c 128
 231.166666667 270.666666667 230 263 230 259 c 0
 230 237 239 226 257 226 c 0
 269.666666667 226 281 231.5 291 242.5 c 128
 301 253.5 308 268 312 286 c 0
496 -33 m 0
 497.333333333 -25 498 -19.3333333333 498 -16 c 0
 498 10.6666666667 487.333333333 34 466 54 c 1
 440.666666667 20 412.833333333 -10.3333333333 382.5 -37 c 128
 352.166666667 -63.6666666667 318.666666667 -86.6666666667 282 -106 c 1
 293.333333333 -109.333333333 305.166666667 -112 317.5 -114 c 128
 329.833333333 -116 343.666666667 -117 359 -117 c 0
 398.333333333 -117 429.833333333 -109 453.5 -93 c 128
 477.166666667 -77 491.333333333 -57 496 -33 c 0
384 93 m 1
 372 96.3333333333 356 98 336 98 c 0
 304.666666667 98 271 93.1666666667 235 83.5 c 128
 199 73.8333333333 165.666666667 59.3333333333 135 40 c 1
 145 16.6666666667 160.333333333 -6.66666666667 181 -30 c 0
 197 -48 215 -64.3333333333 235 -79 c 1
 263.666666667 -59.6666666667 290.833333333 -34.8333333333 316.5 -4.5 c 128
 342.166666667 25.8333333333 364.666666667 58.3333333333 384 93 c 1
191 -105 m 1
 170.333333333 -89.6666666667 151.5 -71.1666666667 134.5 -49.5 c 128
 117.5 -27.8333333333 105 -7.33333333333 97 12 c 1
 73 -10 58 -34.3333333333 52 -61 c 0
 50.6666666667 -69 50 -74.6666666667 50 -78 c 0
 50 -110 65.6666666667 -126 97 -126 c 256
 128.333333333 -126 159.666666667 -119 191 -105 c 1
EndSplineSet
EndChar

StartChar: u0B88
Encoding: 44 2952 44
Width: 627
Flags: HW
AnchorPoint: "V" 278.833 455 basechar 0
AnchorPoint: "N" 278.833 -4 basechar 0
LayerCount: 2
Fore
SplineSet
553 216 m 0
 549.666666667 202.666666667 542.166666667 191.166666667 530.5 181.5 c 128
 518.833333333 171.833333333 506.333333333 167 493 167 c 0
 481.666666667 167 472.333333333 170.666666667 465 178 c 128
 457.666666667 185.333333333 454 194.666666667 454 206 c 0
 454 210.666666667 454.833333333 216.833333333 456.5 224.5 c 128
 458.166666667 232.166666667 464.833333333 240.833333333 476.5 250.5 c 128
 488.166666667 260.166666667 500.666666667 265 514 265 c 256
 527.333333333 265 537.833333333 260.166666667 545.5 250.5 c 128
 553.166666667 240.833333333 555.666666667 229.333333333 553 216 c 0
498 410 m 0
 476 401.333333333 458.166666667 386 444.5 364 c 128
 430.833333333 342 419.333333333 314.333333333 410 281 c 0
 406.666666667 269.666666667 399.666666667 242.166666667 389 198.5 c 128
 378.333333333 154.833333333 373 132.666666667 373 132 c 0
 363 86.6666666667 342.666666667 51.6666666667 312 27 c 0
 286 6.33333333333 256.666666667 -4 224 -4 c 0
 212 -4 206 -0.666666666667 206 6 c 0
 206 10 208.666666667 15.3333333333 214 22 c 0
 226 38 236.333333333 55.1666666667 245 73.5 c 128
 253.666666667 91.8333333333 260 111 264 131 c 128
 268 151 274.333333333 178 283 212 c 0
 288.333333333 234.666666667 294.333333333 258.333333333 301 283 c 0
 313.666666667 328.333333333 333.333333333 367.333333333 360 400 c 1
 349.333333333 402.666666667 336.666666667 405 322 407 c 128
 307.333333333 409 291 410 273 410 c 0
 235.666666667 410 206 400.333333333 184 381 c 128
 162 361.666666667 146.333333333 329.666666667 137 285 c 0
 121.666666667 214.333333333 108.333333333 162 97 128 c 0
 82.3333333333 82.6666666667 63.3333333333 44.6666666667 40 14 c 0
 31.3333333333 3.33333333333 22.3333333333 -2 13 -2 c 0
 5.66666666667 -2 2 1.66666666667 2 9 c 0
 2 14.3333333333 5 21 11 29 c 0
 36.3333333333 62.3333333333 57.3333333333 113.333333333 74 182 c 0
 80 205.333333333 89 246.333333333 101 305 c 0
 109.666666667 345 125 376.666666667 147 400 c 0
 179 433.333333333 224.666666667 450 284 450 c 0
 310 450 335.5 447.666666667 360.5 443 c 128
 385.5 438.333333333 411.666666667 433.666666667 439 429 c 0
 449.666666667 429 459.166666667 430 467.5 432 c 128
 475.833333333 434 486.333333333 438.666666667 499 446 c 0
 505 449.333333333 510.666666667 451 516 451 c 0
 523.333333333 451 527 447.666666667 527 441 c 0
 527 428.333333333 517.333333333 418 498 410 c 0
253 216 m 0
 249.666666667 202.666666667 242.166666667 191.166666667 230.5 181.5 c 128
 218.833333333 171.833333333 206.333333333 167 193 167 c 0
 181.666666667 167 172.333333333 170.666666667 165 178 c 128
 157.666666667 185.333333333 154 194.666666667 154 206 c 0
 154 210.666666667 154.833333333 216.833333333 156.5 224.5 c 128
 158.166666667 232.166666667 164.833333333 240.833333333 176.5 250.5 c 128
 188.166666667 260.166666667 200.666666667 265 214 265 c 256
 227.333333333 265 237.833333333 260.166666667 245.5 250.5 c 128
 253.166666667 240.833333333 255.666666667 229.333333333 253 216 c 0
EndSplineSet
EndChar

StartChar: u0B89
Encoding: 45 2953 45
Width: 965
Flags: HW
AnchorPoint: "V" 443 455 basechar 0
AnchorPoint: "N" 443 7.59485 basechar 0
LayerCount: 2
Fore
SplineSet
850 24 m 0
 832.666666667 16.6666666667 813.166666667 10.8333333333 791.5 6.5 c 128
 769.833333333 2.16666666667 746 0 720 0 c 0
 702.666666667 0 655.666666667 1.66666666667 579 5 c 128
 502.333333333 8.33333333333 442.666666667 10 400 10 c 0
 361.333333333 10 310.666666667 8.5 248 5.5 c 128
 185.333333333 2.5 121.333333333 -0.333333333333 56 -3 c 0
 43.3333333333 -3 33.3333333333 -0.666666666667 26 4 c 0
 15.3333333333 10.6666666667 10 21.6666666667 10 37 c 0
 10 39.6666666667 10.6666666667 45.6666666667 12 55 c 0
 18 83.6666666667 51.6666666667 101.333333333 113 108 c 0
 155 110 197.333333333 112 240 114 c 1
 289.333333333 121.333333333 328 142 356 176 c 0
 378 202.666666667 393.333333333 237 402 279 c 0
 404 290.333333333 405.333333333 297.833333333 406 301.5 c 128
 406.666666667 305.166666667 407 311.333333333 407 320 c 0
 407 380 377 410 317 410 c 0
 287 410 257.5 405 228.5 395 c 128
 199.5 385 177.666666667 370 163 350 c 1
 180.333333333 361.333333333 199 367 219 367 c 0
 237 367 252.166666667 361.166666667 264.5 349.5 c 128
 276.833333333 337.833333333 283 321.666666667 283 301 c 0
 283 297 282.333333333 290.333333333 281 281 c 0
 271.666666667 239.666666667 258.666666667 209.333333333 242 190 c 0
 220.666666667 166 190.333333333 154 151 154 c 0
 105.666666667 154 83 181 83 235 c 0
 83 249.666666667 85 266 89 284 c 0
 99 328.666666667 123.666666667 366.666666667 163 398 c 0
 207 432.666666667 260.333333333 450 323 450 c 0
 391 450 441.333333333 436 474 408 c 0
 501.333333333 384.666666667 515 352.666666667 515 312 c 0
 515 307.333333333 514.833333333 302.166666667 514.5 296.5 c 128
 514.166666667 290.833333333 513 283 511 273 c 0
 503 235 491.333333333 204 476 180 c 0
 458.666666667 152.666666667 434.333333333 130.666666667 403 114 c 0
 377.666666667 100 345.833333333 89.3333333333 307.5 82 c 128
 269.166666667 74.6666666667 224 71 172 71 c 0
 138.666666667 71 120.333333333 64.6666666667 117 52 c 0
 115.666666667 46.6666666667 117.666666667 42.6666666667 123 40 c 1
 135.666666667 40 177.333333333 41.6666666667 248 45 c 128
 318.666666667 48.3333333333 371.666666667 50 407 50 c 256
 442.333333333 50 488 48.8333333333 544 46.5 c 128
 600 44.1666666667 658 42 718 40 c 0
 740 40 759.833333333 41.8333333333 777.5 45.5 c 128
 795.166666667 49.1666666667 811.666666667 54.6666666667 827 62 c 0
 837 66.6666666667 846.333333333 69 855 69 c 0
 869 69 876 63.3333333333 876 52 c 0
 876 41.3333333333 867.333333333 32 850 24 c 0
194 266 m 0
 195.333333333 274 196 279.333333333 196 282 c 0
 196 301.333333333 186.666666667 311 168 311 c 0
 158.666666667 311 150.666666667 307 144 299 c 128
 137.333333333 291 132.5 280.166666667 129.5 266.5 c 128
 126.5 252.833333333 125 241 125 231 c 0
 125 209 132 198 146 198 c 0
 158.666666667 198 168.666666667 204.166666667 176 216.5 c 128
 183.333333333 228.833333333 189.333333333 245.333333333 194 266 c 0
EndSplineSet
EndChar

StartChar: u0B8A
Encoding: 46 2954 46
Width: 1270
Flags: HW
AnchorPoint: "V" 630.5 455 basechar 0
AnchorPoint: "N" 630.5 6.23144 basechar 0
LayerCount: 2
Fore
SplineSet
1239 418 m 0
 1221.66666667 411.333333333 1207.5 399.166666667 1196.5 381.5 c 128
 1185.5 363.833333333 1176 341.666666667 1168 315 c 0
 1165.33333333 306.333333333 1160.66666667 288.833333333 1154 262.5 c 128
 1147.33333333 236.166666667 1142.33333333 214 1139 196 c 0
 1131 160 1113 132 1085 112 c 0
 1061.66666667 95.3333333333 1036.33333333 87 1009 87 c 0
 994.333333333 87 987 91 987 99 c 0
 987 102.333333333 988.333333333 105.333333333 991 108 c 0
 1000.33333333 120.666666667 1008.5 134.5 1015.5 149.5 c 128
 1022.5 164.5 1028 180.666666667 1032 198 c 2
 1061 317 l 2
 1066.33333333 335.666666667 1072 351.333333333 1078 364 c 128
 1084 376.666666667 1092 389.333333333 1102 402 c 1
 1082 407.333333333 1056.66666667 410 1026 410 c 1
 1009.33333333 403.333333333 996.5 392.5 987.5 377.5 c 128
 978.5 362.5 970 341.666666667 962 315 c 0
 959.333333333 306.333333333 954.666666667 288.833333333 948 262.5 c 128
 941.333333333 236.166666667 936.333333333 214 933 196 c 0
 925 160 907 132 879 112 c 0
 855.666666667 95.3333333333 830.333333333 87 803 87 c 0
 788.333333333 87 781 91 781 99 c 0
 781 102.333333333 782.333333333 105.333333333 785 108 c 0
 803.666666667 133.333333333 817 163.333333333 825 198 c 2
 854 317 l 2
 859.333333333 334.333333333 866 350.666666667 874 366 c 1
 868 377.333333333 857.333333333 387 842 395 c 0
 823.333333333 405 803.666666667 410 783 410 c 0
 749.666666667 410 718.666666667 400.166666667 690 380.5 c 128
 661.333333333 360.833333333 638.333333333 334.666666667 621 302 c 1
 640.333333333 314 661.666666667 320 685 320 c 0
 704.333333333 320 720 314.666666667 732 304 c 128
 744 293.333333333 750 276.333333333 750 253 c 0
 750 245 749 235.333333333 747 224 c 0
 738.333333333 183.333333333 724.666666667 152 706 130 c 0
 683.333333333 103.333333333 652.666666667 90 614 90 c 0
 570 90 548 115.333333333 548 166 c 0
 548 184.666666667 550.333333333 204.666666667 555 226 c 0
 569 292.666666667 598 346.666666667 642 388 c 128
 686 429.333333333 737.666666667 450 797 450 c 0
 822.333333333 450 844 445.666666667 862 437 c 128
 880 428.333333333 893.333333333 418 902 406 c 1
 916.666666667 420 934.833333333 430.833333333 956.5 438.5 c 128
 978.166666667 446.166666667 1004 450 1034 450 c 0
 1054 450 1080 447.333333333 1112 442 c 128
 1144 436.666666667 1163.66666667 434 1171 434 c 0
 1181 434 1189 434.666666667 1195 436 c 128
 1201 437.333333333 1209 441 1219 447 c 0
 1224.33333333 449.666666667 1229.66666667 451 1235 451 c 0
 1247.66666667 451 1254 445.666666667 1254 435 c 0
 1254 427 1249 421.333333333 1239 418 c 0
1117 24 m 0
 1099.66666667 16.6666666667 1080.16666667 10.8333333333 1058.5 6.5 c 128
 1036.83333333 2.16666666667 1013 0 987 0 c 0
 957.666666667 0 915.666666667 0.666666666667 861 2 c 128
 806.333333333 3.33333333333 743.666666667 5 673 7 c 128
 602.333333333 9 557 10 537 10 c 0
 498.333333333 10 432.333333333 8.5 339 5.5 c 128
 245.666666667 2.5 150.333333333 -0.333333333333 53 -3 c 0
 40.3333333333 -3 30.3333333333 -0.666666666667 23 4 c 0
 12.3333333333 10.6666666667 7 21.6666666667 7 37 c 0
 7 39.6666666667 7.66666666667 45.6666666667 9 55 c 0
 15 83.6666666667 48.6666666667 101.333333333 110 108 c 0
 152 110 194.333333333 112 237 114 c 1
 286.333333333 121.333333333 325 142 353 176 c 0
 375 202.666666667 390.333333333 237 399 279 c 0
 401 290.333333333 402.333333333 297.833333333 403 301.5 c 128
 403.666666667 305.166666667 404 311.333333333 404 320 c 0
 404 380 374 410 314 410 c 0
 284 410 254.5 405 225.5 395 c 128
 196.5 385 174.666666667 370 160 350 c 1
 177.333333333 361.333333333 196 367 216 367 c 0
 234 367 249.166666667 361.166666667 261.5 349.5 c 128
 273.833333333 337.833333333 280 321.666666667 280 301 c 0
 280 297 279.333333333 290.333333333 278 281 c 0
 268.666666667 239.666666667 255.666666667 209.333333333 239 190 c 0
 217.666666667 166 187.333333333 154 148 154 c 0
 102.666666667 154 80 181 80 235 c 0
 80 249.666666667 82 266 86 284 c 0
 96 328.666666667 120.666666667 366.666666667 160 398 c 0
 204 432.666666667 257.333333333 450 320 450 c 0
 388 450 438.333333333 436 471 408 c 0
 498.333333333 384.666666667 512 352.666666667 512 312 c 0
 512 307.333333333 511.833333333 302.166666667 511.5 296.5 c 128
 511.166666667 290.833333333 510 283 508 273 c 0
 500 235 488.333333333 204 473 180 c 0
 455.666666667 152.666666667 431.333333333 130.666666667 400 114 c 0
 374.666666667 100 342.833333333 89.3333333333 304.5 82 c 128
 266.166666667 74.6666666667 221 71 169 71 c 0
 135.666666667 71 117.333333333 64.6666666667 114 52 c 0
 112.666666667 46.6666666667 114.666666667 42.6666666667 120 40 c 1
 144 40 218.5 41.6666666667 343.5 45 c 128
 468.5 48.3333333333 535.333333333 50 544 50 c 0
 580 50 640 48.8333333333 724 46.5 c 128
 808 44.1666666667 895 42 985 40 c 0
 1007 40 1026.83333333 41.8333333333 1044.5 45.5 c 128
 1062.16666667 49.1666666667 1078.66666667 54.6666666667 1094 62 c 0
 1104 66.6666666667 1113.33333333 69 1122 69 c 0
 1136 69 1143 63.3333333333 1143 52 c 0
 1143 41.3333333333 1134.33333333 32 1117 24 c 0
655 205 m 0
 657 213 658 220.666666667 658 228 c 0
 658 244.666666667 649.666666667 253 633 253 c 0
 619.666666667 253 609 246.333333333 601 233 c 0
 596.333333333 225 593 216.666666667 591 208 c 128
 589 199.333333333 587.666666667 191.833333333 587 185.5 c 128
 586.333333333 179.166666667 586 173.666666667 586 169 c 0
 586 147.666666667 592.666666667 137 606 137 c 256
 619.333333333 137 629.666666667 143 637 155 c 128
 644.333333333 167 650.333333333 183.666666667 655 205 c 0
191 266 m 0
 192.333333333 274 193 279.333333333 193 282 c 0
 193 301.333333333 183.666666667 311 165 311 c 0
 155.666666667 311 147.666666667 307 141 299 c 128
 134.333333333 291 129.5 280.166666667 126.5 266.5 c 128
 123.5 252.833333333 122 241 122 231 c 0
 122 209 129 198 143 198 c 0
 155.666666667 198 165.666666667 204.166666667 173 216.5 c 128
 180.333333333 228.833333333 186.333333333 245.333333333 191 266 c 0
EndSplineSet
EndChar

StartChar: u0B8E
Encoding: 47 2958 47
Width: 631
Flags: HW
AnchorPoint: "V" 327 455 basechar 0
AnchorPoint: "N" 327 -4 basechar 0
LayerCount: 2
Fore
SplineSet
598 410 m 0
 576 401.333333333 558.166666667 386 544.5 364 c 128
 530.833333333 342 519.333333333 314.333333333 510 281 c 0
 506.666666667 269.666666667 499.666666667 242.166666667 489 198.5 c 128
 478.333333333 154.833333333 473 132.666666667 473 132 c 0
 463 86.6666666667 442.666666667 51.6666666667 412 27 c 0
 386 6.33333333333 356.666666667 -4 324 -4 c 0
 312 -4 306 -0.666666666667 306 6 c 0
 306 10 308.666666667 15.3333333333 314 22 c 0
 326 38 336.333333333 55.1666666667 345 73.5 c 128
 353.666666667 91.8333333333 360 111 364 131 c 128
 368 151 374.333333333 178 383 212 c 0
 388.333333333 234.666666667 394.333333333 258.333333333 401 283 c 0
 413.666666667 328.333333333 433.333333333 367.333333333 460 400 c 1
 448 402.666666667 434.333333333 405 419 407 c 128
 403.666666667 409 384.333333333 410 361 410 c 0
 305 410 254.5 396.333333333 209.5 369 c 128
 164.5 341.666666667 131 306.333333333 109 263 c 1
 120.333333333 270.333333333 132.333333333 276.333333333 145 281 c 128
 157.666666667 285.666666667 170.333333333 288 183 288 c 0
 211.666666667 288 234.833333333 281 252.5 267 c 128
 270.166666667 253 279 231.333333333 279 202 c 0
 279 196 279 196 279 190 c 0
 277 180 275.666666667 172.333333333 275 167 c 0
 264.333333333 115 247.666666667 75.6666666667 225 49 c 0
 197.666666667 16.3333333333 159.666666667 0 111 0 c 0
 55 0 27 31.6666666667 27 95 c 0
 27 117 30 142 36 170 c 0
 54 254 91.6666666667 321 149 371 c 0
 209.666666667 423.666666667 284 450 372 450 c 0
 406.666666667 450 436 448 460 444 c 0
 486 438.666666667 512.333333333 433.666666667 539 429 c 0
 549.666666667 429 559.166666667 430 567.5 432 c 128
 575.833333333 434 586.333333333 438.666666667 599 446 c 0
 605 449.333333333 610.666666667 451 616 451 c 0
 623.333333333 451 627 447.666666667 627 441 c 0
 627 428.333333333 617.333333333 418 598 410 c 0
171 146 m 0
 172.333333333 150.666666667 173.333333333 156.5 174 163.5 c 128
 174.666666667 170.5 175 176.333333333 175 181 c 0
 175 207 162.666666667 220 138 220 c 0
 116.666666667 220 99.6666666667 209.666666667 87 189 c 0
 79.6666666667 176.333333333 74 160.333333333 70 141 c 128
 66 121.666666667 64 105.333333333 64 92 c 0
 64 57.3333333333 75 40 97 40 c 0
 117 40 133.333333333 50.6666666667 146 72 c 0
 155.333333333 88 163.666666667 112.666666667 171 146 c 0
EndSplineSet
EndChar

StartChar: u0B8F
Encoding: 48 2959 48
Width: 631
Flags: HW
AnchorPoint: "V" 327 455 basechar 0
AnchorPoint: "N" 327 -47.6929 basechar 0
LayerCount: 2
Fore
SplineSet
598 410 m 0
 576 401.333333333 558.166666667 386 544.5 364 c 128
 530.833333333 342 519.333333333 314.333333333 510 281 c 0
 506.666666667 269.666666667 499.666666667 242.166666667 489 198.5 c 128
 478.333333333 154.833333333 473 132.666666667 473 132 c 0
 465.666666667 94.6666666667 450.333333333 64 427 40 c 0
 417 29.3333333333 400.833333333 19.3333333333 378.5 10 c 128
 356.166666667 0.666666666667 334 -8.66666666667 312 -18 c 0
 295.333333333 -26 278 -35.3333333333 260 -46 c 128
 242 -56.6666666667 222 -69 200 -83 c 1
 186 -97 186 -97 172 -111 c 0
 164.666666667 -115.666666667 157 -117 149 -115 c 0
 141.666666667 -111.666666667 138 -106 138 -98 c 0
 138 -91.3333333333 141.333333333 -85 148 -79 c 0
 168.666666667 -67.6666666667 189 -55.3333333333 209 -42 c 0
 220.333333333 -34.6666666667 245.333333333 -17 284 11 c 0
 305.333333333 26.3333333333 322.833333333 44.8333333333 336.5 66.5 c 128
 350.166666667 88.1666666667 359.666666667 111 365 135 c 0
 368.333333333 152.333333333 374.333333333 178 383 212 c 0
 388.333333333 234.666666667 394.333333333 258.333333333 401 283 c 0
 413.666666667 328.333333333 433.333333333 367.333333333 460 400 c 1
 448 402.666666667 434.333333333 405 419 407 c 128
 403.666666667 409 384.333333333 410 361 410 c 0
 305 410 254.5 396.333333333 209.5 369 c 128
 164.5 341.666666667 131 306.333333333 109 263 c 1
 120.333333333 270.333333333 132.333333333 276.333333333 145 281 c 128
 157.666666667 285.666666667 170.333333333 288 183 288 c 0
 211.666666667 288 234.833333333 281 252.5 267 c 128
 270.166666667 253 279 231.333333333 279 202 c 0
 279 196 279 196 279 190 c 0
 277 180 275.666666667 172.333333333 275 167 c 0
 264.333333333 115 247.666666667 75.6666666667 225 49 c 0
 197.666666667 16.3333333333 159.666666667 0 111 0 c 0
 55 0 27 31.6666666667 27 95 c 0
 27 117 30 142 36 170 c 0
 54 254 91.6666666667 321 149 371 c 0
 209.666666667 423.666666667 284 450 372 450 c 0
 406.666666667 450 436 448 460 444 c 0
 486 438.666666667 512.333333333 433.666666667 539 429 c 0
 549.666666667 429 559.166666667 430 567.5 432 c 128
 575.833333333 434 586.333333333 438.666666667 599 446 c 0
 605 449.333333333 610.666666667 451 616 451 c 0
 623.333333333 451 627 447.666666667 627 441 c 0
 627 428.333333333 617.333333333 418 598 410 c 0
171 146 m 0
 172.333333333 150.666666667 173.333333333 156.5 174 163.5 c 128
 174.666666667 170.5 175 176.333333333 175 181 c 0
 175 207 162.666666667 220 138 220 c 0
 116.666666667 220 99.6666666667 209.666666667 87 189 c 0
 79.6666666667 176.333333333 74 160.333333333 70 141 c 128
 66 121.666666667 64 105.333333333 64 92 c 0
 64 57.3333333333 75 40 97 40 c 0
 117 40 133.333333333 50.6666666667 146 72 c 0
 155.333333333 88 163.666666667 112.666666667 171 146 c 0
EndSplineSet
EndChar

StartChar: u0B90
Encoding: 49 2960 49
Width: 725
Flags: HW
AnchorPoint: "V" 332 455 basechar 0
AnchorPoint: "N" 332 -149.472 basechar 0
LayerCount: 2
Fore
SplineSet
181 302 m 0
 182.333333333 308.666666667 183 313.333333333 183 316 c 0
 183 324.666666667 181.166666667 331.833333333 177.5 337.5 c 128
 173.833333333 343.166666667 168 346 160 346 c 0
 150.666666667 346 142 341 134 331 c 128
 126 321 121 311.166666667 119 301.5 c 128
 117 291.833333333 115.666666667 284.5 115 279.5 c 128
 114.333333333 274.5 114 269 114 263 c 0
 114 244.333333333 120.666666667 235 134 235 c 256
 147.333333333 235 157.333333333 240.666666667 164 252 c 128
 170.666666667 263.333333333 176.333333333 280 181 302 c 0
432 389 m 1
 441.333333333 405 456 418.666666667 476 430 c 0
 498.666666667 443.333333333 523.666666667 450 551 450 c 0
 630.333333333 450 670 418 670 354 c 0
 670 343.333333333 668.333333333 330.333333333 665 315 c 0
 655 267.666666667 620.666666667 227.333333333 562 194 c 0
 518 168.666666667 462.666666667 148.333333333 396 133 c 0
 348 122.333333333 301 111.5 255 100.5 c 128
 209 89.5 175.333333333 77 154 63 c 0
 128.666666667 45.6666666667 112.666666667 21.3333333333 106 -10 c 0
 104.666666667 -15.3333333333 103.666666667 -21.5 103 -28.5 c 128
 102.333333333 -35.5 102 -42 102 -48 c 0
 102 -66.6666666667 105.166666667 -81.6666666667 111.5 -93 c 128
 117.833333333 -104.333333333 128 -110 142 -110 c 0
 166 -110 188.833333333 -103 210.5 -89 c 128
 232.166666667 -75 249 -55 261 -29 c 1
 267 -1 l 2
 272.333333333 23.6666666667 284 44.3333333333 302 61 c 128
 320 77.6666666667 341.666666667 86 367 86 c 0
 379.666666667 86 394 83.3333333333 410 78 c 1
 400 67.3333333333 391.166666667 53.8333333333 383.5 37.5 c 128
 375.833333333 21.1666666667 370 4 366 -14 c 0
 364.666666667 -19.3333333333 363.666666667 -24.5 363 -29.5 c 128
 362.333333333 -34.5 362 -40.3333333333 362 -47 c 0
 362 -65.6666666667 366.666666667 -80.8333333333 376 -92.5 c 128
 385.333333333 -104.166666667 400.333333333 -110 421 -110 c 0
 445.666666667 -110 465 -98.6666666667 479 -76 c 0
 489 -60 497.666666667 -34.6666666667 505 0 c 0
 506.333333333 6 508 16 510 30 c 128
 512 44 513 53.6666666667 513 59 c 0
 513 67 512 74 510 80 c 1
 520 82 529.666666667 83 539 83 c 0
 561 83 577.666666667 77 589 65 c 128
 600.333333333 53 606 36.6666666667 606 16 c 0
 606 8 605 -0.666666666667 603 -10 c 0
 593.666666667 -54.6666666667 574 -89.1666666667 544 -113.5 c 128
 514 -137.833333333 472 -150 418 -150 c 0
 380 -150 351 -141.833333333 331 -125.5 c 128
 311 -109.166666667 299 -87.6666666667 295 -61 c 1
 279.666666667 -87.6666666667 260.333333333 -108 237 -122 c 0
 207 -140.666666667 169 -150 123 -150 c 0
 80.3333333333 -150 48.1666666667 -140 26.5 -120 c 128
 4.83333333333 -100 -6 -74.6666666667 -6 -44 c 0
 -6 -34.6666666667 -5.66666666667 -27.6666666667 -5 -23 c 0
 -3 -17 -2 -12.6666666667 -2 -10 c 0
 7.33333333333 32 33.3333333333 64.3333333333 76 87 c 0
 105.333333333 102.333333333 152.666666667 115.666666667 218 127 c 0
 308.666666667 143 361.333333333 152.666666667 376 156 c 0
 422 168 460.333333333 186.666666667 491 212 c 0
 525 240.666666667 546.666666667 276.333333333 556 319 c 0
 560 337 562 352.333333333 562 365 c 0
 562 395 550.333333333 410 527 410 c 0
 507.666666667 410 490.333333333 402.666666667 475 388 c 0
 463.666666667 376.666666667 454.666666667 362.666666667 448 346 c 1
 448 324 l 2
 447.333333333 318.666666667 447 315 447 313 c 2
 439 278 l 2
 434.333333333 254.666666667 422.666666667 234.666666667 404 218 c 128
 385.333333333 201.333333333 363.333333333 193 338 193 c 0
 327.333333333 193 316 195 304 199 c 1
 314 210.333333333 321.333333333 221.833333333 326 233.5 c 128
 330.666666667 245.166666667 335.333333333 261.333333333 340 282 c 2
 349 323 l 2
 351 334.333333333 352 344.333333333 352 353 c 0
 352 391 332 410 292 410 c 0
 270 410 250.833333333 408 234.5 404 c 128
 218.166666667 400 202.333333333 392.333333333 187 381 c 1
 191 381.666666667 197 382 205 382 c 0
 253 382 277 360 277 316 c 0
 277 308 276 299.333333333 274 290 c 0
 266.666666667 258 249 233.333333333 221 216 c 0
 197.666666667 202 172 195 144 195 c 0
 96.6666666667 195 73 215 73 255 c 0
 73 265 73 265 73 276 c 0
 75 283.333333333 76.3333333333 288.333333333 77 291 c 0
 87 340.333333333 112.833333333 379.166666667 154.5 407.5 c 128
 196.166666667 435.833333333 245.666666667 450 303 450 c 0
 336.333333333 450 363.5 444.333333333 384.5 433 c 128
 405.5 421.666666667 421.333333333 407 432 389 c 1
EndSplineSet
EndChar

StartChar: u0B92
Encoding: 50 2962 50
Width: 695
Flags: HW
AnchorPoint: "V" 332 455 basechar 0
AnchorPoint: "N" 332 -124.647 basechar 0
LayerCount: 2
Fore
SplineSet
624 229 m 0
 613.333333333 179 590.833333333 139.5 556.5 110.5 c 128
 522.166666667 81.5 477 67 421 67 c 0
 392.333333333 67 371.833333333 75 359.5 91 c 128
 347.166666667 107 341 128.666666667 341 156 c 0
 341 174 343 192 347 210 c 1
 329 180.666666667 320 153.666666667 320 129 c 0
 320 98.3333333333 333.333333333 74.6666666667 360 58 c 128
 386.666666667 41.3333333333 417.666666667 33 453 33 c 0
 461 33 465 28.6666666667 465 20 c 0
 465 6.66666666667 458.666666667 0 446 0 c 2
 397 0 l 2
 379 0 352.666666667 -24.6666666667 318 -74 c 128
 283.333333333 -123.333333333 232 -148 164 -148 c 0
 132 -148 107.333333333 -137.333333333 90 -116 c 128
 72.6666666667 -94.6666666667 64 -67 64 -33 c 1
 86 -26 l 1
 86 -51.3333333333 92.3333333333 -71.3333333333 105 -86 c 128
 117.666666667 -100.666666667 137.333333333 -108 164 -108 c 0
 187.333333333 -108 208.333333333 -92.6666666667 227 -62 c 0
 237 -44.6666666667 247.333333333 -27.3333333333 258 -10 c 0
 265.333333333 1.33333333333 275.5 9.83333333333 288.5 15.5 c 128
 301.5 21.1666666667 320.333333333 24 345 24 c 1
 331.666666667 26.6666666667 319 35.3333333333 307 50 c 0
 292.333333333 68 285 89.3333333333 285 114 c 0
 285 121.333333333 286 129.666666667 288 139 c 0
 293.333333333 165.666666667 303 191.833333333 317 217.5 c 128
 331 243.166666667 354 271.333333333 386 302 c 0
 398 313.333333333 409.333333333 319 420 319 c 0
 428.666666667 319 433 315.666666667 433 309 c 0
 433 306.333333333 432 304 430 302 c 0
 410.666666667 280.666666667 401 269.666666667 401 269 c 0
 391.666666667 254.333333333 383.666666667 230 377 196 c 0
 375.666666667 190.666666667 374.666666667 185.5 374 180.5 c 128
 373.333333333 175.5 373 170 373 164 c 0
 373 146 377.333333333 132 386 122 c 128
 394.666666667 112 408.666666667 107 428 107 c 0
 448.666666667 107 467.333333333 120.333333333 484 147 c 0
 497.333333333 169 508.333333333 199.333333333 517 238 c 0
 519 247.333333333 520.333333333 254.333333333 521 259 c 128
 521.666666667 263.666666667 522 271 522 281 c 0
 522 319 510.666666667 349 488 371 c 0
 461.333333333 397 420 410 364 410 c 0
 311.333333333 410 262.333333333 397.333333333 217 372 c 0
 176.333333333 349.333333333 148.333333333 322.666666667 133 292 c 1
 147 300 162 304 178 304 c 0
 201.333333333 304 220.833333333 297 236.5 283 c 128
 252.166666667 269 260 248.666666667 260 222 c 0
 260 213.333333333 259 204 257 194 c 0
 249.666666667 157.333333333 232.666666667 127.333333333 206 104 c 0
 176.666666667 78 141 65 99 65 c 0
 79.6666666667 65 64.6666666667 71 54 83 c 0
 41.3333333333 97 35 117.333333333 35 144 c 0
 35 155.333333333 36.6666666667 170.333333333 40 189 c 0
 58 273.666666667 100.333333333 339.333333333 167 386 c 0
 227.666666667 428.666666667 298 450 378 450 c 0
 450.666666667 450 509 436.666666667 553 410 c 0
 603.666666667 379.333333333 629 334.666666667 629 276 c 0
 629 269.333333333 628.666666667 261.833333333 628 253.5 c 128
 627.333333333 245.166666667 626 237 624 229 c 0
128 248 m 0
 116 248 105.666666667 241.166666667 97 227.5 c 128
 88.3333333333 213.833333333 81.6666666667 196.333333333 77 175 c 0
 75.6666666667 169 74.5 162.5 73.5 155.5 c 128
 72.5 148.5 72 143 72 139 c 0
 72 127.666666667 74 119.166666667 78 113.5 c 128
 82 107.833333333 89.3333333333 105 100 105 c 0
 114.666666667 105 126.333333333 113.333333333 135 130 c 0
 141 142 146.666666667 160.333333333 152 185 c 0
 154 196.333333333 155 205.666666667 155 213 c 0
 155 236.333333333 146 248 128 248 c 0
EndSplineSet
EndChar

StartChar: u0B93
Encoding: 51 2963 51
Width: 695
Flags: HW
AnchorPoint: "V" 332 455 basechar 0
AnchorPoint: "N" 332 -124.647 basechar 0
LayerCount: 2
Fore
SplineSet
107 -80 m 256
 117.666666667 -80 126.833333333 -75.5 134.5 -66.5 c 128
 142.166666667 -57.5 147 -48 149 -38 c 128
 151 -28 152 -21.6666666667 152 -19 c 0
 152 0.333333333333 143.333333333 10 126 10 c 0
 110 10 98.5 5.33333333333 91.5 -4 c 128
 84.5 -13.3333333333 79.3333333333 -26 76 -42 c 0
 74 -54 76 -63.3333333333 82 -70 c 128
 88 -76.6666666667 96.3333333333 -80 107 -80 c 256
128 248 m 0
 116 248 105.666666667 241.166666667 97 227.5 c 128
 88.3333333333 213.833333333 81.6666666667 196.333333333 77 175 c 0
 75.6666666667 169 74.5 162.5 73.5 155.5 c 128
 72.5 148.5 72 143 72 139 c 0
 72 127.666666667 74 119.166666667 78 113.5 c 128
 82 107.833333333 89.3333333333 105 100 105 c 0
 114.666666667 105 126.333333333 113.333333333 135 130 c 0
 141 142 146.666666667 160.333333333 152 185 c 0
 154 196.333333333 155 205.666666667 155 213 c 0
 155 236.333333333 146 248 128 248 c 0
164 -108 m 0
 187.333333333 -108 208.333333333 -92.6666666667 227 -62 c 0
 237 -44.6666666667 247.333333333 -27.3333333333 258 -10 c 0
 265.333333333 1.33333333333 275.5 9.83333333333 288.5 15.5 c 128
 301.5 21.1666666667 320.333333333 24 345 24 c 1
 331.666666667 26.6666666667 319 35.3333333333 307 50 c 0
 292.333333333 68 285 89.3333333333 285 114 c 0
 285 121.333333333 286 129.666666667 288 139 c 0
 293.333333333 165.666666667 303 191.833333333 317 217.5 c 128
 331 243.166666667 354 271.333333333 386 302 c 0
 398 313.333333333 409.333333333 319 420 319 c 0
 428.666666667 319 433 315.666666667 433 309 c 0
 433 306.333333333 432 304 430 302 c 0
 410.666666667 280.666666667 401 269.666666667 401 269 c 0
 391.666666667 254.333333333 383.666666667 230 377 196 c 0
 375.666666667 190.666666667 374.666666667 185.5 374 180.5 c 128
 373.333333333 175.5 373 170 373 164 c 0
 373 146 377.333333333 132 386 122 c 128
 394.666666667 112 408.666666667 107 428 107 c 0
 448.666666667 107 467.333333333 120.333333333 484 147 c 0
 497.333333333 169 508.333333333 199.333333333 517 238 c 0
 519 247.333333333 520.333333333 254.333333333 521 259 c 128
 521.666666667 263.666666667 522 271 522 281 c 0
 522 319 510.666666667 349 488 371 c 0
 461.333333333 397 420 410 364 410 c 0
 311.333333333 410 262.333333333 397.333333333 217 372 c 0
 176.333333333 349.333333333 148.333333333 322.666666667 133 292 c 1
 147 300 162 304 178 304 c 0
 201.333333333 304 220.833333333 297 236.5 283 c 128
 252.166666667 269 260 248.666666667 260 222 c 0
 260 213.333333333 259 204 257 194 c 0
 249.666666667 157.333333333 232.666666667 127.333333333 206 104 c 0
 176.666666667 78 141 65 99 65 c 0
 79.6666666667 65 64.6666666667 71 54 83 c 0
 41.3333333333 97 35 117.333333333 35 144 c 0
 35 155.333333333 36.6666666667 170.333333333 40 189 c 0
 58 273.666666667 100.333333333 339.333333333 167 386 c 0
 227.666666667 428.666666667 298 450 378 450 c 0
 450.666666667 450 509 436.666666667 553 410 c 0
 603.666666667 379.333333333 629 334.666666667 629 276 c 0
 629 269.333333333 628.666666667 261.833333333 628 253.5 c 128
 627.333333333 245.166666667 626 237 624 229 c 0
 613.333333333 179 590.833333333 139.5 556.5 110.5 c 128
 522.166666667 81.5 477 67 421 67 c 0
 392.333333333 67 371.833333333 75 359.5 91 c 128
 347.166666667 107 341 128.666666667 341 156 c 0
 341 174 343 192 347 210 c 1
 329 180.666666667 320 153.666666667 320 129 c 0
 320 98.3333333333 333.333333333 74.6666666667 360 58 c 128
 386.666666667 41.3333333333 417.666666667 33 453 33 c 0
 461 33 465 28.6666666667 465 20 c 0
 465 6.66666666667 458.666666667 0 446 0 c 2
 397 0 l 2
 379 0 352.666666667 -24.6666666667 318 -74 c 128
 283.333333333 -123.333333333 232 -148 164 -148 c 0
 126.666666667 -148 96.6666666667 -140.5 74 -125.5 c 128
 51.3333333333 -110.5 40 -88 40 -58 c 0
 40 -50 41 -41.3333333333 43 -32 c 0
 47.6666666667 -9.33333333333 58.5 9.16666666667 75.5 23.5 c 128
 92.5 37.8333333333 115 45 143 45 c 0
 165.666666667 45 181.833333333 40.1666666667 191.5 30.5 c 128
 201.166666667 20.8333333333 206 8 206 -8 c 0
 206 -12 205.333333333 -18.6666666667 204 -28 c 0
 200 -46 192 -62.5 180 -77.5 c 128
 168 -92.5 157 -101.666666667 147 -105 c 1
 149.666666667 -105.666666667 155.333333333 -106.666666667 164 -108 c 0
EndSplineSet
EndChar

StartChar: u0B95
Encoding: 53 2965 53
Width: 668
Flags: HW
AnchorPoint: "V" 454.5 455 basechar 0
AnchorPoint: "N" 454.5 -4 basechar 0
LayerCount: 2
Fore
SplineSet
580 150 m 0
 570.666666667 106 551.333333333 70 522 42 c 0
 490 11.3333333333 451.333333333 -4 406 -4 c 0
 394 -4 388 0.333333333333 388 9 c 0
 388 14.3333333333 390.666666667 18.6666666667 396 22 c 0
 416.666666667 34.6666666667 434 55.6666666667 448 85 c 0
 457.333333333 105.666666667 465 129 471 155 c 0
 471.666666667 160.333333333 472.5 165.666666667 473.5 171 c 128
 474.5 176.333333333 475 181.666666667 475 187 c 0
 475 223 449.666666667 241 399 241 c 1
 380 162 l 2
 370 111.333333333 348.333333333 71.6666666667 315 43 c 128
 281.666666667 14.3333333333 238.333333333 0 185 0 c 0
 133.666666667 0 93.8333333333 8.16666666667 65.5 24.5 c 128
 37.1666666667 40.8333333333 23 64.6666666667 23 96 c 0
 23 106 23.6666666667 113.666666667 25 119 c 0
 33.6666666667 157.666666667 48.6666666667 189 70 213 c 128
 91.3333333333 237 122.666666667 254.666666667 164 266 c 1
 172 305 l 2
 181.333333333 349 197.333333333 383 220 407 c 0
 246.666666667 435.666666667 281.666666667 450 325 450 c 0
 348.333333333 450 370 447 390 441 c 128
 410 435 427 432 441 432 c 0
 453.666666667 432 463.833333333 432.833333333 471.5 434.5 c 128
 479.166666667 436.166666667 488.666666667 440 500 446 c 0
 506 449.333333333 511.666666667 451 517 451 c 0
 524.333333333 451 528 447.666666667 528 441 c 0
 528 428.333333333 518.333333333 418 499 410 c 0
 474.333333333 399.333333333 454 380.333333333 438 353 c 0
 433.333333333 345 428.833333333 335.333333333 424.5 324 c 128
 420.166666667 312.666666667 415.666666667 298.333333333 411 281 c 1
 465.666666667 281 508 273 538 257 c 128
 568 241 583 215.333333333 583 180 c 0
 583 171.333333333 582 161.333333333 580 150 c 0
365 401 m 1
 356.333333333 403.666666667 349.166666667 405.833333333 343.5 407.5 c 128
 337.833333333 409.166666667 328 410 314 410 c 0
 297.333333333 410 283.666666667 407.833333333 273 403.5 c 128
 262.333333333 399.166666667 252.333333333 391 243 379 c 0
 229 361.666666667 216 326.666666667 204 274 c 1
 210.666666667 275.333333333 226 276.833333333 250 278.5 c 128
 274 280.166666667 291.333333333 281 302 281 c 1
 310 308.333333333 318.666666667 330.666666667 328 348 c 0
 333.333333333 357.333333333 338.666666667 365.833333333 344 373.5 c 128
 349.333333333 381.166666667 356.333333333 390.333333333 365 401 c 1
290 240 m 1
 257.333333333 240 230.333333333 234.833333333 209 224.5 c 128
 187.666666667 214.166666667 171.166666667 199.166666667 159.5 179.5 c 128
 147.833333333 159.833333333 139.333333333 137.333333333 134 112 c 0
 132 100.666666667 131 91.3333333333 131 84 c 0
 131 54.6666666667 147.333333333 40 180 40 c 0
 210.666666667 40 233.666666667 55 249 85 c 0
 255.666666667 98.3333333333 263.333333333 125 272 165 c 0
 276 184.333333333 278.666666667 197.333333333 280 204 c 128
 281.333333333 210.666666667 284.666666667 222.666666667 290 240 c 1
EndSplineSet
EndChar

StartChar: u0B95_u0BBF
Encoding: 54 -1 54
Width: 679
Flags: HW
AnchorPoint: "V" 454.5 649.648 basechar 0
AnchorPoint: "N" 454.5 -4 basechar 0
LayerCount: 2
Fore
SplineSet
365 401 m 1
 356.333333333 403.666666667 349.166666667 405.833333333 343.5 407.5 c 128
 337.833333333 409.166666667 328 410 314 410 c 0
 297.333333333 410 283.666666667 407.833333333 273 403.5 c 128
 262.333333333 399.166666667 252.333333333 391 243 379 c 0
 229 361.666666667 216 326.666666667 204 274 c 1
 210.666666667 275.333333333 226 276.833333333 250 278.5 c 128
 274 280.166666667 291.333333333 281 302 281 c 1
 310 308.333333333 318.666666667 330.666666667 328 348 c 0
 333.333333333 357.333333333 338.666666667 365.833333333 344 373.5 c 128
 349.333333333 381.166666667 356.333333333 390.333333333 365 401 c 1
290 240 m 1
 257.333333333 240 230.333333333 234.833333333 209 224.5 c 128
 187.666666667 214.166666667 171.166666667 199.166666667 159.5 179.5 c 128
 147.833333333 159.833333333 139.333333333 137.333333333 134 112 c 0
 132 100.666666667 131 91.3333333333 131 84 c 0
 131 54.6666666667 147.333333333 40 180 40 c 0
 210.666666667 40 233.666666667 55 249 85 c 0
 255.666666667 98.3333333333 263.333333333 125 272 165 c 0
 276 184.333333333 278.666666667 197.333333333 280 204 c 128
 281.333333333 210.666666667 284.666666667 222.666666667 290 240 c 1
381 533 m 0
 390.333333333 576.333333333 409 610.666666667 437 636 c 0
 469 664.666666667 510 679 560 679 c 0
 598 679 626.333333333 669 645 649 c 128
 663.666666667 629 673 601 673 565 c 0
 673 545 670.666666667 524 666 502 c 128
 661.333333333 480 654 456.666666667 644 432 c 0
 637.333333333 415.333333333 626.333333333 391.333333333 611 360 c 0
 610.333333333 358 610 355.833333333 610 353.5 c 128
 610 350 610 350 610 349 c 0
 610 344.333333333 611.833333333 338 615.5 330 c 128
 619.166666667 322 620.333333333 314.333333333 619 307 c 0
 617.666666667 301 614 295.333333333 608 290 c 128
 602 284.666666667 595.666666667 282 589 282 c 0
 581.666666667 282 575.666666667 285.333333333 571 292 c 128
 566.333333333 298.666666667 564 306 564 314 c 0
 564 316.666666667 564.666666667 320.666666667 566 326 c 0
 586.666666667 374.666666667 607.666666667 423.666666667 629 473 c 0
 631.666666667 484.333333333 633 496 633 508 c 0
 633 533.333333333 625.833333333 552.833333333 611.5 566.5 c 128
 597.166666667 580.166666667 574.333333333 587 543 587 c 0
 507 587 478.166666667 578.166666667 456.5 560.5 c 128
 434.833333333 542.833333333 421 519.666666667 415 491 c 0
 413.666666667 481.666666667 413 473.333333333 413 466 c 0
 413 450 415.333333333 439.333333333 420 434 c 1
 441 432 l 2
 453.666666667 432 463.833333333 432.833333333 471.5 434.5 c 128
 479.166666667 436.166666667 488.666666667 440 500 446 c 0
 506 449.333333333 511.666666667 451 517 451 c 0
 524.333333333 451 528 447.666666667 528 441 c 0
 528 428.333333333 518.333333333 418 499 410 c 0
 474.333333333 399.333333333 454 380.333333333 438 353 c 0
 433.333333333 345 428.833333333 335.333333333 424.5 324 c 128
 420.166666667 312.666666667 415.666666667 298.333333333 411 281 c 1
 465.666666667 281 508 273 538 257 c 128
 568 241 583 215.333333333 583 180 c 0
 583 171.333333333 582 161.333333333 580 150 c 0
 570.666666667 106 551.333333333 70 522 42 c 0
 490 11.3333333333 451.333333333 -4 406 -4 c 0
 394 -4 388 0.333333333333 388 9 c 0
 388 14.3333333333 390.666666667 18.6666666667 396 22 c 0
 416.666666667 34.6666666667 434 55.6666666667 448 85 c 0
 457.333333333 105.666666667 465 129 471 155 c 0
 471.666666667 160.333333333 472.5 165.666666667 473.5 171 c 128
 474.5 176.333333333 475 181.666666667 475 187 c 0
 475 223 449.666666667 241 399 241 c 1
 380 162 l 2
 370 111.333333333 348.333333333 71.6666666667 315 43 c 128
 281.666666667 14.3333333333 238.333333333 0 185 0 c 0
 133.666666667 0 93.8333333333 8.16666666667 65.5 24.5 c 128
 37.1666666667 40.8333333333 23 64.6666666667 23 96 c 0
 23 106 23.6666666667 113.666666667 25 119 c 0
 33.6666666667 157.666666667 48.6666666667 189 70 213 c 128
 91.3333333333 237 122.666666667 254.666666667 164 266 c 1
 172 305 l 2
 181.333333333 349 197.333333333 383 220 407 c 0
 246.666666667 435.666666667 281.666666667 450 325 450 c 0
 335.666666667 450 344.333333333 449.666666667 351 449 c 128
 357.666666667 448.333333333 367.333333333 446.333333333 380 443 c 1
 378.666666667 448.333333333 377.666666667 453.666666667 377 459 c 128
 376.333333333 464.333333333 376 472.333333333 376 483 c 0
 376 498.333333333 377.666666667 515 381 533 c 0
EndSplineSet
EndChar

StartChar: u0B95_u0BC0
Encoding: 55 -1 55
Width: 669
Flags: HW
AnchorPoint: "V" 454.5 658.692 basechar 0
AnchorPoint: "N" 454.5 -4 basechar 0
LayerCount: 2
Fore
SplineSet
302 281 m 1
 310 308.333333333 318.666666667 330.666666667 328 348 c 0
 333.333333333 357.333333333 338.666666667 365.833333333 344 373.5 c 128
 349.333333333 381.166666667 356.333333333 390.333333333 365 401 c 1
 356.333333333 403.666666667 349.166666667 405.833333333 343.5 407.5 c 128
 337.833333333 409.166666667 328 410 314 410 c 0
 297.333333333 410 283.666666667 407.833333333 273 403.5 c 128
 262.333333333 399.166666667 252.333333333 391 243 379 c 0
 229 361.666666667 216 326.666666667 204 274 c 1
 210.666666667 275.333333333 226 276.833333333 250 278.5 c 128
 274 280.166666667 291.333333333 281 302 281 c 1
290 240 m 1
 257.333333333 240 230.333333333 234.833333333 209 224.5 c 128
 187.666666667 214.166666667 171.166666667 199.166666667 159.5 179.5 c 128
 147.833333333 159.833333333 139.333333333 137.333333333 134 112 c 0
 132 100.666666667 131 91.3333333333 131 84 c 0
 131 54.6666666667 147.333333333 40 180 40 c 0
 210.666666667 40 233.666666667 55 249 85 c 0
 255.666666667 98.3333333333 263.333333333 125 272 165 c 0
 276 184.333333333 278.666666667 197.333333333 280 204 c 128
 281.333333333 210.666666667 284.666666667 222.666666667 290 240 c 1
566 578 m 0
 566.666666667 580 567 583.333333333 567 588 c 0
 567 606.666666667 557.333333333 616 538 616 c 0
 526.666666667 616 517 612.666666667 509 606 c 128
 501 599.333333333 495.333333333 590.666666667 492 580 c 0
 491.333333333 578 491 574.666666667 491 570 c 0
 491 551.333333333 500.666666667 542 520 542 c 0
 532 542 542 545.333333333 550 552 c 128
 558 558.666666667 563.333333333 567.333333333 566 578 c 0
357 536 m 0
 365.666666667 576.666666667 387.333333333 610.666666667 422 638 c 0
 460.666666667 668 507.666666667 683 563 683 c 0
 594.333333333 683 621 675.833333333 643 661.5 c 128
 665 647.166666667 676 628 676 604 c 0
 676 601.333333333 675.333333333 596 674 588 c 0
 670 567.333333333 658.333333333 547.666666667 639 529 c 0
 613.666666667 504.333333333 583 492 547 492 c 0
 514.333333333 492 491 498.166666667 477 510.5 c 128
 463 522.833333333 456 538.666666667 456 558 c 0
 456 566 457.333333333 574.666666667 460 584 c 128
 462.666666667 593.333333333 466 601.666666667 470 609 c 1
 450.666666667 603.666666667 434.333333333 593.166666667 421 577.5 c 128
 407.666666667 561.833333333 399 545.333333333 395 528 c 0
 393.666666667 518.666666667 393 512 393 508 c 0
 393 494 395.5 480.5 400.5 467.5 c 128
 405.5 454.5 413 443 423 433 c 1
 441 432 l 2
 453.666666667 432 463.833333333 432.833333333 471.5 434.5 c 128
 479.166666667 436.166666667 488.666666667 440 500 446 c 0
 506 449.333333333 511.666666667 451 517 451 c 0
 524.333333333 451 528 447.666666667 528 441 c 0
 528 428.333333333 518.333333333 418 499 410 c 0
 474.333333333 399.333333333 454 380.333333333 438 353 c 0
 433.333333333 345 428.833333333 335.333333333 424.5 324 c 128
 420.166666667 312.666666667 415.666666667 298.333333333 411 281 c 1
 465.666666667 281 508 273 538 257 c 128
 568 241 583 215.333333333 583 180 c 0
 583 171.333333333 582 161.333333333 580 150 c 0
 570.666666667 106 551.333333333 70 522 42 c 0
 490 11.3333333333 451.333333333 -4 406 -4 c 0
 394 -4 388 0.333333333333 388 9 c 0
 388 14.3333333333 390.666666667 18.6666666667 396 22 c 0
 416.666666667 34.6666666667 434 55.6666666667 448 85 c 0
 457.333333333 105.666666667 465 129 471 155 c 0
 471.666666667 160.333333333 472.5 165.666666667 473.5 171 c 128
 474.5 176.333333333 475 181.666666667 475 187 c 0
 475 223 449.666666667 241 399 241 c 1
 380 162 l 2
 370 111.333333333 348.333333333 71.6666666667 315 43 c 128
 281.666666667 14.3333333333 238.333333333 0 185 0 c 0
 133.666666667 0 93.8333333333 8.16666666667 65.5 24.5 c 128
 37.1666666667 40.8333333333 23 64.6666666667 23 96 c 0
 23 106 23.6666666667 113.666666667 25 119 c 0
 33.6666666667 157.666666667 48.6666666667 189 70 213 c 128
 91.3333333333 237 122.666666667 254.666666667 164 266 c 1
 172 305 l 2
 181.333333333 349 197.333333333 383 220 407 c 0
 246.666666667 435.666666667 281.666666667 450 325 450 c 2
 361 450 l 1
 355.666666667 464.666666667 353 481 353 499 c 0
 353 511 354.333333333 523.333333333 357 536 c 0
EndSplineSet
EndChar

StartChar: u0B95_u0BC1
Encoding: 56 -1 56
Width: 818
Flags: HW
AnchorPoint: "V" 454.5 455 basechar 0
AnchorPoint: "N" 454.5 -4 basechar 0
LayerCount: 2
Fore
SplineSet
452 281 m 1
 460 308.333333333 468.666666667 330.666666667 478 348 c 0
 483.333333333 357.333333333 488.666666667 365.833333333 494 373.5 c 128
 499.333333333 381.166666667 506.333333333 390.333333333 515 401 c 1
 506.333333333 403.666666667 499.166666667 405.833333333 493.5 407.5 c 128
 487.833333333 409.166666667 478 410 464 410 c 0
 447.333333333 410 433.666666667 407.833333333 423 403.5 c 128
 412.333333333 399.166666667 402.333333333 391 393 379 c 0
 379 361.666666667 366 326.666666667 354 274 c 1
 360.666666667 275.333333333 376 276.833333333 400 278.5 c 128
 424 280.166666667 441.333333333 281 452 281 c 1
440 240 m 1
 407.333333333 240 380.333333333 234.833333333 359 224.5 c 128
 337.666666667 214.166666667 321.166666667 199.166666667 309.5 179.5 c 128
 297.833333333 159.833333333 289.333333333 137.333333333 284 112 c 0
 282 100.666666667 281 91.3333333333 281 84 c 0
 281 54.6666666667 297.333333333 40 330 40 c 0
 360.666666667 40 383.666666667 55 399 85 c 0
 405.666666667 98.3333333333 413.333333333 125 422 165 c 0
 426 184.333333333 428.666666667 197.333333333 430 204 c 128
 431.333333333 210.666666667 434.666666667 222.666666667 440 240 c 1
612 115 m 0
 617.333333333 140.333333333 620 160.666666667 620 176 c 0
 620 219.333333333 596.333333333 241 549 241 c 1
 530 162 l 2
 520 111.333333333 498.333333333 71.6666666667 465 43 c 128
 431.666666667 14.3333333333 388.333333333 0 335 0 c 0
 283.666666667 0 243.833333333 8.16666666667 215.5 24.5 c 128
 187.166666667 40.8333333333 173 64.6666666667 173 96 c 0
 173 106 173.666666667 113.666666667 175 119 c 0
 183.666666667 157.666666667 198.666666667 189 220 213 c 128
 241.333333333 237 272.666666667 254.666666667 314 266 c 1
 322 305 l 2
 331.333333333 349 347.333333333 383 370 407 c 0
 396.666666667 435.666666667 431.666666667 450 475 450 c 0
 498.333333333 450 520 447 540 441 c 128
 560 435 577 432 591 432 c 0
 603.666666667 432 613.833333333 432.833333333 621.5 434.5 c 128
 629.166666667 436.166666667 638.666666667 440 650 446 c 0
 656 449.333333333 661.666666667 451 667 451 c 0
 674.333333333 451 678 447.666666667 678 441 c 0
 678 428.333333333 668.333333333 418 649 410 c 0
 624.333333333 399.333333333 604 380.333333333 588 353 c 0
 583.333333333 345 578.833333333 335.333333333 574.5 324 c 128
 570.166666667 312.666666667 565.666666667 298.333333333 561 281 c 1
 615 281 655 273 681 257 c 0
 711.666666667 237.666666667 727 206.666666667 727 164 c 0
 727 148 725 130 721 110 c 0
 702.333333333 19.3333333333 661 -53 597 -107 c 0
 519.666666667 -172.333333333 415 -205 283 -205 c 0
 193.666666667 -205 126.666666667 -185 82 -145 c 128
 37.3333333333 -105 15 -48 15 26 c 0
 15 54.6666666667 18.6666666667 86.6666666667 26 122 c 0
 42 196.666666667 66.3333333333 258.333333333 99 307 c 0
 116.333333333 332.333333333 140.666666667 358.666666667 172 386 c 0
 179.333333333 392 186.333333333 395 193 395 c 0
 201.666666667 395 206 391 206 383 c 0
 206 377 202.666666667 369.666666667 196 361 c 0
 182 345.666666667 168.333333333 330.666666667 155 316 c 0
 111.666666667 263.333333333 81.6666666667 197.666666667 65 119 c 0
 59.6666666667 91 57 67 57 47 c 0
 57 -19.6666666667 79.3333333333 -71.3333333333 124 -108 c 0
 166.666666667 -142.666666667 222.666666667 -160 292 -160 c 0
 376.666666667 -160 446.666666667 -135.5 502 -86.5 c 128
 557.333333333 -37.5 594 29.6666666667 612 115 c 0
EndSplineSet
EndChar

StartChar: u0B95_u0BC2
Encoding: 57 -1 57
Width: 1098
Flags: HW
AnchorPoint: "V" 454.5 455 basechar 0
AnchorPoint: "N" 454.5 -4 basechar 0
LayerCount: 2
Fore
SplineSet
982 18 m 0
 964.666666667 10.6666666667 945.166666667 4.83333333333 923.5 0.5 c 128
 901.833333333 -3.83333333333 878 -6 852 -6 c 0
 827 -6 827 -6 800 -6 c 128
 782 -6 763.333333333 -6.33333333333 744 -7 c 2
 724 -7 l 2
 672 -7 631 -4.66666666667 601 0 c 0
 596.333333333 0.666666666667 594 3 594 7 c 0
 594 13 598 18.6666666667 606 24 c 0
 629.333333333 38.6666666667 649 55 665 73 c 0
 686.333333333 96.3333333333 699.666666667 120.333333333 705 145 c 0
 707 154.333333333 708 163.666666667 708 173 c 0
 708 199.666666667 701.666666667 221.666666667 689 239 c 0
 673 260.333333333 649.333333333 271 618 271 c 0
 605.333333333 271 590 267.666666667 572 261 c 1
 593.333333333 251.666666667 608.5 240 617.5 226 c 128
 626.5 212 631 194.666666667 631 174 c 0
 631 159.333333333 628.666666667 141.833333333 624 121.5 c 128
 619.333333333 101.166666667 602 76.3333333333 572 47 c 0
 537.333333333 13 503.666666667 -4 471 -4 c 0
 441.666666667 -4 420.333333333 2.33333333333 407 15 c 128
 393.666666667 27.6666666667 387 45.3333333333 387 68 c 0
 387 76.6666666667 388 86.6666666667 390 98 c 0
 395.333333333 124.666666667 403.833333333 148.166666667 415.5 168.5 c 128
 427.166666667 188.833333333 442 208 460 226 c 1
 451.333333333 231.333333333 442 235.166666667 432 237.5 c 128
 422 239.833333333 411 241 399 241 c 1
 380 162 l 2
 370 111.333333333 348.333333333 71.6666666667 315 43 c 128
 281.666666667 14.3333333333 238.333333333 0 185 0 c 0
 133.666666667 0 93.8333333333 8.16666666667 65.5 24.5 c 128
 37.1666666667 40.8333333333 23 64.6666666667 23 96 c 0
 23 106 23.6666666667 113.666666667 25 119 c 0
 33.6666666667 157.666666667 48.6666666667 189 70 213 c 128
 91.3333333333 237 122.666666667 254.666666667 164 266 c 1
 172 305 l 2
 181.333333333 349 197.333333333 383 220 407 c 0
 246.666666667 435.666666667 281.666666667 450 325 450 c 0
 348.333333333 450 370 447 390 441 c 128
 410 435 427 432 441 432 c 0
 453.666666667 432 463.833333333 432.833333333 471.5 434.5 c 128
 479.166666667 436.166666667 488.666666667 440 500 446 c 0
 506 449.333333333 511.666666667 451 517 451 c 0
 524.333333333 451 528 447.666666667 528 441 c 0
 528 428.333333333 518.333333333 418 499 410 c 0
 474.333333333 399.333333333 454 380.333333333 438 353 c 0
 433.333333333 345 428.833333333 335.333333333 424.5 324 c 128
 420.166666667 312.666666667 415.666666667 298.333333333 411 281 c 1
 419 281.666666667 425.833333333 282.166666667 431.5 282.5 c 128
 437.166666667 282.833333333 441.666666667 283 445 283 c 0
 457.666666667 283 470.5 282.166666667 483.5 280.5 c 128
 496.5 278.833333333 511 276.666666667 527 274 c 1
 553.666666667 288 580.333333333 298.333333333 607 305 c 128
 633.666666667 311.666666667 658 315 680 315 c 0
 728.666666667 315 765 303.666666667 789 281 c 0
 811 260.333333333 822 232.333333333 822 197 c 0
 822 186 822 186 822 175 c 0
 820 167.666666667 818.666666667 162.666666667 818 160 c 0
 814 139.333333333 802.666666667 116.666666667 784 92 c 0
 762 62 739.666666667 44.6666666667 717 40 c 1
 729 38 746.833333333 36.6666666667 770.5 36 c 128
 794.166666667 35.3333333333 821.333333333 35 852 35 c 0
 876.666666667 35 896.5 36.5 911.5 39.5 c 128
 926.5 42.5 942.333333333 48 959 56 c 0
 969 60.6666666667 978.333333333 63 987 63 c 0
 1001 63 1008 57.3333333333 1008 46 c 0
 1008 35.3333333333 999.333333333 26 982 18 c 0
498 125 m 0
 498.666666667 129.666666667 500.666666667 137.666666667 504 149 c 128
 507.333333333 160.333333333 509 168.666666667 509 174 c 0
 509 181.333333333 508 187.5 506 192.5 c 128
 504 197.5 499.333333333 203 492 209 c 1
 476.666666667 194.333333333 464 178.666666667 454 162 c 0
 442 142 434 122.833333333 430 104.5 c 128
 426 86.1666666667 424 73.6666666667 424 67 c 0
 424 57.6666666667 426 51.6666666667 430 49 c 128
 434 46.3333333333 439 45 445 45 c 0
 454.333333333 45 464.666666667 54.1666666667 476 72.5 c 128
 487.333333333 90.8333333333 494.666666667 108.333333333 498 125 c 0
365 401 m 1
 356.333333333 403.666666667 349.166666667 405.833333333 343.5 407.5 c 128
 337.833333333 409.166666667 328 410 314 410 c 0
 297.333333333 410 283.666666667 407.833333333 273 403.5 c 128
 262.333333333 399.166666667 252.333333333 391 243 379 c 0
 229 361.666666667 216 326.666666667 204 274 c 1
 210.666666667 275.333333333 226 276.833333333 250 278.5 c 128
 274 280.166666667 291.333333333 281 302 281 c 1
 310 308.333333333 318.666666667 330.666666667 328 348 c 0
 333.333333333 357.333333333 338.666666667 365.833333333 344 373.5 c 128
 349.333333333 381.166666667 356.333333333 390.333333333 365 401 c 1
290 240 m 1
 257.333333333 240 230.333333333 234.833333333 209 224.5 c 128
 187.666666667 214.166666667 171.166666667 199.166666667 159.5 179.5 c 128
 147.833333333 159.833333333 139.333333333 137.333333333 134 112 c 0
 132 100.666666667 131 91.3333333333 131 84 c 0
 131 54.6666666667 147.333333333 40 180 40 c 0
 210.666666667 40 233.666666667 55 249 85 c 0
 255.666666667 98.3333333333 263.333333333 125 272 165 c 0
 276 184.333333333 278.666666667 197.333333333 280 204 c 128
 281.333333333 210.666666667 284.666666667 222.666666667 290 240 c 1
EndSplineSet
EndChar

StartChar: u0B95_u0BC2.old
Encoding: 58 -1 58
Width: 941
Flags: HW
AnchorPoint: "V" 454.5 455 basechar 0
AnchorPoint: "N" 454.5 -4 basechar 0
LayerCount: 2
Fore
SplineSet
529 230 m 1
 538.333333333 241.333333333 554.5 250.5 577.5 257.5 c 128
 600.5 264.5 630.666666667 268 668 268 c 0
 702 268 730 261 752 247 c 0
 778 230.333333333 791 207 791 177 c 0
 791 169.666666667 790 161.333333333 788 152 c 0
 783.333333333 128.666666667 770 105.333333333 748 82 c 0
 730.666666667 64 710.666666667 48.3333333333 688 35 c 1
 848 35 l 1
 841 0 l 1
 578 0 l 1
 585 35 l 1
 610.333333333 47 632.333333333 60.6666666667 651 76 c 0
 679 98.6666666667 695.666666667 122.333333333 701 147 c 0
 702.333333333 155 703 160.666666667 703 164 c 0
 703 182 696.5 196.833333333 683.5 208.5 c 128
 670.5 220.166666667 653.666666667 226 633 226 c 0
 607.666666667 226 585.333333333 221.666666667 566 213 c 128
 546.666666667 204.333333333 534 193.666666667 528 181 c 1
 490 0 l 1
 415 0 l 1
 463 225 l 1
 364 225 l 1
 339 106 l 2
 333 78.6666666667 310.666666667 54.1666666667 272 32.5 c 128
 233.333333333 10.8333333333 194.333333333 0 155 0 c 0
 114.333333333 0 83.3333333333 8 62 24 c 0
 38 42 26 68.3333333333 26 103 c 0
 26 114 26 114 26 125 c 0
 28 132.333333333 29.3333333333 137.666666667 30 141 c 0
 38 177.666666667 56.6666666667 207.666666667 86 231 c 0
 109.333333333 249.666666667 129.333333333 259 146 259 c 1
 187 450 l 1
 512 450 l 1
 504 415 l 1
 404 415 l 1
 371 260 l 1
 494 260 l 2
 502 260 509.666666667 257.666666667 517 253 c 128
 524.333333333 248.333333333 528.333333333 240.666666667 529 230 c 1
296 260 m 1
 329 415 l 1
 214 415 l 1
 181 260 l 1
 296 260 l 1
263 103 m 2
 289 225 l 1
 158 225 l 2
 142 225 125.333333333 218.666666667 108 206 c 0
 85.3333333333 188.666666667 70.3333333333 164 63 132 c 0
 61 122 60 112.666666667 60 104 c 0
 60 58 90.3333333333 35 151 35 c 0
 171.666666667 35 194.5 42 219.5 56 c 128
 244.5 70 259 85.6666666667 263 103 c 2
EndSplineSet
EndChar

StartChar: u0B95_u0BCD
Encoding: 59 -1 59
Width: 668
Flags: HW
AnchorPoint: "N" 454.5 -4 basechar 0
LayerCount: 2
Fore
SplineSet
517 587 m 0
 513 569.666666667 503.833333333 555 489.5 543 c 128
 475.166666667 531 459.333333333 525 442 525 c 0
 426.666666667 525 414.333333333 529.333333333 405 538 c 128
 395.666666667 546.666666667 391 558.666666667 391 574 c 0
 391 576 392.166666667 583.166666667 394.5 595.5 c 128
 396.833333333 607.833333333 405.166666667 620 419.5 632 c 128
 433.833333333 644 450 650 468 650 c 0
 483.333333333 650 495.5 645.5 504.5 636.5 c 128
 513.5 627.5 518 615.333333333 518 600 c 0
 518 594 517.666666667 589.666666667 517 587 c 0
580 150 m 0
 570.666666667 106 551.333333333 70 522 42 c 0
 490 11.3333333333 451.333333333 -4 406 -4 c 0
 394 -4 388 0.333333333333 388 9 c 0
 388 14.3333333333 390.666666667 18.6666666667 396 22 c 0
 416.666666667 34.6666666667 434 55.6666666667 448 85 c 0
 457.333333333 105.666666667 465 129 471 155 c 0
 471.666666667 160.333333333 472.5 165.666666667 473.5 171 c 128
 474.5 176.333333333 475 181.666666667 475 187 c 0
 475 223 449.666666667 241 399 241 c 1
 380 162 l 2
 370 111.333333333 348.333333333 71.6666666667 315 43 c 128
 281.666666667 14.3333333333 238.333333333 0 185 0 c 0
 133.666666667 0 93.8333333333 8.16666666667 65.5 24.5 c 128
 37.1666666667 40.8333333333 23 64.6666666667 23 96 c 0
 23 106 23.6666666667 113.666666667 25 119 c 0
 33.6666666667 157.666666667 48.6666666667 189 70 213 c 128
 91.3333333333 237 122.666666667 254.666666667 164 266 c 1
 172 305 l 2
 181.333333333 349 197.333333333 383 220 407 c 0
 246.666666667 435.666666667 281.666666667 450 325 450 c 0
 348.333333333 450 370 447 390 441 c 128
 410 435 427 432 441 432 c 0
 453.666666667 432 463.833333333 432.833333333 471.5 434.5 c 128
 479.166666667 436.166666667 488.666666667 440 500 446 c 0
 506 449.333333333 511.666666667 451 517 451 c 0
 524.333333333 451 528 447.666666667 528 441 c 0
 528 428.333333333 518.333333333 418 499 410 c 0
 474.333333333 399.333333333 454 380.333333333 438 353 c 0
 433.333333333 345 428.833333333 335.333333333 424.5 324 c 128
 420.166666667 312.666666667 415.666666667 298.333333333 411 281 c 1
 465.666666667 281 508 273 538 257 c 128
 568 241 583 215.333333333 583 180 c 0
 583 171.333333333 582 161.333333333 580 150 c 0
365 401 m 1
 356.333333333 403.666666667 349.166666667 405.833333333 343.5 407.5 c 128
 337.833333333 409.166666667 328 410 314 410 c 0
 297.333333333 410 283.666666667 407.833333333 273 403.5 c 128
 262.333333333 399.166666667 252.333333333 391 243 379 c 0
 229 361.666666667 216 326.666666667 204 274 c 1
 210.666666667 275.333333333 226 276.833333333 250 278.5 c 128
 274 280.166666667 291.333333333 281 302 281 c 1
 310 308.333333333 318.666666667 330.666666667 328 348 c 0
 333.333333333 357.333333333 338.666666667 365.833333333 344 373.5 c 128
 349.333333333 381.166666667 356.333333333 390.333333333 365 401 c 1
290 240 m 1
 257.333333333 240 230.333333333 234.833333333 209 224.5 c 128
 187.666666667 214.166666667 171.166666667 199.166666667 159.5 179.5 c 128
 147.833333333 159.833333333 139.333333333 137.333333333 134 112 c 0
 132 100.666666667 131 91.3333333333 131 84 c 0
 131 54.6666666667 147.333333333 40 180 40 c 0
 210.666666667 40 233.666666667 55 249 85 c 0
 255.666666667 98.3333333333 263.333333333 125 272 165 c 0
 276 184.333333333 278.666666667 197.333333333 280 204 c 128
 281.333333333 210.666666667 284.666666667 222.666666667 290 240 c 1
EndSplineSet
EndChar

StartChar: u0B99
Encoding: 60 2969 60
Width: 838
Flags: HW
AnchorPoint: "V" 454.5 455 basechar 0
AnchorPoint: "N" 454.5 -5.78459 basechar 0
LayerCount: 2
Fore
SplineSet
811 439 m 0
 799.666666667 423 789.666666667 405.666666667 781 387 c 128
 772.333333333 368.333333333 765.333333333 347.333333333 760 324 c 2
 721 143 l 2
 711 95.6666666667 689.333333333 58.6666666667 656 32 c 128
 622.666666667 5.33333333333 584.666666667 -8 542 -8 c 1
 522 -5.33333333333 506 -3.66666666667 494 -3 c 0
 456.666666667 0.333333333333 424.666666667 2 398 2 c 0
 380 2 364.333333333 1 351 -1 c 0
 343 -2.33333333333 336.166666667 -1.66666666667 330.5 1 c 128
 324.833333333 3.66666666667 322 8 322 14 c 0
 322 24.6666666667 332 37.6666666667 352 53 c 0
 364 61.6666666667 374.5 73.6666666667 383.5 89 c 128
 392.5 104.333333333 399.666666667 123.666666667 405 147 c 0
 407 154.333333333 408.166666667 162.166666667 408.5 170.5 c 128
 408.833333333 178.833333333 409.333333333 185.666666667 410 191 c 0
 410 229 397 248 371 248 c 0
 359 248 344.333333333 243 327 233 c 1
 303 132 l 2
 293 86.6666666667 272.666666667 51.6666666667 242 27 c 0
 216 6.33333333333 186.666666667 -4 154 -4 c 0
 142 -4 136 -0.666666666667 136 6 c 0
 136 10 138.666666667 15.3333333333 144 22 c 0
 156 38 166.333333333 55.1666666667 175 73.5 c 128
 183.666666667 91.8333333333 190 111 194 131 c 128
 198 151 204.333333333 178 213 212 c 0
 218.333333333 234.666666667 224.166666667 257.666666667 230.5 281 c 128
 236.833333333 304.333333333 245.333333333 325.5 256 344.5 c 128
 266.666666667 363.5 279.666666667 382.333333333 295 401 c 1
 285.666666667 403.666666667 277.666666667 405.833333333 271 407.5 c 128
 264.333333333 409.166666667 253.333333333 410 238 410 c 0
 212.666666667 410 191.833333333 400.833333333 175.5 382.5 c 128
 159.166666667 364.166666667 146.333333333 331.666666667 137 285 c 0
 121.666666667 214.333333333 108.333333333 162 97 128 c 0
 82.3333333333 82.6666666667 63.3333333333 44.6666666667 40 14 c 0
 31.3333333333 3.33333333333 22.3333333333 -2 13 -2 c 0
 5.66666666667 -2 2 1.66666666667 2 9 c 0
 2 14.3333333333 5 21 11 29 c 0
 36.3333333333 62.3333333333 57.3333333333 113.333333333 74 182 c 0
 80 205.333333333 89 246.333333333 101 305 c 0
 110.333333333 349 127.5 384.166666667 152.5 410.5 c 128
 177.5 436.833333333 209.666666667 450 249 450 c 0
 271.666666667 450 294 447 316 441 c 128
 338 435 356 432 370 432 c 0
 382.666666667 432 392.833333333 432.833333333 400.5 434.5 c 128
 408.166666667 436.166666667 417.666666667 440 429 446 c 0
 435 449.333333333 440.666666667 451 446 451 c 0
 453.333333333 451 457 447.666666667 457 441 c 0
 457 428.333333333 446.5 417.666666667 425.5 409 c 128
 404.5 400.333333333 386.666666667 383.666666667 372 359 c 0
 360.666666667 339.666666667 349 311 337 273 c 1
 367 289 396.333333333 297 425 297 c 256
 453.666666667 297 476.666666667 288.666666667 494 272 c 128
 511.333333333 255.333333333 520 230.333333333 520 197 c 0
 520 185.666666667 519.666666667 177.666666667 519 173 c 128
 518.333333333 168.333333333 517 161.333333333 515 152 c 0
 510.333333333 128 496.333333333 104.333333333 473 81 c 0
 454.333333333 61.6666666667 436.333333333 48.3333333333 419 41 c 1
 431.666666667 39 442.666666667 37.3333333333 452 36 c 128
 461.333333333 34.6666666667 471 34 481 34 c 0
 494.333333333 34 506.666666667 35.1666666667 518 37.5 c 128
 529.333333333 39.8333333333 542.666666667 44 558 50 c 0
 577.333333333 58 593.333333333 81.6666666667 606 121 c 0
 610 133.666666667 614.333333333 152 619 176 c 2
 652 327 l 2
 661.333333333 372.333333333 681.333333333 407.333333333 712 432 c 0
 739.333333333 454 769 465 801 465 c 0
 813 465 819 461.666666667 819 455 c 0
 819 451 816.333333333 445.666666667 811 439 c 0
EndSplineSet
EndChar

StartChar: u0B99_u0BBF
Encoding: 61 -1 61
Width: 959
Flags: HW
AnchorPoint: "V" 454.5 455 basechar 0
AnchorPoint: "N" 454.5 -5.78459 basechar 0
LayerCount: 2
Fore
SplineSet
680 397 m 1
 670.666666667 411 664.166666667 424.5 660.5 437.5 c 128
 656.833333333 450.5 655 464.666666667 655 480 c 256
 655 495.333333333 657 513 661 533 c 0
 670.333333333 576.333333333 689 610.666666667 717 636 c 0
 749 664.666666667 790 679 840 679 c 0
 878 679 906.333333333 669 925 649 c 128
 943.666666667 629 953 601 953 565 c 0
 953 545 950.666666667 524 946 502 c 128
 941.333333333 480 934 456.666666667 924 432 c 0
 917.333333333 415.333333333 906.333333333 391.333333333 891 360 c 0
 890.333333333 358 890 355.833333333 890 353.5 c 128
 890 350 890 350 890 349 c 0
 890 344.333333333 891.833333333 338 895.5 330 c 128
 899.166666667 322 900.333333333 314.333333333 899 307 c 0
 897.666666667 301 894 295.333333333 888 290 c 128
 882 284.666666667 875.666666667 282 869 282 c 0
 861.666666667 282 855.666666667 285.333333333 851 292 c 128
 846.333333333 298.666666667 844 306 844 314 c 0
 844 316.666666667 844.666666667 320.666666667 846 326 c 0
 866.666666667 374.666666667 887.666666667 423.666666667 909 473 c 0
 911.666666667 484.333333333 913 496 913 508 c 0
 913 533.333333333 905.833333333 552.833333333 891.5 566.5 c 128
 877.166666667 580.166666667 854.333333333 587 823 587 c 0
 787 587 758.166666667 578.166666667 736.5 560.5 c 128
 714.833333333 542.833333333 701 519.666666667 695 491 c 0
 694.333333333 487.666666667 693.833333333 483.666666667 693.5 479 c 128
 693.166666667 474.333333333 693 470.666666667 693 468 c 0
 693 450 696.333333333 435.333333333 703 424 c 1
 717.666666667 437.333333333 733.333333333 447.5 750 454.5 c 128
 766.666666667 461.5 783.666666667 465 801 465 c 0
 813 465 819 461.666666667 819 455 c 0
 819 451 816.333333333 445.666666667 811 439 c 0
 799.666666667 423 789.666666667 405.666666667 781 387 c 128
 772.333333333 368.333333333 765.333333333 347.333333333 760 324 c 2
 721 143 l 2
 711 95.6666666667 689.333333333 58.6666666667 656 32 c 128
 622.666666667 5.33333333333 584.666666667 -8 542 -8 c 1
 522 -5.33333333333 506 -3.66666666667 494 -3 c 0
 456.666666667 0.333333333333 424.666666667 2 398 2 c 0
 380 2 364.333333333 1 351 -1 c 0
 343 -2.33333333333 336.166666667 -1.66666666667 330.5 1 c 128
 324.833333333 3.66666666667 322 8 322 14 c 0
 322 24.6666666667 332 37.6666666667 352 53 c 0
 364 61.6666666667 374.5 73.6666666667 383.5 89 c 128
 392.5 104.333333333 399.666666667 123.666666667 405 147 c 0
 407 154.333333333 408.166666667 162.166666667 408.5 170.5 c 128
 408.833333333 178.833333333 409.333333333 185.666666667 410 191 c 0
 410 229 397 248 371 248 c 0
 359 248 344.333333333 243 327 233 c 1
 303 132 l 2
 293 86.6666666667 272.666666667 51.6666666667 242 27 c 0
 216 6.33333333333 186.666666667 -4 154 -4 c 0
 142 -4 136 -0.666666666667 136 6 c 0
 136 10 138.666666667 15.3333333333 144 22 c 0
 156 38 166.333333333 55.1666666667 175 73.5 c 128
 183.666666667 91.8333333333 190 111 194 131 c 128
 198 151 204.333333333 178 213 212 c 0
 218.333333333 234.666666667 224.166666667 257.666666667 230.5 281 c 128
 236.833333333 304.333333333 245.333333333 325.5 256 344.5 c 128
 266.666666667 363.5 279.666666667 382.333333333 295 401 c 1
 285.666666667 403.666666667 277.666666667 405.833333333 271 407.5 c 128
 264.333333333 409.166666667 253.333333333 410 238 410 c 0
 212.666666667 410 191.833333333 400.833333333 175.5 382.5 c 128
 159.166666667 364.166666667 146.333333333 331.666666667 137 285 c 0
 121.666666667 214.333333333 108.333333333 162 97 128 c 0
 82.3333333333 82.6666666667 63.3333333333 44.6666666667 40 14 c 0
 31.3333333333 3.33333333333 22.3333333333 -2 13 -2 c 0
 5.66666666667 -2 2 1.66666666667 2 9 c 0
 2 14.3333333333 5 21 11 29 c 0
 36.3333333333 62.3333333333 57.3333333333 113.333333333 74 182 c 0
 80 205.333333333 89 246.333333333 101 305 c 0
 110.333333333 349 127.5 384.166666667 152.5 410.5 c 128
 177.5 436.833333333 209.666666667 450 249 450 c 0
 271.666666667 450 294 447 316 441 c 128
 338 435 356 432 370 432 c 0
 382.666666667 432 392.833333333 432.833333333 400.5 434.5 c 128
 408.166666667 436.166666667 417.666666667 440 429 446 c 0
 435 449.333333333 440.666666667 451 446 451 c 0
 453.333333333 451 457 447.666666667 457 441 c 0
 457 428.333333333 446.5 417.666666667 425.5 409 c 128
 404.5 400.333333333 386.666666667 383.666666667 372 359 c 0
 360.666666667 339.666666667 349 311 337 273 c 1
 367 289 396.333333333 297 425 297 c 256
 453.666666667 297 476.666666667 288.666666667 494 272 c 128
 511.333333333 255.333333333 520 230.333333333 520 197 c 0
 520 185.666666667 519.666666667 177.666666667 519 173 c 128
 518.333333333 168.333333333 517 161.333333333 515 152 c 0
 510.333333333 128 496.333333333 104.333333333 473 81 c 0
 454.333333333 61.6666666667 436.333333333 48.3333333333 419 41 c 1
 431.666666667 39 442.666666667 37.3333333333 452 36 c 128
 461.333333333 34.6666666667 471 34 481 34 c 0
 494.333333333 34 506.666666667 35.1666666667 518 37.5 c 128
 529.333333333 39.8333333333 542.666666667 44 558 50 c 0
 577.333333333 58 593.333333333 81.6666666667 606 121 c 0
 610 133.666666667 614.333333333 152 619 176 c 2
 652 327 l 2
 656.666666667 353 666 376.333333333 680 397 c 1
EndSplineSet
EndChar

StartChar: u0B99_u0BC0
Encoding: 62 -1 62
Width: 838
Flags: HW
AnchorPoint: "V" 454.5 680.394 basechar 0
AnchorPoint: "N" 454.5 -5.78459 basechar 0
LayerCount: 2
Fore
SplineSet
496 578 m 0
 496.666666667 580 497 583.333333333 497 588 c 0
 497 606.666666667 487.333333333 616 468 616 c 0
 456.666666667 616 447 612.666666667 439 606 c 128
 431 599.333333333 425.333333333 590.666666667 422 580 c 0
 421.333333333 578 421 574.666666667 421 570 c 0
 421 551.333333333 430.666666667 542 450 542 c 0
 462 542 472 545.333333333 480 552 c 128
 488 558.666666667 493.333333333 567.333333333 496 578 c 0
238 410 m 1
 212.666666667 410 191.833333333 400.833333333 175.5 382.5 c 128
 159.166666667 364.166666667 146.333333333 331.666666667 137 285 c 0
 121.666666667 214.333333333 108.333333333 162 97 128 c 0
 82.3333333333 82.6666666667 63.3333333333 44.6666666667 40 14 c 0
 31.3333333333 3.33333333333 22.3333333333 -2 13 -2 c 0
 5.66666666667 -2 2 1.66666666667 2 9 c 0
 2 14.3333333333 5 21 11 29 c 0
 36.3333333333 62.3333333333 57.3333333333 113.333333333 74 182 c 0
 80 205.333333333 89 246.333333333 101 305 c 0
 110.333333333 349 127.5 384.166666667 152.5 410.5 c 128
 177.5 436.833333333 209.666666667 450 249 450 c 0
 265 450 275.333333333 449.833333333 280 449.5 c 128
 284.666666667 449.166666667 289 448.333333333 293 447 c 1
 286.333333333 463.666666667 283 481 283 499 c 0
 283 510 283 510 283 521 c 0
 285 528.333333333 286.333333333 533.333333333 287 536 c 0
 295.666666667 576.666666667 317.333333333 610.666666667 352 638 c 0
 390.666666667 668 437.666666667 683 493 683 c 0
 524.333333333 683 551 675.833333333 573 661.5 c 128
 595 647.166666667 606 628 606 604 c 0
 606 601.333333333 605.333333333 596 604 588 c 0
 600 567.333333333 588.333333333 547.666666667 569 529 c 0
 543.666666667 504.333333333 513 492 477 492 c 0
 444.333333333 492 421 498.166666667 407 510.5 c 128
 393 522.833333333 386 538.666666667 386 558 c 0
 386 566 387.333333333 574.666666667 390 584 c 128
 392.666666667 593.333333333 396 601.666666667 400 609 c 1
 380.666666667 603.666666667 364.333333333 593.166666667 351 577.5 c 128
 337.666666667 561.833333333 329 545.333333333 325 528 c 0
 323.666666667 520 323 513.666666667 323 509 c 0
 323 494.333333333 325.5 480.833333333 330.5 468.5 c 128
 335.5 456.166666667 343 444.333333333 353 433 c 1
 370 432 l 2
 382.666666667 432 392.833333333 432.833333333 400.5 434.5 c 128
 408.166666667 436.166666667 417.666666667 440 429 446 c 0
 435 449.333333333 440.666666667 451 446 451 c 0
 453.333333333 451 457 447.666666667 457 441 c 0
 457 428.333333333 446.5 417.666666667 425.5 409 c 128
 404.5 400.333333333 386.666666667 383.666666667 372 359 c 0
 360.666666667 339.666666667 349 311 337 273 c 1
 367 289 396.333333333 297 425 297 c 256
 453.666666667 297 476.666666667 288.666666667 494 272 c 128
 511.333333333 255.333333333 520 230.333333333 520 197 c 0
 520 185.666666667 519.666666667 177.666666667 519 173 c 128
 518.333333333 168.333333333 517 161.333333333 515 152 c 0
 510.333333333 128 496.333333333 104.333333333 473 81 c 0
 454.333333333 61.6666666667 436.333333333 48.3333333333 419 41 c 1
 431.666666667 39 442.666666667 37.3333333333 452 36 c 128
 461.333333333 34.6666666667 471 34 481 34 c 0
 494.333333333 34 506.666666667 35.1666666667 518 37.5 c 128
 529.333333333 39.8333333333 542.666666667 44 558 50 c 0
 577.333333333 58 593.333333333 81.6666666667 606 121 c 0
 610 133.666666667 614.333333333 152 619 176 c 2
 652 327 l 2
 661.333333333 372.333333333 681.333333333 407.333333333 712 432 c 0
 739.333333333 454 769 465 801 465 c 0
 813 465 819 461.666666667 819 455 c 0
 819 451 816.333333333 445.666666667 811 439 c 0
 799.666666667 423 789.666666667 405.666666667 781 387 c 128
 772.333333333 368.333333333 765.333333333 347.333333333 760 324 c 2
 721 143 l 2
 711 95.6666666667 689.333333333 58.6666666667 656 32 c 128
 622.666666667 5.33333333333 584.666666667 -8 542 -8 c 1
 522 -5.33333333333 506 -3.66666666667 494 -3 c 0
 456.666666667 0.333333333333 424.666666667 2 398 2 c 0
 380 2 364.333333333 1 351 -1 c 0
 343 -2.33333333333 336.166666667 -1.66666666667 330.5 1 c 128
 324.833333333 3.66666666667 322 8 322 14 c 0
 322 24.6666666667 332 37.6666666667 352 53 c 0
 364 61.6666666667 374.5 73.6666666667 383.5 89 c 128
 392.5 104.333333333 399.666666667 123.666666667 405 147 c 0
 407 154.333333333 408.166666667 162.166666667 408.5 170.5 c 128
 408.833333333 178.833333333 409.333333333 185.666666667 410 191 c 0
 410 229 397 248 371 248 c 0
 359 248 344.333333333 243 327 233 c 1
 303 132 l 2
 293 86.6666666667 272.666666667 51.6666666667 242 27 c 0
 216 6.33333333333 186.666666667 -4 154 -4 c 0
 142 -4 136 -0.666666666667 136 6 c 0
 136 10 138.666666667 15.3333333333 144 22 c 0
 156 38 166.333333333 55.1666666667 175 73.5 c 128
 183.666666667 91.8333333333 190 111 194 131 c 128
 198 151 204.333333333 178 213 212 c 0
 218.333333333 234.666666667 224.333333333 258.333333333 231 283 c 1
 238 410 l 1
EndSplineSet
EndChar

StartChar: u0B99_u0BC1
Encoding: 63 -1 63
Width: 838
Flags: HW
AnchorPoint: "V" 454.5 455 basechar 0
AnchorPoint: "N" 454.5 -5.78459 basechar 0
LayerCount: 2
Fore
SplineSet
811 439 m 0
 787 407 770.333333333 368.666666667 761 324 c 2
 680 -54 l 2
 670 -99.3333333333 649.666666667 -134.333333333 619 -159 c 0
 592.333333333 -180.333333333 562.666666667 -191 530 -191 c 0
 518 -191 512 -187.666666667 512 -181 c 0
 512 -177 514.666666667 -171.666666667 520 -165 c 0
 530.666666667 -151 539.666666667 -137 547 -123 c 0
 557 -103 564.666666667 -81 570 -57 c 2
 581 -4 l 1
 570.333333333 -6.66666666667 557.333333333 -8 542 -8 c 0
 522 -5.33333333333 506 -3.66666666667 494 -3 c 0
 456.666666667 0.333333333333 424.666666667 2 398 2 c 0
 380 2 364.333333333 1 351 -1 c 0
 343 -2.33333333333 336.166666667 -1.66666666667 330.5 1 c 128
 324.833333333 3.66666666667 322 8 322 14 c 0
 322 24.6666666667 332 37.6666666667 352 53 c 0
 364 61.6666666667 374.5 73.6666666667 383.5 89 c 128
 392.5 104.333333333 399.666666667 123.666666667 405 147 c 0
 407 154.333333333 408.166666667 162.166666667 408.5 170.5 c 128
 408.833333333 178.833333333 409.333333333 185.666666667 410 191 c 0
 410 229 397 248 371 248 c 0
 359 248 344.333333333 243 327 233 c 1
 303 132 l 2
 293 86.6666666667 272.666666667 51.6666666667 242 27 c 0
 216 6.33333333333 186.666666667 -4 154 -4 c 0
 142 -4 136 -0.666666666667 136 6 c 0
 136 10 138.666666667 15.3333333333 144 22 c 0
 156 38 166.333333333 55.1666666667 175 73.5 c 128
 183.666666667 91.8333333333 190 111 194 131 c 128
 198 151 204.333333333 178 213 212 c 0
 218.333333333 234.666666667 224.166666667 257.666666667 230.5 281 c 128
 236.833333333 304.333333333 245.333333333 325.5 256 344.5 c 128
 266.666666667 363.5 279.666666667 382.333333333 295 401 c 1
 285.666666667 403.666666667 277.666666667 405.833333333 271 407.5 c 128
 264.333333333 409.166666667 253.333333333 410 238 410 c 0
 212.666666667 410 191.833333333 400.833333333 175.5 382.5 c 128
 159.166666667 364.166666667 146.333333333 331.666666667 137 285 c 0
 121.666666667 214.333333333 108.333333333 162 97 128 c 0
 82.3333333333 82.6666666667 63.3333333333 44.6666666667 40 14 c 0
 31.3333333333 3.33333333333 22.3333333333 -2 13 -2 c 0
 5.66666666667 -2 2 1.66666666667 2 9 c 0
 2 14.3333333333 5 21 11 29 c 0
 36.3333333333 62.3333333333 57.3333333333 113.333333333 74 182 c 0
 80 205.333333333 89 246.333333333 101 305 c 0
 110.333333333 349 127.5 384.166666667 152.5 410.5 c 128
 177.5 436.833333333 209.666666667 450 249 450 c 0
 271.666666667 450 294 447 316 441 c 128
 338 435 356 432 370 432 c 0
 382.666666667 432 392.833333333 432.833333333 400.5 434.5 c 128
 408.166666667 436.166666667 417.666666667 440 429 446 c 0
 435 449.333333333 440.666666667 451 446 451 c 0
 453.333333333 451 457 447.666666667 457 441 c 0
 457 428.333333333 446.5 417.666666667 425.5 409 c 128
 404.5 400.333333333 386.666666667 383.666666667 372 359 c 0
 360.666666667 339.666666667 349 311 337 273 c 1
 367 289 396.333333333 297 425 297 c 256
 453.666666667 297 476.666666667 288.666666667 494 272 c 128
 511.333333333 255.333333333 520 230.333333333 520 197 c 0
 520 185.666666667 519.666666667 177.666666667 519 173 c 128
 518.333333333 168.333333333 517 161.333333333 515 152 c 0
 510.333333333 128 496.333333333 104.333333333 473 81 c 0
 454.333333333 61.6666666667 436.333333333 48.3333333333 419 41 c 1
 445.666666667 35.6666666667 468 33 486 33 c 0
 508.666666667 33 532.333333333 38 557 48 c 0
 575.666666667 55.3333333333 590.333333333 73.6666666667 601 103 c 0
 606.333333333 117.666666667 612.333333333 142 619 176 c 2
 652 327 l 2
 661.333333333 372.333333333 681.333333333 407.333333333 712 432 c 0
 739.333333333 454 769 465 801 465 c 0
 813 465 819 461.666666667 819 455 c 0
 819 451 816.333333333 445.666666667 811 439 c 0
EndSplineSet
EndChar

StartChar: u0B99_u0BC2
Encoding: 64 -1 64
Width: 996
Flags: HW
AnchorPoint: "V" 454.5 455 basechar 0
AnchorPoint: "N" 454.5 -5.78459 basechar 0
LayerCount: 2
Fore
SplineSet
712 105 m 1
 732.666666667 115.666666667 756 121 782 121 c 0
 810 121 833.333333333 113.833333333 852 99.5 c 128
 870.666666667 85.1666666667 880 62.6666666667 880 32 c 0
 880 28 879.5 22.6666666667 878.5 16 c 128
 877.5 9.33333333333 876.666666667 4.33333333333 876 1 c 0
 856.666666667 -91.6666666667 805.666666667 -157.333333333 723 -196 c 0
 649.666666667 -230 540 -247 394 -247 c 0
 284 -247 204.666666667 -237.666666667 156 -219 c 0
 114 -203 93 -180.666666667 93 -152 c 0
 93 -148.666666667 93.6666666667 -143.666666667 95 -137 c 0
 99 -119.666666667 110.166666667 -105.166666667 128.5 -93.5 c 128
 146.833333333 -81.8333333333 168.333333333 -76 193 -76 c 0
 218.333333333 -76 244 -82.3333333333 270 -95 c 0
 274.666666667 -97.6666666667 277 -100.333333333 277 -103 c 0
 277 -107.666666667 271.666666667 -110 261 -110 c 0
 255 -110 250.333333333 -109.333333333 247 -108 c 0
 227.666666667 -102.666666667 209.666666667 -100 193 -100 c 0
 174.333333333 -100 159 -102.833333333 147 -108.5 c 128
 135 -114.166666667 127.666666667 -123.333333333 125 -136 c 0
 118.333333333 -168 149.666666667 -189 219 -199 c 0
 256.333333333 -204.333333333 318 -207 404 -207 c 0
 497.333333333 -207 575.666666667 -191 639 -159 c 0
 709 -123.666666667 751.333333333 -71.6666666667 766 -3 c 0
 768 5 769 12.6666666667 769 20 c 0
 769 50.6666666667 756.666666667 66 732 66 c 0
 722.666666667 66 713 63.6666666667 703 59 c 1
 696 27 l 2
 686 -18.3333333333 665.666666667 -53.3333333333 635 -78 c 0
 608.333333333 -99.3333333333 579 -110 547 -110 c 0
 535 -110 529 -106.333333333 529 -99 c 0
 529 -94.3333333333 531.333333333 -89.3333333333 536 -84 c 0
 547.333333333 -69.3333333333 557.166666667 -54 565.5 -38 c 128
 573.833333333 -22 579 -9.66666666667 581 -1 c 1
 575 -4.33333333333 569.166666667 -6.33333333333 563.5 -7 c 128
 557.833333333 -7.66666666667 550.666666667 -8 542 -8 c 0
 522 -5.33333333333 506 -3.66666666667 494 -3 c 0
 456.666666667 0.333333333333 424.666666667 2 398 2 c 0
 380 2 364.333333333 1 351 -1 c 0
 343 -2.33333333333 336.166666667 -1.66666666667 330.5 1 c 128
 324.833333333 3.66666666667 322 8 322 14 c 0
 322 24.6666666667 332 37.6666666667 352 53 c 0
 364 61.6666666667 374.5 73.6666666667 383.5 89 c 128
 392.5 104.333333333 399.666666667 123.666666667 405 147 c 0
 407 154.333333333 408.166666667 162.166666667 408.5 170.5 c 128
 408.833333333 178.833333333 409.333333333 185.666666667 410 191 c 0
 410 229 397 248 371 248 c 0
 359 248 344.333333333 243 327 233 c 1
 303 132 l 2
 293 86.6666666667 272.666666667 51.6666666667 242 27 c 0
 216 6.33333333333 186.666666667 -4 154 -4 c 0
 142 -4 136 -0.666666666667 136 6 c 0
 136 10 138.666666667 15.3333333333 144 22 c 0
 156 38 166.333333333 55.1666666667 175 73.5 c 128
 183.666666667 91.8333333333 190 111 194 131 c 128
 198 151 204.333333333 178 213 212 c 0
 218.333333333 234.666666667 224.166666667 257.666666667 230.5 281 c 128
 236.833333333 304.333333333 245.333333333 325.5 256 344.5 c 128
 266.666666667 363.5 279.666666667 382.333333333 295 401 c 1
 285.666666667 403.666666667 277.666666667 405.833333333 271 407.5 c 128
 264.333333333 409.166666667 253.333333333 410 238 410 c 0
 212.666666667 410 191.833333333 400.833333333 175.5 382.5 c 128
 159.166666667 364.166666667 146.333333333 331.666666667 137 285 c 0
 121.666666667 214.333333333 108.333333333 162 97 128 c 0
 82.3333333333 82.6666666667 63.3333333333 44.6666666667 40 14 c 0
 31.3333333333 3.33333333333 22.3333333333 -2 13 -2 c 0
 5.66666666667 -2 2 1.66666666667 2 9 c 0
 2 14.3333333333 5 21 11 29 c 0
 36.3333333333 62.3333333333 57.3333333333 113.333333333 74 182 c 0
 80 205.333333333 89 246.333333333 101 305 c 0
 110.333333333 349 127.5 384.166666667 152.5 410.5 c 128
 177.5 436.833333333 209.666666667 450 249 450 c 0
 271.666666667 450 294 447 316 441 c 128
 338 435 356 432 370 432 c 0
 382.666666667 432 392.833333333 432.833333333 400.5 434.5 c 128
 408.166666667 436.166666667 417.666666667 440 429 446 c 0
 435 449.333333333 440.666666667 451 446 451 c 0
 453.333333333 451 457 447.666666667 457 441 c 0
 457 428.333333333 446.5 417.666666667 425.5 409 c 128
 404.5 400.333333333 386.666666667 383.666666667 372 359 c 0
 360.666666667 339.666666667 349 311 337 273 c 1
 367 289 396.333333333 297 425 297 c 256
 453.666666667 297 476.666666667 288.666666667 494 272 c 128
 511.333333333 255.333333333 520 230.333333333 520 197 c 0
 520 185.666666667 519.666666667 177.666666667 519 173 c 128
 518.333333333 168.333333333 517 161.333333333 515 152 c 0
 510.333333333 128 496.333333333 104.333333333 473 81 c 0
 454.333333333 61.6666666667 436.333333333 48.3333333333 419 41 c 1
 445.666666667 35.6666666667 468 33 486 33 c 0
 508.666666667 33 532.333333333 38 557 48 c 0
 575.666666667 55.3333333333 590.333333333 73.6666666667 601 103 c 0
 606.333333333 117.666666667 612.333333333 142 619 176 c 2
 652 327 l 2
 661.333333333 372.333333333 681.333333333 407.333333333 712 432 c 0
 739.333333333 454 769 465 801 465 c 0
 813 465 819 461.666666667 819 455 c 0
 819 451 816.333333333 445.666666667 811 439 c 0
 787 407 770.333333333 368.666666667 761 324 c 2
 712 105 l 1
EndSplineSet
EndChar

StartChar: u0B99_u0BCD
Encoding: 65 -1 65
Width: 838
Flags: HW
AnchorPoint: "N" 454.5 -5.78459 basechar 0
LayerCount: 2
Fore
SplineSet
517 587 m 0
 513 569.666666667 503.833333333 555 489.5 543 c 128
 475.166666667 531 459.333333333 525 442 525 c 0
 426.666666667 525 414.333333333 529.333333333 405 538 c 128
 395.666666667 546.666666667 391 558.666666667 391 574 c 0
 391 576 392.166666667 583.166666667 394.5 595.5 c 128
 396.833333333 607.833333333 405.166666667 620 419.5 632 c 128
 433.833333333 644 450 650 468 650 c 0
 483.333333333 650 495.5 645.5 504.5 636.5 c 128
 513.5 627.5 518 615.333333333 518 600 c 0
 518 594 517.666666667 589.666666667 517 587 c 0
811 439 m 0
 799.666666667 423 789.666666667 405.666666667 781 387 c 128
 772.333333333 368.333333333 765.333333333 347.333333333 760 324 c 2
 721 143 l 2
 711 95.6666666667 689.333333333 58.6666666667 656 32 c 128
 622.666666667 5.33333333333 584.666666667 -8 542 -8 c 1
 522 -5.33333333333 506 -3.66666666667 494 -3 c 0
 456.666666667 0.333333333333 424.666666667 2 398 2 c 0
 380 2 364.333333333 1 351 -1 c 0
 343 -2.33333333333 336.166666667 -1.66666666667 330.5 1 c 128
 324.833333333 3.66666666667 322 8 322 14 c 0
 322 24.6666666667 332 37.6666666667 352 53 c 0
 364 61.6666666667 374.5 73.6666666667 383.5 89 c 128
 392.5 104.333333333 399.666666667 123.666666667 405 147 c 0
 407 154.333333333 408.166666667 162.166666667 408.5 170.5 c 128
 408.833333333 178.833333333 409.333333333 185.666666667 410 191 c 0
 410 229 397 248 371 248 c 0
 359 248 344.333333333 243 327 233 c 1
 303 132 l 2
 293 86.6666666667 272.666666667 51.6666666667 242 27 c 0
 216 6.33333333333 186.666666667 -4 154 -4 c 0
 142 -4 136 -0.666666666667 136 6 c 0
 136 10 138.666666667 15.3333333333 144 22 c 0
 156 38 166.333333333 55.1666666667 175 73.5 c 128
 183.666666667 91.8333333333 190 111 194 131 c 128
 198 151 204.333333333 178 213 212 c 0
 218.333333333 234.666666667 224.166666667 257.666666667 230.5 281 c 128
 236.833333333 304.333333333 245.333333333 325.5 256 344.5 c 128
 266.666666667 363.5 279.666666667 382.333333333 295 401 c 1
 285.666666667 403.666666667 277.666666667 405.833333333 271 407.5 c 128
 264.333333333 409.166666667 253.333333333 410 238 410 c 0
 212.666666667 410 191.833333333 400.833333333 175.5 382.5 c 128
 159.166666667 364.166666667 146.333333333 331.666666667 137 285 c 0
 121.666666667 214.333333333 108.333333333 162 97 128 c 0
 82.3333333333 82.6666666667 63.3333333333 44.6666666667 40 14 c 0
 31.3333333333 3.33333333333 22.3333333333 -2 13 -2 c 0
 5.66666666667 -2 2 1.66666666667 2 9 c 0
 2 14.3333333333 5 21 11 29 c 0
 36.3333333333 62.3333333333 57.3333333333 113.333333333 74 182 c 0
 80 205.333333333 89 246.333333333 101 305 c 0
 110.333333333 349 127.5 384.166666667 152.5 410.5 c 128
 177.5 436.833333333 209.666666667 450 249 450 c 0
 271.666666667 450 294 447 316 441 c 128
 338 435 356 432 370 432 c 0
 382.666666667 432 392.833333333 432.833333333 400.5 434.5 c 128
 408.166666667 436.166666667 417.666666667 440 429 446 c 0
 435 449.333333333 440.666666667 451 446 451 c 0
 453.333333333 451 457 447.666666667 457 441 c 0
 457 428.333333333 446.5 417.666666667 425.5 409 c 128
 404.5 400.333333333 386.666666667 383.666666667 372 359 c 0
 360.666666667 339.666666667 349 311 337 273 c 1
 367 289 396.333333333 297 425 297 c 256
 453.666666667 297 476.666666667 288.666666667 494 272 c 128
 511.333333333 255.333333333 520 230.333333333 520 197 c 0
 520 185.666666667 519.666666667 177.666666667 519 173 c 128
 518.333333333 168.333333333 517 161.333333333 515 152 c 0
 510.333333333 128 496.333333333 104.333333333 473 81 c 0
 454.333333333 61.6666666667 436.333333333 48.3333333333 419 41 c 1
 431.666666667 39 442.666666667 37.3333333333 452 36 c 128
 461.333333333 34.6666666667 471 34 481 34 c 0
 494.333333333 34 506.666666667 35.1666666667 518 37.5 c 128
 529.333333333 39.8333333333 542.666666667 44 558 50 c 0
 577.333333333 58 593.333333333 81.6666666667 606 121 c 0
 610 133.666666667 614.333333333 152 619 176 c 2
 652 327 l 2
 661.333333333 372.333333333 681.333333333 407.333333333 712 432 c 0
 739.333333333 454 769 465 801 465 c 0
 813 465 819 461.666666667 819 455 c 0
 819 451 816.333333333 445.666666667 811 439 c 0
EndSplineSet
EndChar

StartChar: u0B99_u0BCD.alt
Encoding: 66 -1 66
Width: 680
Flags: HW
AnchorPoint: "N" 454.5 -5.78459 basechar 0
LayerCount: 2
Fore
SplineSet
600 0 m 1
 150 0 l 1
 156 30 l 1
 272 30 l 1
 300.666666667 40.6666666667 324.166666667 58.1666666667 342.5 82.5 c 128
 360.833333333 106.833333333 373.333333333 134.666666667 380 166 c 0
 382 175.333333333 383 183.666666667 383 191 c 0
 383 209.666666667 377.833333333 224.166666667 367.5 234.5 c 128
 357.166666667 244.833333333 344.666666667 250 330 250 c 0
 317.333333333 250 305.666666667 246.833333333 295 240.5 c 128
 284.333333333 234.166666667 276 224 270 210 c 1
 253 130 l 1
 178 130 l 1
 238 415 l 1
 123 415 l 1
 35 0 l 1
 0 0 l 1
 96 450 l 1
 421 450 l 1
 413 415 l 1
 313 415 l 1
 282 267 l 1
 302 287 326.666666667 297 356 297 c 0
 382.666666667 297 405.5 288.166666667 424.5 270.5 c 128
 443.5 252.833333333 453 228 453 196 c 0
 453 186 453 186 453 176 c 0
 451 169.333333333 449.666666667 164.666666667 449 162 c 0
 441.666666667 127.333333333 429.333333333 99 412 77 c 128
 394.666666667 55 374 39.3333333333 350 30 c 1
 536 30 l 1
 626 450 l 1
 696 450 l 1
 600 0 l 1
479 582 m 0
 479.666666667 584 480 586.166666667 480 588.5 c 128
 480 592 480 592 480 593 c 0
 480 606.333333333 475.666666667 617.333333333 467 626 c 128
 458.333333333 634.666666667 447.333333333 639 434 639 c 0
 418.666666667 639 404.166666667 633.333333333 390.5 622 c 128
 376.833333333 610.666666667 368.333333333 597.333333333 365 582 c 0
 364.333333333 579.333333333 364 575.333333333 364 570 c 0
 364 557.333333333 368.333333333 546.666666667 377 538 c 128
 385.666666667 529.333333333 396.666666667 525 410 525 c 0
 424.666666667 525 439 530.666666667 453 542 c 128
 467 553.333333333 475.666666667 566.666666667 479 582 c 0
442 676 m 0
 464.666666667 676 483 669 497 655 c 128
 511 641 518 623 518 601 c 0
 518 596.333333333 517.333333333 590 516 582 c 0
 510.666666667 556 496.833333333 533.833333333 474.5 515.5 c 128
 452.166666667 497.166666667 428 488 402 488 c 0
 379.333333333 488 361 495 347 509 c 128
 333 523 326 541 326 563 c 0
 326 566.333333333 326.666666667 572.666666667 328 582 c 0
 333.333333333 608 347.166666667 630.166666667 369.5 648.5 c 128
 391.833333333 666.833333333 416 676 442 676 c 0
EndSplineSet
EndChar

StartChar: u0B95_u0BB7
Encoding: 67 -1 67
Width: 1315
Flags: HW
AnchorPoint: "V" 454.5 455 basechar 0
AnchorPoint: "N" 454.5 -4 basechar 0
LayerCount: 2
Fore
SplineSet
501 219 m 1
 464.333333333 185 441 145.666666667 431 101 c 0
 429 89 428 79 428 71 c 0
 428 50.3333333333 436 40 452 40 c 0
 462 40 473.833333333 48.3333333333 487.5 65 c 128
 501.166666667 81.6666666667 510 99.5 514 118.5 c 128
 518 137.5 520 153.333333333 520 166 c 0
 520 188.666666667 513.666666667 206.333333333 501 219 c 1
365 401 m 1
 356.333333333 403.666666667 349.166666667 405.833333333 343.5 407.5 c 128
 337.833333333 409.166666667 328 410 314 410 c 0
 297.333333333 410 283.666666667 407.833333333 273 403.5 c 128
 262.333333333 399.166666667 252.333333333 391 243 379 c 0
 229 361.666666667 216 326.666666667 204 274 c 1
 212 275.333333333 225.166666667 276.666666667 243.5 278 c 128
 261.833333333 279.333333333 281 280 301 280 c 1
 306.333333333 296 310.833333333 309 314.5 319 c 128
 318.166666667 329 322.666666667 338.666666667 328 348 c 0
 336 363.333333333 343 375 349 383 c 0
 357 391 362.333333333 397 365 401 c 1
291 241 m 1
 271.666666667 241 256 240 244 238 c 128
 232 236 220.333333333 231.666666667 209 225 c 0
 186.333333333 212.333333333 169.833333333 198.333333333 159.5 183 c 128
 149.166666667 167.666666667 141.333333333 147.333333333 136 122 c 0
 133.333333333 109.333333333 132 97.3333333333 132 86 c 0
 132 68.6666666667 136 56.6666666667 144 50 c 128
 152 43.3333333333 164 40 180 40 c 0
 210.666666667 40 233.666666667 55 249 85 c 0
 255.666666667 98.3333333333 263.333333333 125 272 165 c 2
 291 241 l 1
997 180 m 1
 1017.66666667 208.666666667 1037.33333333 238.333333333 1056 269 c 0
 1072 295.666666667 1082 313.5 1086 322.5 c 128
 1090 331.5 1093.33333333 340.333333333 1096 349 c 128
 1098.66666667 357.666666667 1100 366 1100 374 c 0
 1100 384.666666667 1097 393.333333333 1091 400 c 128
 1085 406.666666667 1075.33333333 410 1062 410 c 0
 1039.33333333 410 1017 397.166666667 995 371.5 c 128
 973 345.833333333 958.333333333 315 951 279 c 0
 950.333333333 276.333333333 950 272.666666667 950 268 c 0
 950 252.666666667 955 236.666666667 965 220 c 0
 973 206.666666667 983.666666667 193.333333333 997 180 c 1
1012 40 m 1
 1016.66666667 38 1022.66666667 36.6666666667 1030 36 c 128
 1037.33333333 35.3333333333 1046.33333333 35 1057 35 c 0
 1067 35 1067 35 1077.5 35 c 128
 1084.5 35 1091.33333333 35.3333333333 1098 36 c 0
 1116 36 1125 39.3333333333 1125 46 c 0
 1125 51.3333333333 1119.33333333 57.3333333333 1108 64 c 0
 1088 75.3333333333 1067.66666667 84 1047 90 c 1
 1012 40 l 1
620 0 m 0
 609.333333333 0 604 5.66666666667 604 17 c 0
 604 21.6666666667 605.833333333 26.1666666667 609.5 30.5 c 128
 613.166666667 34.8333333333 619.333333333 38 628 40 c 0
 653.333333333 46 673.333333333 56 688 70 c 0
 707.333333333 89.3333333333 721.333333333 118.666666667 730 158 c 0
 732 167.333333333 733 175.666666667 733 183 c 0
 733 211 724.5 234.166666667 707.5 252.5 c 128
 690.5 270.833333333 672 280 652 280 c 0
 618.666666667 280 587.333333333 272.666666667 558 258 c 1
 582 249.333333333 600.166666667 237.833333333 612.5 223.5 c 128
 624.833333333 209.166666667 631 190.333333333 631 167 c 0
 631 159 630 149.333333333 628 138 c 0
 621.333333333 108 606 79.3333333333 582 52 c 0
 548.666666667 14.6666666667 509.666666667 -4 465 -4 c 0
 447.666666667 -4 432 1.33333333333 418 12 c 0
 398.666666667 26.6666666667 389 47.6666666667 389 75 c 0
 389 83.6666666667 390 93 392 103 c 0
 398 131 407 155.666666667 419 177 c 128
 431 198.333333333 445.666666667 217.666666667 463 235 c 1
 458.333333333 236.333333333 453.666666667 237.5 449 238.5 c 128
 444.333333333 239.5 427.333333333 240 398 240 c 1
 380 162 l 2
 370 111.333333333 348.333333333 71.6666666667 315 43 c 128
 281.666666667 14.3333333333 238.333333333 0 185 0 c 0
 133.666666667 0 93.8333333333 8.16666666667 65.5 24.5 c 128
 37.1666666667 40.8333333333 23 64.6666666667 23 96 c 0
 23 106 23.6666666667 113.666666667 25 119 c 0
 33.6666666667 157.666666667 48.6666666667 189 70 213 c 128
 91.3333333333 237 122.666666667 254.666666667 164 266 c 1
 172 305 l 2
 181.333333333 349 197.333333333 383 220 407 c 0
 246.666666667 435.666666667 281.666666667 450 325 450 c 0
 348.333333333 450 370 447 390 441 c 128
 410 435 427 432 441 432 c 0
 453.666666667 432 463.833333333 432.833333333 471.5 434.5 c 128
 479.166666667 436.166666667 488.666666667 440 500 446 c 0
 506 449.333333333 511.666666667 451 517 451 c 0
 524.333333333 451 528 447.666666667 528 441 c 0
 528 428.333333333 518.333333333 418 499 410 c 0
 487 404.666666667 475.833333333 397.166666667 465.5 387.5 c 128
 455.166666667 377.833333333 446 366.333333333 438 353 c 0
 434.666666667 347 429.5 334.833333333 422.5 316.5 c 128
 415.5 298.166666667 411 286 409 280 c 1
 438.333333333 280 466 278 492 274 c 0
 496.666666667 273.333333333 502 272.333333333 508 271 c 1
 532 287 557.833333333 299.166666667 585.5 307.5 c 128
 613.166666667 315.833333333 639 320 663 320 c 0
 718.333333333 320 762 307.666666667 794 283 c 128
 826 258.333333333 842 225.666666667 842 185 c 0
 842 175 841 165 839 155 c 0
 835 134.333333333 826.833333333 114.5 814.5 95.5 c 128
 802.166666667 76.5 786.333333333 58 767 40 c 1
 773 41.3333333333 781.166666667 42.3333333333 791.5 43 c 128
 801.833333333 43.6666666667 812.333333333 44 823 44 c 0
 839.666666667 44 854.333333333 43.6666666667 867 43 c 128
 879.666666667 42.3333333333 891 41.3333333333 901 40 c 1
 911.666666667 50.6666666667 924.166666667 67.3333333333 938.5 90 c 128
 952.833333333 112.666666667 963.666666667 129.666666667 971 141 c 1
 952.333333333 156.333333333 938 172.333333333 928 189 c 0
 915.333333333 209.666666667 909 232 909 256 c 0
 909 264.666666667 910 274 912 284 c 0
 921.333333333 328.666666667 941.5 367.5 972.5 400.5 c 128
 1003.5 433.5 1038.33333333 450 1077 450 c 0
 1119 450 1150.33333333 442 1171 426 c 128
 1191.66666667 410 1202 388.666666667 1202 362 c 0
 1202 350.666666667 1200.66666667 340 1198 330 c 0
 1192.66666667 309.333333333 1182.33333333 285.833333333 1167 259.5 c 128
 1151.66666667 233.166666667 1121.33333333 189.666666667 1076 129 c 1
 1134 100.333333333 1164.33333333 85 1167 83 c 0
 1193.66666667 66.3333333333 1205.33333333 49.6666666667 1202 33 c 0
 1200 23 1193.83333333 14.8333333333 1183.5 8.5 c 128
 1173.16666667 2.16666666667 1160.33333333 -1 1145 -1 c 0
 1140.33333333 -0.333333333333 1136.66666667 0 1134 0 c 2
 983 -1 l 1
 957 -37.6666666667 934.666666667 -74.6666666667 916 -112 c 0
 907.333333333 -128 901.833333333 -142 899.5 -154 c 128
 897.166666667 -166 896 -179.666666667 896 -195 c 2
 896 -206 l 2
 896 -212.666666667 895 -217.333333333 893 -220 c 128
 891 -222.666666667 886 -224 878 -224 c 0
 860 -224 846 -220.666666667 836 -214 c 0
 819.333333333 -202.666666667 811 -182.666666667 811 -154 c 0
 811 -142.666666667 811.166666667 -134.833333333 811.5 -130.5 c 128
 811.833333333 -126.166666667 813.333333333 -118.166666667 816 -106.5 c 128
 818.666666667 -94.8333333333 825.833333333 -79.1666666667 837.5 -59.5 c 128
 849.166666667 -39.8333333333 861 -20.3333333333 873 -1 c 1
 849 -0.333333333333 815.833333333 0.333333333333 773.5 1 c 128
 731.166666667 1.66666666667 705 2 695 2 c 0
 683.666666667 2 671.666666667 1.83333333333 659 1.5 c 128
 646.333333333 1.16666666667 633.333333333 0.666666666667 620 0 c 0
EndSplineSet
EndChar

StartChar: u0B95_u0BB7_u0BBF
Encoding: 68 -1 68
Width: 1379
Flags: HW
AnchorPoint: "V" 454.5 455 basechar 0
AnchorPoint: "N" 454.5 -4 basechar 0
LayerCount: 2
Fore
SplineSet
501 219 m 1
 464.333333333 185 441 145.666666667 431 101 c 0
 429 89 428 79 428 71 c 0
 428 50.3333333333 436 40 452 40 c 0
 462 40 473.833333333 48.3333333333 487.5 65 c 128
 501.166666667 81.6666666667 510 99.5 514 118.5 c 128
 518 137.5 520 153.333333333 520 166 c 0
 520 188.666666667 513.666666667 206.333333333 501 219 c 1
365 401 m 1
 356.333333333 403.666666667 349.166666667 405.833333333 343.5 407.5 c 128
 337.833333333 409.166666667 328 410 314 410 c 0
 297.333333333 410 283.666666667 407.833333333 273 403.5 c 128
 262.333333333 399.166666667 252.333333333 391 243 379 c 0
 229 361.666666667 216 326.666666667 204 274 c 1
 212 275.333333333 225.166666667 276.666666667 243.5 278 c 128
 261.833333333 279.333333333 281 280 301 280 c 1
 306.333333333 296 310.833333333 309 314.5 319 c 128
 318.166666667 329 322.666666667 338.666666667 328 348 c 0
 336 363.333333333 343 375 349 383 c 0
 357 391 362.333333333 397 365 401 c 1
291 241 m 1
 271.666666667 241 256 240 244 238 c 128
 232 236 220.333333333 231.666666667 209 225 c 0
 186.333333333 212.333333333 169.833333333 198.333333333 159.5 183 c 128
 149.166666667 167.666666667 141.333333333 147.333333333 136 122 c 0
 133.333333333 109.333333333 132 97.3333333333 132 86 c 0
 132 68.6666666667 136 56.6666666667 144 50 c 128
 152 43.3333333333 164 40 180 40 c 0
 210.666666667 40 233.666666667 55 249 85 c 0
 255.666666667 98.3333333333 263.333333333 125 272 165 c 2
 291 241 l 1
997 180 m 1
 1017.66666667 208.666666667 1037.33333333 238.333333333 1056 269 c 0
 1072 295.666666667 1082 313.5 1086 322.5 c 128
 1090 331.5 1093.33333333 340.333333333 1096 349 c 128
 1098.66666667 357.666666667 1100 366 1100 374 c 0
 1100 384.666666667 1097 393.333333333 1091 400 c 128
 1085 406.666666667 1075.33333333 410 1062 410 c 0
 1039.33333333 410 1017 397.166666667 995 371.5 c 128
 973 345.833333333 958.333333333 315 951 279 c 0
 950.333333333 276.333333333 950 272.666666667 950 268 c 0
 950 252.666666667 955 236.666666667 965 220 c 0
 973 206.666666667 983.666666667 193.333333333 997 180 c 1
1012 40 m 1
 1016.66666667 38 1022.66666667 36.6666666667 1030 36 c 128
 1037.33333333 35.3333333333 1046.33333333 35 1057 35 c 0
 1067 35 1067 35 1077.5 35 c 128
 1084.5 35 1091.33333333 35.3333333333 1098 36 c 0
 1116 36 1125 39.3333333333 1125 46 c 0
 1125 51.3333333333 1119.33333333 57.3333333333 1108 64 c 0
 1088 75.3333333333 1067.66666667 84 1047 90 c 1
 1012 40 l 1
1081 533 m 0
 1090.33333333 576.333333333 1109 610.666666667 1137 636 c 0
 1169 664.666666667 1210 679 1260 679 c 0
 1298 679 1326.33333333 669 1345 649 c 128
 1363.66666667 629 1373 601 1373 565 c 0
 1373 545 1370.66666667 524 1366 502 c 128
 1361.33333333 480 1354 456.666666667 1344 432 c 0
 1337.33333333 415.333333333 1326.33333333 391.333333333 1311 360 c 0
 1310.33333333 358 1310 355.833333333 1310 353.5 c 128
 1310 350 1310 350 1310 349 c 0
 1310 344.333333333 1311.83333333 338 1315.5 330 c 128
 1319.16666667 322 1320.33333333 314.333333333 1319 307 c 0
 1317.66666667 300.333333333 1314.33333333 294 1309 288 c 128
 1303.66666667 282 1297.66666667 279 1291 279 c 0
 1283.66666667 279 1277.33333333 282.666666667 1272 290 c 128
 1266.66666667 297.333333333 1264 305.666666667 1264 315 c 0
 1264 317 1264.66666667 320.666666667 1266 326 c 0
 1286.66666667 374.666666667 1307.66666667 423.666666667 1329 473 c 0
 1331.66666667 484.333333333 1333 496 1333 508 c 0
 1333 533.333333333 1325.83333333 552.833333333 1311.5 566.5 c 128
 1297.16666667 580.166666667 1274.33333333 587 1243 587 c 0
 1207 587 1178.16666667 578.166666667 1156.5 560.5 c 128
 1134.83333333 542.833333333 1121 519.666666667 1115 491 c 0
 1113.66666667 481.666666667 1113 474.333333333 1113 469 c 0
 1113 464.333333333 1113.66666667 457.333333333 1115 448 c 1
 1143.66666667 442.666666667 1165.33333333 432.333333333 1180 417 c 128
 1194.66666667 401.666666667 1202 382.666666667 1202 360 c 0
 1202 354 1202 354 1202 349 c 0
 1200 340.333333333 1198.66666667 334 1198 330 c 0
 1192.66666667 309.333333333 1182.33333333 285.833333333 1167 259.5 c 128
 1151.66666667 233.166666667 1121.33333333 189.666666667 1076 129 c 1
 1134 100.333333333 1164.33333333 85 1167 83 c 0
 1193.66666667 66.3333333333 1205.33333333 49.6666666667 1202 33 c 0
 1200 23 1193.83333333 14.8333333333 1183.5 8.5 c 128
 1173.16666667 2.16666666667 1160.33333333 -1 1145 -1 c 0
 1140.33333333 -0.333333333333 1136.66666667 0 1134 0 c 2
 983 -1 l 1
 957 -37.6666666667 934.666666667 -74.6666666667 916 -112 c 0
 907.333333333 -128 901.833333333 -142 899.5 -154 c 128
 897.166666667 -166 896 -179.666666667 896 -195 c 2
 896 -206 l 2
 896 -212.666666667 895 -217.333333333 893 -220 c 128
 891 -222.666666667 886 -224 878 -224 c 0
 860 -224 846 -220.666666667 836 -214 c 0
 819.333333333 -202.666666667 811 -182.666666667 811 -154 c 0
 811 -142.666666667 811.166666667 -134.833333333 811.5 -130.5 c 128
 811.833333333 -126.166666667 813.333333333 -118.166666667 816 -106.5 c 128
 818.666666667 -94.8333333333 825.833333333 -79.1666666667 837.5 -59.5 c 128
 849.166666667 -39.8333333333 861 -20.3333333333 873 -1 c 1
 849 -0.333333333333 815.833333333 0.333333333333 773.5 1 c 128
 731.166666667 1.66666666667 705 2 695 2 c 0
 683.666666667 2 671.666666667 1.83333333333 659 1.5 c 128
 646.333333333 1.16666666667 633.333333333 0.666666666667 620 0 c 0
 609.333333333 0 604 5.66666666667 604 17 c 0
 604 21.6666666667 605.833333333 26.1666666667 609.5 30.5 c 128
 613.166666667 34.8333333333 619.333333333 38 628 40 c 0
 653.333333333 46 673.333333333 56 688 70 c 0
 707.333333333 89.3333333333 721.333333333 118.666666667 730 158 c 0
 732 167.333333333 733 175.666666667 733 183 c 0
 733 211 724.5 234.166666667 707.5 252.5 c 128
 690.5 270.833333333 672 280 652 280 c 0
 618.666666667 280 587.333333333 272.666666667 558 258 c 1
 582 249.333333333 600.166666667 237.833333333 612.5 223.5 c 128
 624.833333333 209.166666667 631 190.333333333 631 167 c 0
 631 159 630 149.333333333 628 138 c 0
 621.333333333 108 606 79.3333333333 582 52 c 0
 548.666666667 14.6666666667 509.666666667 -4 465 -4 c 0
 447.666666667 -4 432 1.33333333333 418 12 c 0
 398.666666667 26.6666666667 389 47.6666666667 389 75 c 0
 389 83.6666666667 390 93 392 103 c 0
 398 131 407 155.666666667 419 177 c 128
 431 198.333333333 445.666666667 217.666666667 463 235 c 1
 458.333333333 236.333333333 453.666666667 237.5 449 238.5 c 128
 444.333333333 239.5 427.333333333 240 398 240 c 1
 380 162 l 2
 370 111.333333333 348.333333333 71.6666666667 315 43 c 128
 281.666666667 14.3333333333 238.333333333 0 185 0 c 0
 133.666666667 0 93.8333333333 8.16666666667 65.5 24.5 c 128
 37.1666666667 40.8333333333 23 64.6666666667 23 96 c 0
 23 106 23.6666666667 113.666666667 25 119 c 0
 33.6666666667 157.666666667 48.6666666667 189 70 213 c 128
 91.3333333333 237 122.666666667 254.666666667 164 266 c 1
 172 305 l 2
 181.333333333 349 197.333333333 383 220 407 c 0
 246.666666667 435.666666667 281.666666667 450 325 450 c 0
 348.333333333 450 370 447 390 441 c 128
 410 435 427 432 441 432 c 0
 453.666666667 432 463.833333333 432.833333333 471.5 434.5 c 128
 479.166666667 436.166666667 488.666666667 440 500 446 c 0
 506 449.333333333 511.666666667 451 517 451 c 0
 524.333333333 451 528 447.666666667 528 441 c 0
 528 428.333333333 518.333333333 418 499 410 c 0
 487 404.666666667 475.833333333 397.166666667 465.5 387.5 c 128
 455.166666667 377.833333333 446 366.333333333 438 353 c 0
 434.666666667 347 429.5 334.833333333 422.5 316.5 c 128
 415.5 298.166666667 411 286 409 280 c 1
 438.333333333 280 466 278 492 274 c 0
 496.666666667 273.333333333 502 272.333333333 508 271 c 1
 532 287 557.833333333 299.166666667 585.5 307.5 c 128
 613.166666667 315.833333333 639 320 663 320 c 0
 718.333333333 320 762 307.666666667 794 283 c 128
 826 258.333333333 842 225.666666667 842 185 c 0
 842 175 841 165 839 155 c 0
 835 134.333333333 826.833333333 114.5 814.5 95.5 c 128
 802.166666667 76.5 786.333333333 58 767 40 c 1
 773 41.3333333333 781.166666667 42.3333333333 791.5 43 c 128
 801.833333333 43.6666666667 812.333333333 44 823 44 c 0
 839.666666667 44 854.333333333 43.6666666667 867 43 c 128
 879.666666667 42.3333333333 891 41.3333333333 901 40 c 1
 911.666666667 50.6666666667 924.166666667 67.3333333333 938.5 90 c 128
 952.833333333 112.666666667 963.666666667 129.666666667 971 141 c 1
 952.333333333 156.333333333 938 172.333333333 928 189 c 0
 915.333333333 209.666666667 909 232 909 256 c 0
 909 264.666666667 910 274 912 284 c 0
 921.333333333 328.666666667 941.833333333 367.5 973.5 400.5 c 128
 1005.16666667 433.5 1040.33333333 450 1079 450 c 1
 1077.66666667 458 1076.83333333 464.666666667 1076.5 470 c 128
 1076.16666667 475.333333333 1076 481.333333333 1076 488 c 0
 1076 496 1076 496 1076 502.5 c 128
 1076 506.833333333 1077.66666667 517 1081 533 c 0
EndSplineSet
EndChar

StartChar: u0B95_u0BB7_u0BC0
Encoding: 69 -1 69
Width: 1389
Flags: HW
AnchorPoint: "V" 454.5 455 basechar 0
AnchorPoint: "N" 454.5 -4 basechar 0
LayerCount: 2
Fore
SplineSet
1394 588 m 0
 1390 567.333333333 1378.33333333 547.666666667 1359 529 c 0
 1333.66666667 504.333333333 1303 492 1267 492 c 0
 1234.33333333 492 1211 498.166666667 1197 510.5 c 128
 1183 522.833333333 1176 538.666666667 1176 558 c 0
 1176 566 1177.33333333 574.666666667 1180 584 c 128
 1182.66666667 593.333333333 1186 601.666666667 1190 609 c 1
 1170.66666667 603.666666667 1154.33333333 593.166666667 1141 577.5 c 128
 1127.66666667 561.833333333 1119 545.333333333 1115 528 c 0
 1113.66666667 518.666666667 1113 512 1113 508 c 0
 1113 484 1120 462.333333333 1134 443 c 1
 1158 436.333333333 1175.33333333 426.166666667 1186 412.5 c 128
 1196.66666667 398.833333333 1202 381.666666667 1202 361 c 0
 1202 352 1202 352 1202 343 c 0
 1200 337 1198.66666667 332.666666667 1198 330 c 0
 1192.66666667 309.333333333 1182.33333333 285.833333333 1167 259.5 c 128
 1151.66666667 233.166666667 1121.33333333 189.666666667 1076 129 c 1
 1134 100.333333333 1164.33333333 85 1167 83 c 0
 1193.66666667 66.3333333333 1205.33333333 49.6666666667 1202 33 c 0
 1200 23 1193.83333333 14.8333333333 1183.5 8.5 c 128
 1173.16666667 2.16666666667 1160.33333333 -1 1145 -1 c 0
 1140.33333333 -0.333333333333 1136.66666667 0 1134 0 c 2
 983 -1 l 1
 957 -37.6666666667 934.666666667 -74.6666666667 916 -112 c 0
 907.333333333 -128 901.833333333 -142 899.5 -154 c 128
 897.166666667 -166 896 -179.666666667 896 -195 c 2
 896 -206 l 2
 896 -212.666666667 895 -217.333333333 893 -220 c 128
 891 -222.666666667 886 -224 878 -224 c 0
 860 -224 846 -220.666666667 836 -214 c 0
 819.333333333 -202.666666667 811 -182.666666667 811 -154 c 0
 811 -142.666666667 811.166666667 -134.833333333 811.5 -130.5 c 128
 811.833333333 -126.166666667 813.333333333 -118.166666667 816 -106.5 c 128
 818.666666667 -94.8333333333 825.833333333 -79.1666666667 837.5 -59.5 c 128
 849.166666667 -39.8333333333 861 -20.3333333333 873 -1 c 1
 849 -0.333333333333 815.833333333 0.333333333333 773.5 1 c 128
 731.166666667 1.66666666667 705 2 695 2 c 0
 683.666666667 2 671.666666667 1.83333333333 659 1.5 c 128
 646.333333333 1.16666666667 633.333333333 0.666666666667 620 0 c 0
 609.333333333 0 604 5.66666666667 604 17 c 0
 604 21.6666666667 605.833333333 26.1666666667 609.5 30.5 c 128
 613.166666667 34.8333333333 619.333333333 38 628 40 c 0
 653.333333333 46 673.333333333 56 688 70 c 0
 707.333333333 89.3333333333 721.333333333 118.666666667 730 158 c 0
 732 167.333333333 733 175.666666667 733 183 c 0
 733 211 724.5 234.166666667 707.5 252.5 c 128
 690.5 270.833333333 672 280 652 280 c 0
 618.666666667 280 587.333333333 272.666666667 558 258 c 1
 582 249.333333333 600.166666667 237.833333333 612.5 223.5 c 128
 624.833333333 209.166666667 631 190.333333333 631 167 c 0
 631 159 630 149.333333333 628 138 c 0
 621.333333333 108 606 79.3333333333 582 52 c 0
 548.666666667 14.6666666667 509.666666667 -4 465 -4 c 0
 447.666666667 -4 432 1.33333333333 418 12 c 0
 398.666666667 26.6666666667 389 47.6666666667 389 75 c 0
 389 83.6666666667 390 93 392 103 c 0
 398 131 407 155.666666667 419 177 c 128
 431 198.333333333 445.666666667 217.666666667 463 235 c 1
 458.333333333 236.333333333 453.666666667 237.5 449 238.5 c 128
 444.333333333 239.5 427.333333333 240 398 240 c 1
 380 162 l 2
 370 111.333333333 348.333333333 71.6666666667 315 43 c 128
 281.666666667 14.3333333333 238.333333333 0 185 0 c 0
 133.666666667 0 93.8333333333 8.16666666667 65.5 24.5 c 128
 37.1666666667 40.8333333333 23 64.6666666667 23 96 c 0
 23 106 23.6666666667 113.666666667 25 119 c 0
 33.6666666667 157.666666667 48.6666666667 189 70 213 c 128
 91.3333333333 237 122.666666667 254.666666667 164 266 c 1
 172 305 l 2
 181.333333333 349 197.333333333 383 220 407 c 0
 246.666666667 435.666666667 281.666666667 450 325 450 c 0
 348.333333333 450 370 447 390 441 c 128
 410 435 427 432 441 432 c 0
 453.666666667 432 463.833333333 432.833333333 471.5 434.5 c 128
 479.166666667 436.166666667 488.666666667 440 500 446 c 0
 506 449.333333333 511.666666667 451 517 451 c 0
 524.333333333 451 528 447.666666667 528 441 c 0
 528 428.333333333 518.333333333 418 499 410 c 0
 487 404.666666667 475.833333333 397.166666667 465.5 387.5 c 128
 455.166666667 377.833333333 446 366.333333333 438 353 c 0
 434.666666667 347 429.5 334.833333333 422.5 316.5 c 128
 415.5 298.166666667 411 286 409 280 c 1
 438.333333333 280 466 278 492 274 c 0
 496.666666667 273.333333333 502 272.333333333 508 271 c 1
 532 287 557.833333333 299.166666667 585.5 307.5 c 128
 613.166666667 315.833333333 639 320 663 320 c 0
 718.333333333 320 762 307.666666667 794 283 c 128
 826 258.333333333 842 225.666666667 842 185 c 0
 842 175 841 165 839 155 c 0
 835 134.333333333 826.833333333 114.5 814.5 95.5 c 128
 802.166666667 76.5 786.333333333 58 767 40 c 1
 773 41.3333333333 781.166666667 42.3333333333 791.5 43 c 128
 801.833333333 43.6666666667 812.333333333 44 823 44 c 0
 839.666666667 44 854.333333333 43.6666666667 867 43 c 128
 879.666666667 42.3333333333 891 41.3333333333 901 40 c 1
 911.666666667 50.6666666667 924.166666667 67.3333333333 938.5 90 c 128
 952.833333333 112.666666667 963.666666667 129.666666667 971 141 c 1
 952.333333333 156.333333333 938 172.333333333 928 189 c 0
 915.333333333 209.666666667 909 232 909 256 c 0
 909 264.666666667 910 274 912 284 c 0
 921.333333333 328.666666667 941.5 367.5 972.5 400.5 c 128
 1003.5 433.5 1038.33333333 450 1077 450 c 2
 1082 450 l 1
 1075.33333333 465.333333333 1072 481.666666667 1072 499 c 0
 1072 508.333333333 1073.66666667 520.666666667 1077 536 c 0
 1085.66666667 576.666666667 1107.33333333 610.666666667 1142 638 c 0
 1180.66666667 668 1227.66666667 683 1283 683 c 0
 1314.33333333 683 1341 675.833333333 1363 661.5 c 128
 1385 647.166666667 1396 628 1396 604 c 0
 1396 601.333333333 1395.33333333 596 1394 588 c 0
1286 578 m 0
 1286.66666667 580 1287 583.333333333 1287 588 c 0
 1287 606.666666667 1277.33333333 616 1258 616 c 0
 1246.66666667 616 1237 612.666666667 1229 606 c 128
 1221 599.333333333 1215.33333333 590.666666667 1212 580 c 0
 1211.33333333 578 1211 574.666666667 1211 570 c 0
 1211 551.333333333 1220.66666667 542 1240 542 c 0
 1252 542 1262 545.333333333 1270 552 c 128
 1278 558.666666667 1283.33333333 567.333333333 1286 578 c 0
1087 324 m 0
 1090.33333333 332 1093.33333333 340.333333333 1096 349 c 128
 1098.66666667 357.666666667 1100 366 1100 374 c 0
 1100 384.666666667 1097 393.333333333 1091 400 c 128
 1085 406.666666667 1075.33333333 410 1062 410 c 0
 1039.33333333 410 1017 397.166666667 995 371.5 c 128
 973 345.833333333 958.333333333 315 951 279 c 0
 950.333333333 276.333333333 950 272.666666667 950 268 c 0
 950 252.666666667 955 236.666666667 965 220 c 0
 973 206.666666667 983.666666667 193.333333333 997 180 c 1
 1017.66666667 208.666666667 1037.33333333 238.333333333 1056 269 c 0
 1072 295.666666667 1082.33333333 314 1087 324 c 0
1108 64 m 0
 1088 75.3333333333 1067.66666667 84 1047 90 c 1
 1012 40 l 1
 1016.66666667 38 1022.66666667 36.6666666667 1030 36 c 128
 1037.33333333 35.3333333333 1046.33333333 35 1057 35 c 0
 1067 35 1067 35 1077.5 35 c 128
 1084.5 35 1091.33333333 35.3333333333 1098 36 c 0
 1116 36 1125 39.3333333333 1125 46 c 0
 1125 51.3333333333 1119.33333333 57.3333333333 1108 64 c 0
514 118 m 0
 518 137.333333333 520 153.333333333 520 166 c 0
 520 188.666666667 513.666666667 206.333333333 501 219 c 1
 464.333333333 185 441 145.666666667 431 101 c 0
 429 89 428 79 428 71 c 0
 428 50.3333333333 436 40 452 40 c 0
 462 40 473.833333333 48.3333333333 487.5 65 c 128
 501.166666667 81.6666666667 510 99.3333333333 514 118 c 0
365 401 m 1
 356.333333333 403.666666667 349.166666667 405.833333333 343.5 407.5 c 128
 337.833333333 409.166666667 328 410 314 410 c 0
 297.333333333 410 283.666666667 407.833333333 273 403.5 c 128
 262.333333333 399.166666667 252.333333333 391 243 379 c 0
 229 361.666666667 216 326.666666667 204 274 c 1
 212 275.333333333 225.166666667 276.666666667 243.5 278 c 128
 261.833333333 279.333333333 281 280 301 280 c 1
 306.333333333 296 310.833333333 309 314.5 319 c 128
 318.166666667 329 322.666666667 338.666666667 328 348 c 0
 336 363.333333333 343 375 349 383 c 0
 357 391 362.333333333 397 365 401 c 1
291 241 m 1
 271.666666667 241 256 240 244 238 c 128
 232 236 220.333333333 231.666666667 209 225 c 0
 186.333333333 212.333333333 169.833333333 198.333333333 159.5 183 c 128
 149.166666667 167.666666667 141.333333333 147.333333333 136 122 c 0
 133.333333333 109.333333333 132 97.3333333333 132 86 c 0
 132 68.6666666667 136 56.6666666667 144 50 c 128
 152 43.3333333333 164 40 180 40 c 0
 210.666666667 40 233.666666667 55 249 85 c 0
 255.666666667 98.3333333333 263.333333333 125 272 165 c 2
 291 241 l 1
EndSplineSet
EndChar

StartChar: u0B95_u0BB7_u0BCD
Encoding: 70 -1 70
Width: 1315
Flags: HW
AnchorPoint: "N" 454.5 -4 basechar 0
LayerCount: 2
Fore
SplineSet
501 219 m 1
 464.333333333 185 441 145.666666667 431 101 c 0
 429 89 428 79 428 71 c 0
 428 50.3333333333 436 40 452 40 c 0
 462 40 473.833333333 48.3333333333 487.5 65 c 128
 501.166666667 81.6666666667 510 99.5 514 118.5 c 128
 518 137.5 520 153.333333333 520 166 c 0
 520 188.666666667 513.666666667 206.333333333 501 219 c 1
365 401 m 1
 356.333333333 403.666666667 349.166666667 405.833333333 343.5 407.5 c 128
 337.833333333 409.166666667 328 410 314 410 c 0
 297.333333333 410 283.666666667 407.833333333 273 403.5 c 128
 262.333333333 399.166666667 252.333333333 391 243 379 c 0
 229 361.666666667 216 326.666666667 204 274 c 1
 212 275.333333333 225.166666667 276.666666667 243.5 278 c 128
 261.833333333 279.333333333 281 280 301 280 c 1
 306.333333333 296 310.833333333 309 314.5 319 c 128
 318.166666667 329 322.666666667 338.666666667 328 348 c 0
 336 363.333333333 343 375 349 383 c 0
 357 391 362.333333333 397 365 401 c 1
291 241 m 1
 271.666666667 241 256 240 244 238 c 128
 232 236 220.333333333 231.666666667 209 225 c 0
 186.333333333 212.333333333 169.833333333 198.333333333 159.5 183 c 128
 149.166666667 167.666666667 141.333333333 147.333333333 136 122 c 0
 133.333333333 109.333333333 132 97.3333333333 132 86 c 0
 132 68.6666666667 136 56.6666666667 144 50 c 128
 152 43.3333333333 164 40 180 40 c 0
 210.666666667 40 233.666666667 55 249 85 c 0
 255.666666667 98.3333333333 263.333333333 125 272 165 c 2
 291 241 l 1
997 180 m 1
 1017.66666667 208.666666667 1037.33333333 238.333333333 1056 269 c 0
 1072 295.666666667 1082 313.5 1086 322.5 c 128
 1090 331.5 1093.33333333 340.333333333 1096 349 c 128
 1098.66666667 357.666666667 1100 366 1100 374 c 0
 1100 384.666666667 1097 393.333333333 1091 400 c 128
 1085 406.666666667 1075.33333333 410 1062 410 c 0
 1039.33333333 410 1017 397.166666667 995 371.5 c 128
 973 345.833333333 958.333333333 315 951 279 c 0
 950.333333333 276.333333333 950 272.666666667 950 268 c 0
 950 252.666666667 955 236.666666667 965 220 c 0
 973 206.666666667 983.666666667 193.333333333 997 180 c 1
1012 40 m 1
 1016.66666667 38 1022.66666667 36.6666666667 1030 36 c 128
 1037.33333333 35.3333333333 1046.33333333 35 1057 35 c 0
 1067 35 1067 35 1077.5 35 c 128
 1084.5 35 1091.33333333 35.3333333333 1098 36 c 0
 1116 36 1125 39.3333333333 1125 46 c 0
 1125 51.3333333333 1119.33333333 57.3333333333 1108 64 c 0
 1088 75.3333333333 1067.66666667 84 1047 90 c 1
 1012 40 l 1
620 0 m 0
 609.333333333 0 604 5.66666666667 604 17 c 0
 604 21.6666666667 605.833333333 26.1666666667 609.5 30.5 c 128
 613.166666667 34.8333333333 619.333333333 38 628 40 c 0
 653.333333333 46 673.333333333 56 688 70 c 0
 707.333333333 89.3333333333 721.333333333 118.666666667 730 158 c 0
 732 167.333333333 733 175.666666667 733 183 c 0
 733 211 724.5 234.166666667 707.5 252.5 c 128
 690.5 270.833333333 672 280 652 280 c 0
 618.666666667 280 587.333333333 272.666666667 558 258 c 1
 582 249.333333333 600.166666667 237.833333333 612.5 223.5 c 128
 624.833333333 209.166666667 631 190.333333333 631 167 c 0
 631 159 630 149.333333333 628 138 c 0
 621.333333333 108 606 79.3333333333 582 52 c 0
 548.666666667 14.6666666667 509.666666667 -4 465 -4 c 0
 447.666666667 -4 432 1.33333333333 418 12 c 0
 398.666666667 26.6666666667 389 47.6666666667 389 75 c 0
 389 83.6666666667 390 93 392 103 c 0
 398 131 407 155.666666667 419 177 c 128
 431 198.333333333 445.666666667 217.666666667 463 235 c 1
 458.333333333 236.333333333 453.666666667 237.5 449 238.5 c 128
 444.333333333 239.5 427.333333333 240 398 240 c 1
 380 162 l 2
 370 111.333333333 348.333333333 71.6666666667 315 43 c 128
 281.666666667 14.3333333333 238.333333333 0 185 0 c 0
 133.666666667 0 93.8333333333 8.16666666667 65.5 24.5 c 128
 37.1666666667 40.8333333333 23 64.6666666667 23 96 c 0
 23 106 23.6666666667 113.666666667 25 119 c 0
 33.6666666667 157.666666667 48.6666666667 189 70 213 c 128
 91.3333333333 237 122.666666667 254.666666667 164 266 c 1
 172 305 l 2
 181.333333333 349 197.333333333 383 220 407 c 0
 246.666666667 435.666666667 281.666666667 450 325 450 c 0
 348.333333333 450 370 447 390 441 c 128
 410 435 427 432 441 432 c 0
 453.666666667 432 463.833333333 432.833333333 471.5 434.5 c 128
 479.166666667 436.166666667 488.666666667 440 500 446 c 0
 506 449.333333333 511.666666667 451 517 451 c 0
 524.333333333 451 528 447.666666667 528 441 c 0
 528 428.333333333 518.333333333 418 499 410 c 0
 487 404.666666667 475.833333333 397.166666667 465.5 387.5 c 128
 455.166666667 377.833333333 446 366.333333333 438 353 c 0
 434.666666667 347 429.5 334.833333333 422.5 316.5 c 128
 415.5 298.166666667 411 286 409 280 c 1
 438.333333333 280 466 278 492 274 c 0
 496.666666667 273.333333333 502 272.333333333 508 271 c 1
 532 287 557.833333333 299.166666667 585.5 307.5 c 128
 613.166666667 315.833333333 639 320 663 320 c 0
 718.333333333 320 762 307.666666667 794 283 c 128
 826 258.333333333 842 225.666666667 842 185 c 0
 842 175 841 165 839 155 c 0
 835 134.333333333 826.833333333 114.5 814.5 95.5 c 128
 802.166666667 76.5 786.333333333 58 767 40 c 1
 773 41.3333333333 781.166666667 42.3333333333 791.5 43 c 128
 801.833333333 43.6666666667 812.333333333 44 823 44 c 0
 839.666666667 44 854.333333333 43.6666666667 867 43 c 128
 879.666666667 42.3333333333 891 41.3333333333 901 40 c 1
 911.666666667 50.6666666667 924.166666667 67.3333333333 938.5 90 c 128
 952.833333333 112.666666667 963.666666667 129.666666667 971 141 c 1
 952.333333333 156.333333333 938 172.333333333 928 189 c 0
 915.333333333 209.666666667 909 232 909 256 c 0
 909 264.666666667 910 274 912 284 c 0
 921.333333333 328.666666667 941.5 367.5 972.5 400.5 c 128
 1003.5 433.5 1038.33333333 450 1077 450 c 0
 1119 450 1150.33333333 442 1171 426 c 128
 1191.66666667 410 1202 388.666666667 1202 362 c 0
 1202 350.666666667 1200.66666667 340 1198 330 c 0
 1192.66666667 309.333333333 1182.33333333 285.833333333 1167 259.5 c 128
 1151.66666667 233.166666667 1121.33333333 189.666666667 1076 129 c 1
 1134 100.333333333 1164.33333333 85 1167 83 c 0
 1193.66666667 66.3333333333 1205.33333333 49.6666666667 1202 33 c 0
 1200 23 1193.83333333 14.8333333333 1183.5 8.5 c 128
 1173.16666667 2.16666666667 1160.33333333 -1 1145 -1 c 0
 1140.33333333 -0.333333333333 1136.66666667 0 1134 0 c 2
 983 -1 l 1
 957 -37.6666666667 934.666666667 -74.6666666667 916 -112 c 0
 907.333333333 -128 901.833333333 -142 899.5 -154 c 128
 897.166666667 -166 896 -179.666666667 896 -195 c 2
 896 -206 l 2
 896 -212.666666667 895 -217.333333333 893 -220 c 128
 891 -222.666666667 886 -224 878 -224 c 0
 860 -224 846 -220.666666667 836 -214 c 0
 819.333333333 -202.666666667 811 -182.666666667 811 -154 c 0
 811 -142.666666667 811.166666667 -134.833333333 811.5 -130.5 c 128
 811.833333333 -126.166666667 813.333333333 -118.166666667 816 -106.5 c 128
 818.666666667 -94.8333333333 825.833333333 -79.1666666667 837.5 -59.5 c 128
 849.166666667 -39.8333333333 861 -20.3333333333 873 -1 c 1
 849 -0.333333333333 815.833333333 0.333333333333 773.5 1 c 128
 731.166666667 1.66666666667 705 2 695 2 c 0
 683.666666667 2 671.666666667 1.83333333333 659 1.5 c 128
 646.333333333 1.16666666667 633.333333333 0.666666666667 620 0 c 0
762 525 m 0
 746.666666667 525 734.333333333 529.333333333 725 538 c 128
 715.666666667 546.666666667 711 558.666666667 711 574 c 0
 711 576 712.166666667 583.166666667 714.5 595.5 c 128
 716.833333333 607.833333333 725.166666667 620 739.5 632 c 128
 753.833333333 644 770 650 788 650 c 0
 803.333333333 650 815.5 645.5 824.5 636.5 c 128
 833.5 627.5 838 615.333333333 838 600 c 0
 838 594 837.666666667 589.666666667 837 587 c 0
 833 569.666666667 823.833333333 555 809.5 543 c 128
 795.166666667 531 779.333333333 525 762 525 c 0
EndSplineSet
EndChar

StartChar: u0B9A
Encoding: 71 2970 71
Width: 603
Flags: HW
AnchorPoint: "V" 454.5 455 basechar 0
AnchorPoint: "N" 454.5 182.15 basechar 0
LayerCount: 2
Fore
SplineSet
547 301 m 0
 535 275 515.333333333 257.666666667 488 249 c 0
 469.333333333 243 439.333333333 240 398 240 c 1
 380 162 l 2
 370 111.333333333 348.333333333 71.6666666667 315 43 c 128
 281.666666667 14.3333333333 238.333333333 0 185 0 c 0
 133.666666667 0 93.8333333333 8.16666666667 65.5 24.5 c 128
 37.1666666667 40.8333333333 23 64.6666666667 23 96 c 0
 23 106 23.6666666667 113.666666667 25 119 c 0
 33.6666666667 157.666666667 48.6666666667 189 70 213 c 128
 91.3333333333 237 122.666666667 254.666666667 164 266 c 1
 172 305 l 2
 181.333333333 349 197.333333333 383 220 407 c 0
 246.666666667 435.666666667 281.666666667 450 325 450 c 0
 348.333333333 450 370 447 390 441 c 128
 410 435 427 432 441 432 c 0
 453.666666667 432 463.833333333 432.833333333 471.5 434.5 c 128
 479.166666667 436.166666667 488.666666667 440 500 446 c 0
 506 449.333333333 511.666666667 451 517 451 c 0
 524.333333333 451 528 447.666666667 528 441 c 0
 528 428.333333333 518.333333333 418 499 410 c 0
 487 404.666666667 475.833333333 397.166666667 465.5 387.5 c 128
 455.166666667 377.833333333 446 366.333333333 438 353 c 0
 434.666666667 347 429.5 334.833333333 422.5 316.5 c 128
 415.5 298.166666667 411 286 409 280 c 1
 446.333333333 280 471.666666667 281.666666667 485 285 c 0
 508.333333333 291 524.333333333 304 533 324 c 0
 535.666666667 326.666666667 538.666666667 328 542 328 c 0
 549.333333333 328 553 324.333333333 553 317 c 0
 553 312.333333333 551 307 547 301 c 0
365 401 m 1
 356.333333333 403.666666667 349.166666667 405.833333333 343.5 407.5 c 128
 337.833333333 409.166666667 328 410 314 410 c 0
 297.333333333 410 283.666666667 407.833333333 273 403.5 c 128
 262.333333333 399.166666667 252.333333333 391 243 379 c 0
 229 361.666666667 216 326.666666667 204 274 c 1
 212 275.333333333 225.166666667 276.666666667 243.5 278 c 128
 261.833333333 279.333333333 281 280 301 280 c 1
 306.333333333 296 310.833333333 309 314.5 319 c 128
 318.166666667 329 322.666666667 338.666666667 328 348 c 0
 336 363.333333333 343 375 349 383 c 0
 357 391 362.333333333 397 365 401 c 1
291 241 m 1
 271.666666667 241 256 240 244 238 c 128
 232 236 220.333333333 231.666666667 209 225 c 0
 186.333333333 212.333333333 169.5 196.833333333 158.5 178.5 c 128
 147.5 160.166666667 139.333333333 138 134 112 c 0
 132 100.666666667 131 91.3333333333 131 84 c 0
 131 54.6666666667 147.333333333 40 180 40 c 0
 210.666666667 40 233.666666667 55 249 85 c 0
 255.666666667 98.3333333333 263.333333333 125 272 165 c 2
 291 241 l 1
EndSplineSet
EndChar

StartChar: u0B9A_u0BBF
Encoding: 72 -1 72
Width: 689
Flags: HW
AnchorPoint: "V" 454.5 642.326 basechar 0
AnchorPoint: "N" 454.5 182.15 basechar 0
LayerCount: 2
Fore
SplineSet
365 401 m 1
 356.333333333 403.666666667 349.166666667 405.833333333 343.5 407.5 c 128
 337.833333333 409.166666667 328 410 314 410 c 0
 297.333333333 410 283.666666667 407.833333333 273 403.5 c 128
 262.333333333 399.166666667 252.333333333 391 243 379 c 0
 229 361.666666667 216 326.666666667 204 274 c 1
 212 275.333333333 225.166666667 276.666666667 243.5 278 c 128
 261.833333333 279.333333333 281 280 301 280 c 1
 306.333333333 296 310.833333333 309 314.5 319 c 128
 318.166666667 329 322.666666667 338.666666667 328 348 c 0
 336 363.333333333 343 375 349 383 c 0
 357 391 362.333333333 397 365 401 c 1
291 241 m 1
 271.666666667 241 256 240 244 238 c 128
 232 236 220.333333333 231.666666667 209 225 c 0
 186.333333333 212.333333333 169.5 196.833333333 158.5 178.5 c 128
 147.5 160.166666667 139.333333333 138 134 112 c 0
 132 100.666666667 131 91.3333333333 131 84 c 0
 131 54.6666666667 147.333333333 40 180 40 c 0
 210.666666667 40 233.666666667 55 249 85 c 0
 255.666666667 98.3333333333 263.333333333 125 272 165 c 2
 291 241 l 1
391 441 m 1
 387.666666667 455.666666667 386 471 386 487 c 0
 386 493.666666667 386.333333333 501 387 509 c 128
 387.666666667 517 389 525 391 533 c 0
 400.333333333 576.333333333 419 610.666666667 447 636 c 0
 479 664.666666667 520 679 570 679 c 0
 608 679 636.333333333 669 655 649 c 128
 673.666666667 629 683 601 683 565 c 0
 683 545 680.666666667 524 676 502 c 128
 671.333333333 480 664 456.666666667 654 432 c 0
 647.333333333 415.333333333 636.333333333 391.333333333 621 360 c 0
 620.333333333 358 620 355.833333333 620 353.5 c 128
 620 350 620 350 620 349 c 0
 620 344.333333333 621.833333333 338 625.5 330 c 128
 629.166666667 322 630.333333333 314.333333333 629 307 c 0
 627.666666667 301 624 295.333333333 618 290 c 128
 612 284.666666667 605.666666667 282 599 282 c 0
 591.666666667 282 585.666666667 285.333333333 581 292 c 128
 576.333333333 298.666666667 574 306 574 314 c 0
 574 316.666666667 574.666666667 320.666666667 576 326 c 0
 596.666666667 374.666666667 617.666666667 423.666666667 639 473 c 0
 641.666666667 484.333333333 643 496 643 508 c 0
 643 533.333333333 635.833333333 552.833333333 621.5 566.5 c 128
 607.166666667 580.166666667 584.333333333 587 553 587 c 0
 517 587 488.166666667 578.166666667 466.5 560.5 c 128
 444.833333333 542.833333333 431 519.666666667 425 491 c 0
 423.666666667 481.666666667 423 474.666666667 423 470 c 0
 423 456 425.333333333 443.333333333 430 432 c 1
 446.666666667 432 459.333333333 432.5 468 433.5 c 128
 476.666666667 434.5 487.333333333 438.666666667 500 446 c 0
 506 449.333333333 511.666666667 451 517 451 c 0
 524.333333333 451 528 447.666666667 528 441 c 0
 528 428.333333333 518.333333333 418 499 410 c 0
 487 404.666666667 475.833333333 397.166666667 465.5 387.5 c 128
 455.166666667 377.833333333 446 366.333333333 438 353 c 0
 434.666666667 347 429.5 334.833333333 422.5 316.5 c 128
 415.5 298.166666667 411 286 409 280 c 1
 439.666666667 280 458.333333333 280.333333333 465 281 c 0
 492.333333333 283.666666667 512 293 524 309 c 0
 526.666666667 311.666666667 529.666666667 313 533 313 c 0
 540.333333333 313 544 309.333333333 544 302 c 0
 544 297.333333333 542 292 538 286 c 0
 527.333333333 268.666666667 510.5 256.666666667 487.5 250 c 128
 464.5 243.333333333 434.666666667 240 398 240 c 1
 380 162 l 2
 370 111.333333333 348.333333333 71.6666666667 315 43 c 128
 281.666666667 14.3333333333 238.333333333 0 185 0 c 0
 133.666666667 0 93.8333333333 8.16666666667 65.5 24.5 c 128
 37.1666666667 40.8333333333 23 64.6666666667 23 96 c 0
 23 106 23.6666666667 113.666666667 25 119 c 0
 33.6666666667 157.666666667 48.6666666667 189 70 213 c 128
 91.3333333333 237 122.666666667 254.666666667 164 266 c 1
 172 305 l 2
 181.333333333 349 197.333333333 383 220 407 c 0
 246.666666667 435.666666667 281.666666667 450 325 450 c 0
 339 450 350.666666667 449.333333333 360 448 c 128
 369.333333333 446.666666667 379.666666667 444.333333333 391 441 c 1
EndSplineSet
EndChar

StartChar: u0B9A_u0BC0
Encoding: 73 -1 73
Width: 669
Flags: HW
AnchorPoint: "V" 454.5 658.692 basechar 0
AnchorPoint: "N" 454.5 182.15 basechar 0
LayerCount: 2
Fore
SplineSet
674 588 m 0
 670 567.333333333 658.333333333 547.666666667 639 529 c 0
 613.666666667 504.333333333 583 492 547 492 c 0
 514.333333333 492 491 498.166666667 477 510.5 c 128
 463 522.833333333 456 538.666666667 456 558 c 0
 456 566 457.333333333 574.666666667 460 584 c 128
 462.666666667 593.333333333 466 601.666666667 470 609 c 1
 450.666666667 603.666666667 434.333333333 593.166666667 421 577.5 c 128
 407.666666667 561.833333333 399 545.333333333 395 528 c 0
 393.666666667 518.666666667 393 511.666666667 393 507 c 0
 393 493.666666667 395.666666667 480.5 401 467.5 c 128
 406.333333333 454.5 413.333333333 443 422 433 c 1
 441 432 l 2
 453.666666667 432 463.833333333 432.833333333 471.5 434.5 c 128
 479.166666667 436.166666667 488.666666667 440 500 446 c 0
 506 449.333333333 511.666666667 451 517 451 c 0
 524.333333333 451 528 447.666666667 528 441 c 0
 528 428.333333333 518.333333333 418 499 410 c 0
 487 404.666666667 475.833333333 397.166666667 465.5 387.5 c 128
 455.166666667 377.833333333 446 366.333333333 438 353 c 0
 434.666666667 347 429.5 334.833333333 422.5 316.5 c 128
 415.5 298.166666667 411 286 409 280 c 1
 446.333333333 280 471.666666667 281.666666667 485 285 c 0
 508.333333333 291 524.333333333 304 533 324 c 0
 535.666666667 326.666666667 538.666666667 328 542 328 c 0
 549.333333333 328 553 324.333333333 553 317 c 0
 553 312.333333333 551 307 547 301 c 0
 535 275 515.333333333 257.666666667 488 249 c 0
 469.333333333 243 439.333333333 240 398 240 c 1
 380 162 l 2
 370 111.333333333 348.333333333 71.6666666667 315 43 c 128
 281.666666667 14.3333333333 238.333333333 0 185 0 c 0
 133.666666667 0 93.8333333333 8.16666666667 65.5 24.5 c 128
 37.1666666667 40.8333333333 23 64.6666666667 23 96 c 0
 23 106 23.6666666667 113.666666667 25 119 c 0
 33.6666666667 157.666666667 48.6666666667 189 70 213 c 128
 91.3333333333 237 122.666666667 254.666666667 164 266 c 1
 172 305 l 2
 181.333333333 349 197.333333333 383 220 407 c 0
 246.666666667 435.666666667 281.666666667 450 325 450 c 0
 339 450 351.666666667 449 363 447 c 1
 355.666666667 461.666666667 352 478.666666667 352 498 c 0
 352 508 353.666666667 520.666666667 357 536 c 0
 365.666666667 576.666666667 387.333333333 610.666666667 422 638 c 0
 460.666666667 668 507.666666667 683 563 683 c 0
 594.333333333 683 621 675.833333333 643 661.5 c 128
 665 647.166666667 676 628 676 604 c 0
 676 601.333333333 675.333333333 596 674 588 c 0
566 578 m 0
 566.666666667 580 567 583.333333333 567 588 c 0
 567 606.666666667 557.333333333 616 538 616 c 0
 526.666666667 616 517 612.666666667 509 606 c 128
 501 599.333333333 495.333333333 590.666666667 492 580 c 0
 491.333333333 578 491 574.666666667 491 570 c 0
 491 551.333333333 500.666666667 542 520 542 c 0
 532 542 542 545.333333333 550 552 c 128
 558 558.666666667 563.333333333 567.333333333 566 578 c 0
365 401 m 1
 356.333333333 403.666666667 349.166666667 405.833333333 343.5 407.5 c 128
 337.833333333 409.166666667 328 410 314 410 c 0
 297.333333333 410 283.666666667 407.833333333 273 403.5 c 128
 262.333333333 399.166666667 252.333333333 391 243 379 c 0
 229 361.666666667 216 326.666666667 204 274 c 1
 212 275.333333333 225.166666667 276.666666667 243.5 278 c 128
 261.833333333 279.333333333 281 280 301 280 c 1
 306.333333333 296 310.833333333 309 314.5 319 c 128
 318.166666667 329 322.666666667 338.666666667 328 348 c 0
 336 363.333333333 343 375 349 383 c 0
 357 391 362.333333333 397 365 401 c 1
291 241 m 1
 271.666666667 241 256 240 244 238 c 128
 232 236 220.333333333 231.666666667 209 225 c 0
 186.333333333 212.333333333 169.5 196.833333333 158.5 178.5 c 128
 147.5 160.166666667 139.333333333 138 134 112 c 0
 132 100.666666667 131 91.3333333333 131 84 c 0
 131 54.6666666667 147.333333333 40 180 40 c 0
 210.666666667 40 233.666666667 55 249 85 c 0
 255.666666667 98.3333333333 263.333333333 125 272 165 c 2
 291 241 l 1
EndSplineSet
EndChar

StartChar: u0B9A_u0BC1
Encoding: 74 -1 74
Width: 643
Flags: HW
AnchorPoint: "V" 454.5 455 basechar 0
AnchorPoint: "N" 454.5 182.15 basechar 0
LayerCount: 2
Fore
SplineSet
581 271 m 0
 570.333333333 257 558.166666667 246.666666667 544.5 240 c 128
 530.833333333 233.333333333 523.666666667 228 523 224 c 2
 503 137 l 2
 497 109 487.166666667 88 473.5 74 c 128
 459.833333333 60 444 53 426 53 c 0
 417.333333333 53 413 56.3333333333 413 63 c 0
 413 66.3333333333 414.333333333 70.3333333333 417 75 c 0
 433 93 443.666666667 114.333333333 449 139 c 2
 460 191 l 2
 462 200.333333333 463 207 463 211 c 0
 463 220.333333333 455 225.333333333 439 226 c 128
 423 226.666666667 409 231.666666667 397 241 c 1
 380 162 l 2
 370 111.333333333 348.333333333 71.6666666667 315 43 c 128
 281.666666667 14.3333333333 238.333333333 0 185 0 c 0
 133.666666667 0 93.8333333333 8.16666666667 65.5 24.5 c 128
 37.1666666667 40.8333333333 23 64.6666666667 23 96 c 0
 23 106 23.6666666667 113.666666667 25 119 c 0
 33.6666666667 157.666666667 48.6666666667 189 70 213 c 128
 91.3333333333 237 122.666666667 254.666666667 164 266 c 1
 172 305 l 2
 181.333333333 349 197.333333333 383 220 407 c 0
 246.666666667 435.666666667 281.666666667 450 325 450 c 0
 348.333333333 450 370 447 390 441 c 128
 410 435 427 432 441 432 c 0
 453.666666667 432 463.833333333 432.833333333 471.5 434.5 c 128
 479.166666667 436.166666667 488.666666667 440 500 446 c 0
 506 449.333333333 511.666666667 451 517 451 c 0
 524.333333333 451 528 447.666666667 528 441 c 0
 528 428.333333333 518.333333333 418 499 410 c 0
 487 404.666666667 475.833333333 397.166666667 465.5 387.5 c 128
 455.166666667 377.833333333 446 366.333333333 438 353 c 0
 433.333333333 344.333333333 427.333333333 330.666666667 420 312 c 0
 416.666666667 303.333333333 412.666666667 292.333333333 408 279 c 1
 432.666666667 269 459.333333333 264 488 264 c 0
 506 264 521.833333333 266.5 535.5 271.5 c 128
 549.166666667 276.5 559.333333333 284 566 294 c 0
 568.666666667 296.666666667 572 298 576 298 c 0
 583.333333333 298 587 294.333333333 587 287 c 0
 587 282.333333333 585 277 581 271 c 0
365 401 m 1
 356.333333333 403.666666667 349.166666667 405.833333333 343.5 407.5 c 128
 337.833333333 409.166666667 328 410 314 410 c 0
 297.333333333 410 283.666666667 407.833333333 273 403.5 c 128
 262.333333333 399.166666667 252.333333333 391 243 379 c 0
 229 361.666666667 216 326.666666667 204 274 c 1
 212 275.333333333 225.166666667 276.666666667 243.5 278 c 128
 261.833333333 279.333333333 281 280 301 280 c 1
 306.333333333 296 310.833333333 309 314.5 319 c 128
 318.166666667 329 322.666666667 338.666666667 328 348 c 0
 336 363.333333333 343 375 349 383 c 0
 357 391 362.333333333 397 365 401 c 1
291 241 m 1
 271.666666667 241 256 240 244 238 c 128
 232 236 220.333333333 231.666666667 209 225 c 0
 186.333333333 212.333333333 169.5 196.833333333 158.5 178.5 c 128
 147.5 160.166666667 139.333333333 138 134 112 c 0
 132 100.666666667 131 91.3333333333 131 84 c 0
 131 54.6666666667 147.333333333 40 180 40 c 0
 210.666666667 40 233.666666667 55 249 85 c 0
 255.666666667 98.3333333333 263.333333333 125 272 165 c 2
 291 241 l 1
EndSplineSet
EndChar

StartChar: u0B9A_u0BC2
Encoding: 75 -1 75
Width: 775
Flags: HW
AnchorPoint: "V" 454.5 455 basechar 0
AnchorPoint: "N" 454.5 182.15 basechar 0
LayerCount: 2
Fore
SplineSet
664 40 m 0
 652.666666667 -13.3333333333 630 -59.3333333333 596 -98 c 0
 543.333333333 -158 466.666666667 -198 366 -218 c 0
 343.333333333 -222.666666667 319 -225 293 -225 c 0
 247 -225 209 -217 179 -201 c 128
 149 -185 134 -161.333333333 134 -130 c 0
 134 -121.333333333 135.166666667 -111.5 137.5 -100.5 c 128
 139.833333333 -89.5 150.166666667 -78.1666666667 168.5 -66.5 c 128
 186.833333333 -54.8333333333 208.333333333 -49 233 -49 c 0
 259 -49 285 -55.3333333333 311 -68 c 0
 315.666666667 -70.6666666667 318 -73.3333333333 318 -76 c 0
 318 -80.6666666667 312.666666667 -83 302 -83 c 0
 296 -83 291.333333333 -82.3333333333 288 -81 c 0
 268.666666667 -75.6666666667 250.666666667 -73 234 -73 c 0
 215.333333333 -73 200 -75.8333333333 188 -81.5 c 128
 176 -87.1666666667 169 -94.8333333333 167 -104.5 c 128
 165 -114.166666667 164 -120.666666667 164 -124 c 0
 164 -146.666666667 175.166666667 -164 197.5 -176 c 128
 219.833333333 -188 248.666666667 -194 284 -194 c 0
 310.666666667 -194 337 -190.666666667 363 -184 c 0
 422.333333333 -168.666666667 468.333333333 -142.333333333 501 -105 c 0
 527.666666667 -74.3333333333 548.333333333 -26 563 40 c 0
 565 49.3333333333 566 59 566 69 c 0
 566 88.3333333333 562.166666667 105.166666667 554.5 119.5 c 128
 546.833333333 133.833333333 536.333333333 141 523 141 c 0
 518.333333333 141 512 139.333333333 504 136 c 1
 498 108 487.833333333 87.1666666667 473.5 73.5 c 128
 459.166666667 59.8333333333 443.333333333 53 426 53 c 0
 417.333333333 53 413 56.3333333333 413 63 c 0
 413 66.3333333333 414.333333333 70.3333333333 417 75 c 0
 433 93 443.666666667 114.333333333 449 139 c 2
 460 191 l 2
 462 200.333333333 463 207 463 211 c 0
 463 220.333333333 455 225.333333333 439 226 c 128
 423 226.666666667 409 231.666666667 397 241 c 1
 380 162 l 2
 370 111.333333333 348.333333333 71.6666666667 315 43 c 128
 281.666666667 14.3333333333 238.333333333 0 185 0 c 0
 133.666666667 0 93.8333333333 8.16666666667 65.5 24.5 c 128
 37.1666666667 40.8333333333 23 64.6666666667 23 96 c 0
 23 106 23.6666666667 113.666666667 25 119 c 0
 33.6666666667 157.666666667 48.6666666667 189 70 213 c 128
 91.3333333333 237 122.666666667 254.666666667 164 266 c 1
 172 305 l 2
 181.333333333 349 197.333333333 383 220 407 c 0
 246.666666667 435.666666667 281.666666667 450 325 450 c 0
 348.333333333 450 370 447 390 441 c 128
 410 435 427 432 441 432 c 0
 453.666666667 432 463.833333333 432.833333333 471.5 434.5 c 128
 479.166666667 436.166666667 488.666666667 440 500 446 c 0
 506 449.333333333 511.666666667 451 517 451 c 0
 524.333333333 451 528 447.666666667 528 441 c 0
 528 428.333333333 518.333333333 418 499 410 c 0
 487 404.666666667 475.833333333 397.166666667 465.5 387.5 c 128
 455.166666667 377.833333333 446 366.333333333 438 353 c 0
 433.333333333 344.333333333 427.333333333 330.666666667 420 312 c 0
 416.666666667 303.333333333 412.666666667 292.333333333 408 279 c 1
 432.666666667 269 459.333333333 264 488 264 c 0
 506 264 521.833333333 266.5 535.5 271.5 c 128
 549.166666667 276.5 559.333333333 284 566 294 c 0
 568.666666667 296.666666667 572 298 576 298 c 0
 583.333333333 298 587 294.333333333 587 287 c 0
 587 282.333333333 585 277 581 271 c 0
 570.333333333 257 558.166666667 246.666666667 544.5 240 c 128
 530.833333333 233.333333333 523.666666667 228 523 224 c 2
 512 176 l 1
 526 183.333333333 542 187 560 187 c 0
 589.333333333 187 614.666666667 177.166666667 636 157.5 c 128
 657.333333333 137.833333333 668 110.333333333 668 75 c 0
 668 66 668 66 668 58 c 0
 666 50 664.666666667 44 664 40 c 0
365 401 m 1
 356.333333333 403.666666667 349.166666667 405.833333333 343.5 407.5 c 128
 337.833333333 409.166666667 328 410 314 410 c 0
 297.333333333 410 283.666666667 407.833333333 273 403.5 c 128
 262.333333333 399.166666667 252.333333333 391 243 379 c 0
 229 361.666666667 216 326.666666667 204 274 c 1
 212 275.333333333 225.166666667 276.666666667 243.5 278 c 128
 261.833333333 279.333333333 281 280 301 280 c 1
 306.333333333 296 310.833333333 309 314.5 319 c 128
 318.166666667 329 322.666666667 338.666666667 328 348 c 0
 336 363.333333333 343 375 349 383 c 0
 357 391 362.333333333 397 365 401 c 1
291 241 m 1
 271.666666667 241 256 240 244 238 c 128
 232 236 220.333333333 231.666666667 209 225 c 0
 186.333333333 212.333333333 169.5 196.833333333 158.5 178.5 c 128
 147.5 160.166666667 139.333333333 138 134 112 c 0
 132 100.666666667 131 91.3333333333 131 84 c 0
 131 54.6666666667 147.333333333 40 180 40 c 0
 210.666666667 40 233.666666667 55 249 85 c 0
 255.666666667 98.3333333333 263.333333333 125 272 165 c 2
 291 241 l 1
EndSplineSet
EndChar

